<svg width="24" height="25" viewBox="0 0 24 25" fill="none" xmlns="http://www.w3.org/2000/svg">
<g clip-path="url(#clip0_3_132)">
<path d="M21.543 7.12837C22 8.91037 22 12.6304 22 12.6304C22 12.6304 22 16.3504 21.543 18.1324C21.289 19.1174 20.546 19.8924 19.605 20.1544C17.896 20.6304 12 20.6304 12 20.6304C12 20.6304 6.107 20.6304 4.395 20.1544C3.45 19.8884 2.708 19.1144 2.457 18.1324C2 16.3504 2 12.6304 2 12.6304C2 12.6304 2 8.91037 2.457 7.12837C2.711 6.14337 3.454 5.36837 4.395 5.10637C6.107 4.63037 12 4.63037 12 4.63037C12 4.63037 17.896 4.63037 19.605 5.10637C20.55 5.37237 21.292 6.14637 21.543 7.12837V7.12837ZM10 16.1304L16 12.6304L10 9.13037V16.1304Z" fill="white"/>
</g>
<defs>
<clipPath id="clip0_3_132">
<rect width="24" height="24" fill="white" transform="translate(0 0.630371)"/>
</clipPath>
</defs>
</svg>
