<svg width="143" height="128" viewBox="0 0 143 128" fill="none" xmlns="http://www.w3.org/2000/svg">
<g clip-path="url(#clip0_3_363)">
<path d="M134.633 24.8711C134.166 24.0763 133.673 23.2993 133.159 22.537C126.31 12.3884 114.525 5.44829 102.931 2.31063C97.8555 0.9368 92.6113 0.215906 87.3582 0.0386371C52.903 -1.13134 39.1795 26.0233 27.7929 33.0313C16.4063 40.0394 -1.11377 52.008 0.0562035 77.1181C1.22618 102.228 19.3253 125.879 54.3625 127.338C89.3998 128.798 91.7367 113.033 111.298 107.192C124.245 103.327 133.442 90.2745 137.948 78.2113C144.087 61.7726 143.798 40.4205 134.633 24.8711Z" fill="#92E3A9"/>
<path opacity="0.7" d="M134.633 24.8711C134.166 24.0763 133.673 23.2993 133.159 22.537C126.31 12.3884 114.525 5.44829 102.931 2.31063C97.8555 0.9368 92.6113 0.215906 87.3582 0.0386371C52.903 -1.13134 39.1795 26.0233 27.7929 33.0313C16.4063 40.0394 -1.11377 52.008 0.0562035 77.1181C1.22618 102.228 19.3253 125.879 54.3625 127.338C89.3998 128.798 91.7367 113.033 111.298 107.192C124.245 103.327 133.442 90.2745 137.948 78.2113C144.087 61.7726 143.798 40.4205 134.633 24.8711Z" fill="white"/>
<path d="M25.902 124.292C29.991 120.948 30.5198 115.323 29.9407 110.35C29.8432 109.52 29.8639 108.637 29.403 107.939C28.9421 107.242 27.9671 106.82 27.2403 107.233C26.6376 107.576 26.4249 108.317 26.1235 108.941C25.7217 109.771 25.0806 110.483 24.2977 110.968C23.7836 111.287 23.1336 111.508 22.5782 111.266C21.8189 110.929 21.6505 109.945 21.5884 109.118C21.4732 107.576 21.355 106.034 21.2398 104.488C21.1777 103.661 21.1098 102.816 20.7848 102.051C20.4598 101.286 19.8246 100.606 19.0092 100.45C18.1937 100.296 17.2453 100.831 17.1419 101.655C17.1006 101.998 17.1981 102.344 17.204 102.686C17.2099 103.032 17.0769 103.425 16.7549 103.549C16.4269 103.673 16.0724 103.466 15.8035 103.245C14.8699 102.479 14.1933 101.451 13.5581 100.426C12.9229 99.4009 12.2995 98.3491 11.4398 97.5041C10.58 96.6561 9.43368 96.0239 8.22825 96.0564C7.02282 96.0889 5.80262 96.925 5.59285 98.1127C5.38308 99.3033 6.17193 100.432 6.99918 101.312C8.22825 102.621 9.6464 103.753 11.1945 104.657C11.4752 104.819 11.7766 104.997 11.9036 105.295C12.1311 105.833 11.6466 106.424 11.1089 106.651C10.5002 106.908 9.81776 106.899 9.17073 107.029C8.5237 107.159 7.83826 107.502 7.6403 108.131C7.36554 109.006 8.15438 109.833 8.90778 110.356C10.4146 111.402 12.1016 112.188 13.8743 112.669C14.5095 112.841 15.1742 112.983 15.706 113.37C16.2378 113.757 16.5983 114.475 16.3472 115.083C16.0931 115.692 15.3367 115.943 14.6838 115.878C14.0279 115.813 13.4222 115.515 12.787 115.337C11.5993 115.003 10.1191 115.204 9.46027 116.247C9.02891 116.933 9.05846 117.837 9.36868 118.587C9.67594 119.338 10.2284 119.958 10.8075 120.528C12.8284 122.514 15.3338 124.041 18.0814 124.736C20.8291 125.427 23.3257 125.471 25.902 124.292Z" fill="#92E3A9"/>
<path d="M26.2595 127.983C25.9139 126.024 25.2845 123.728 24.3302 121.279C23.3819 118.827 22.1144 116.221 20.6933 113.544C20.3358 112.876 19.9842 112.215 19.6356 111.565C19.2869 110.915 18.9413 110.274 18.5631 109.665C17.8127 108.445 16.9972 107.328 16.1907 106.291C15.3841 105.254 14.5775 104.3 13.8182 103.41C13.0559 102.524 12.3321 101.711 11.6378 100.996C10.2551 99.5636 9.00535 98.5413 8.11901 97.8736C7.67583 97.5368 7.32425 97.2886 7.08198 97.1232C6.9638 97.0434 6.87221 96.9813 6.80722 96.937C6.74517 96.8957 6.70972 96.8779 6.70972 96.8779C6.70972 96.8779 6.73926 96.9045 6.79835 96.9488C6.86335 96.9961 6.95198 97.0611 7.06721 97.1468C7.30357 97.3181 7.64924 97.5752 8.08946 97.915C8.96694 98.5945 10.2049 99.6226 11.5757 101.059C12.2641 101.774 12.9821 102.589 13.7384 103.478C14.4948 104.368 15.2954 105.325 16.0961 106.362C16.8997 107.399 17.7093 108.513 18.4567 109.73C18.832 110.336 19.1747 110.974 19.5233 111.627C19.8719 112.277 20.2235 112.938 20.581 113.606C21.9992 116.283 23.2666 118.88 24.2209 121.326C25.1782 123.77 25.8164 126.053 26.1709 128.003" fill="#E0E0E0"/>
<path d="M18.5305 109.656C18.5394 109.656 18.5541 109.529 18.5778 109.295C18.6014 109.062 18.625 108.725 18.6487 108.309C18.696 107.475 18.7255 106.32 18.755 105.05C18.7846 103.776 18.8319 102.627 18.8998 101.797C18.9323 101.38 18.9619 101.047 18.9855 100.813C19.0091 100.58 19.018 100.453 19.0091 100.45C19.0003 100.45 18.9766 100.577 18.9382 100.807C18.8998 101.038 18.8555 101.374 18.8112 101.788C18.7225 102.618 18.6575 103.773 18.628 105.047C18.6014 106.308 18.5778 107.449 18.5571 108.306C18.5453 108.705 18.5335 109.035 18.5246 109.292C18.5216 109.526 18.5246 109.653 18.5305 109.656Z" fill="#E0E0E0"/>
<path d="M7.59009 108.554C7.59009 108.557 7.6285 108.56 7.70236 108.563C7.79099 108.563 7.89735 108.563 8.0244 108.563C8.30212 108.563 8.70688 108.56 9.20324 108.574C10.1989 108.595 11.5757 108.675 13.0854 108.828C14.5981 108.985 15.9601 109.186 16.941 109.363C17.4315 109.446 17.8274 109.526 18.1021 109.579C18.2262 109.603 18.3326 109.623 18.4183 109.638C18.4921 109.65 18.5305 109.656 18.5305 109.65C18.5305 109.647 18.4951 109.632 18.4242 109.611C18.3385 109.588 18.238 109.561 18.114 109.529C17.8421 109.461 17.4492 109.366 16.9588 109.272C15.9808 109.074 14.6158 108.858 13.0972 108.701C11.5816 108.548 10.2019 108.483 9.20324 108.483C8.70393 108.48 8.29916 108.495 8.02144 108.509C7.8944 108.518 7.78804 108.524 7.6994 108.533C7.6285 108.545 7.59009 108.551 7.59009 108.554Z" fill="#E0E0E0"/>
<path d="M24.1943 121.089C24.1972 121.089 24.2179 121.045 24.2534 120.954C24.2918 120.85 24.342 120.717 24.4041 120.552C24.5341 120.203 24.7084 119.695 24.9181 119.063C25.3347 117.801 25.8606 116.04 26.4131 114.087C26.9656 112.137 27.4767 110.374 27.8726 109.106C28.0706 108.486 28.2301 107.975 28.3483 107.605C28.4015 107.44 28.4428 107.304 28.4753 107.198C28.5019 107.103 28.5167 107.053 28.5108 107.053C28.5078 107.053 28.4872 107.097 28.4517 107.189C28.4133 107.292 28.3631 107.425 28.301 107.59C28.171 107.939 27.9967 108.447 27.7869 109.08C27.3674 110.341 26.8445 112.102 26.292 114.055C25.7395 116.005 25.2284 117.769 24.8325 119.036C24.6345 119.657 24.475 120.168 24.3568 120.537C24.3036 120.702 24.2622 120.838 24.2297 120.945C24.2032 121.039 24.1913 121.089 24.1943 121.089Z" fill="#E0E0E0"/>
<path d="M9.49878 117.716C9.49878 117.719 9.54901 117.733 9.6465 117.76C9.75877 117.787 9.90059 117.819 10.0749 117.86C10.4619 117.949 10.9967 118.07 11.6496 118.221C12.9792 118.525 14.8109 118.971 16.8318 119.465C18.8556 119.961 20.6904 120.392 22.0258 120.676C22.6935 120.818 23.2342 120.927 23.6094 120.998C23.7867 121.031 23.9314 121.057 24.0407 121.075C24.1412 121.093 24.1914 121.098 24.1944 121.093C24.1944 121.09 24.1441 121.075 24.0467 121.048C23.9373 121.022 23.7955 120.989 23.6183 120.948C23.2312 120.859 22.6965 120.738 22.0435 120.587C20.714 120.283 18.8822 119.837 16.8613 119.341C14.8405 118.844 13.0028 118.413 11.6674 118.132C10.9997 117.99 10.459 117.881 10.0838 117.81C9.9065 117.778 9.76173 117.754 9.65241 117.733C9.55196 117.716 9.49878 117.71 9.49878 117.716Z" fill="#E0E0E0"/>
<path d="M64.7175 39.8665L43.3569 46.293L47.6886 60.6908L69.0492 54.2644L64.7175 39.8665Z" fill="white" stroke="black" stroke-width="0.5" stroke-miterlimit="10"/>
<path d="M69.0492 54.2621C69.0492 54.2621 69.0167 54.1705 68.9635 53.9992C68.9074 53.8219 68.8306 53.5678 68.7272 53.2399C68.5203 52.5692 68.2219 51.5942 67.8408 50.3445C67.0815 47.842 65.9884 44.2553 64.6588 39.8827L64.7357 39.924C58.8415 41.7026 51.4198 43.9392 43.3807 46.3648H43.3777L43.4279 46.2702C44.9702 51.4022 46.4356 56.283 47.7533 60.6704L47.6647 60.6231C53.9518 58.747 59.2876 57.1546 63.0546 56.0289C64.9395 55.4705 66.4315 55.0273 67.4597 54.723C67.9708 54.5723 68.3638 54.4571 68.6356 54.3773C68.7656 54.3389 68.866 54.3123 68.9399 54.2887C69.0137 54.271 69.0492 54.2621 69.0492 54.2621C69.0492 54.2621 69.0197 54.2739 68.9517 54.2946C68.8808 54.3183 68.7833 54.3478 68.6563 54.3862C68.3874 54.4689 68.0004 54.5871 67.5011 54.7437C66.4788 55.0569 64.9956 55.5089 63.1225 56.0821C59.3496 57.2255 54.005 58.8475 47.709 60.7561L47.641 60.7768L47.6203 60.7088C46.2997 56.3214 44.8284 51.4435 43.2832 46.3116L43.2595 46.2377L43.3334 46.2141H43.3363C51.3814 43.8003 58.8031 41.5726 64.7002 39.8029L64.7593 39.7852L64.777 39.8442C66.0859 44.2405 67.1583 47.8479 67.9088 50.3622C68.2781 51.609 68.5647 52.584 68.7626 53.2517C68.8572 53.5796 68.931 53.8308 68.9812 54.0051C69.0285 54.1794 69.0492 54.2621 69.0492 54.2621Z" fill="#E0E0E0"/>
<path d="M69.0492 54.2621C69.0492 54.2621 69.0167 54.1705 68.9635 53.9992C68.9074 53.8219 68.8306 53.5678 68.7272 53.2399C68.5203 52.5692 68.2219 51.5942 67.8408 50.3445C67.0815 47.842 65.9884 44.2553 64.6588 39.8827L64.7357 39.924C58.8415 41.7026 51.4198 43.9392 43.3807 46.3648H43.3777L43.4279 46.2702C44.9702 51.4022 46.4356 56.283 47.7533 60.6704L47.6647 60.6231C53.9518 58.747 59.2876 57.1546 63.0546 56.0289C64.9395 55.4705 66.4315 55.0273 67.4597 54.723C67.9708 54.5723 68.3638 54.4571 68.6356 54.3773C68.7656 54.3389 68.866 54.3123 68.9399 54.2887C69.0137 54.271 69.0492 54.2621 69.0492 54.2621ZM69.0492 54.2621C69.0492 54.2621 69.0197 54.2739 68.9517 54.2946C68.8808 54.3183 68.7833 54.3478 68.6563 54.3862C68.3874 54.4689 68.0004 54.5871 67.5011 54.7437C66.4788 55.0569 64.9956 55.5089 63.1225 56.0821C59.3496 57.2255 54.005 58.8475 47.709 60.7561L47.641 60.7768L47.6203 60.7088C46.2997 56.3214 44.8284 51.4435 43.2832 46.3116L43.2595 46.2377L43.3334 46.2141H43.3363C51.3814 43.8003 58.8031 41.5726 64.7002 39.8029L64.7593 39.7852L64.777 39.8442C66.0859 44.2405 67.1583 47.8479 67.9088 50.3622C68.2781 51.609 68.5647 52.584 68.7626 53.2517C68.8572 53.5796 68.931 53.8308 68.9812 54.0051C69.0285 54.1794 69.0492 54.2621 69.0492 54.2621Z" stroke="black" stroke-width="0.5" stroke-miterlimit="10"/>
<path d="M64.7178 39.8647C64.7208 39.8647 64.709 39.8884 64.6883 39.9297C64.6617 39.98 64.6292 40.0391 64.5878 40.1129C64.4903 40.2843 64.3574 40.5147 64.189 40.8102C63.8315 41.4247 63.3233 42.2963 62.6999 43.3717C61.4206 45.5403 59.6568 48.5302 57.695 51.8629L57.6625 51.919L57.6005 51.8954C57.3937 51.8156 57.1691 51.7299 56.9476 51.6413C53.1954 50.1788 49.7977 48.8523 47.3278 47.8891C46.1076 47.4046 45.1178 47.0116 44.4176 46.7339C44.0837 46.598 43.8208 46.4917 43.6287 46.4119C43.546 46.3764 43.4781 46.3469 43.4249 46.3262C43.3806 46.3055 43.3569 46.2937 43.3569 46.2907C43.3569 46.2878 43.3835 46.2937 43.4308 46.3114C43.4869 46.3321 43.5549 46.3557 43.6406 46.3853C43.8356 46.4562 44.1015 46.5537 44.4383 46.6807C45.1414 46.9466 46.1371 47.3248 47.3662 47.7887C49.842 48.743 53.2456 50.0518 57.0037 51.4995C57.2282 51.5852 57.4498 51.6738 57.6566 51.7536L57.5621 51.7861C59.5416 48.4652 61.3202 45.4842 62.6083 43.3215C63.2524 42.2579 63.7724 41.3922 64.1388 40.7836C64.316 40.4941 64.4579 40.2666 64.5613 40.1011C64.6056 40.0302 64.644 39.9711 64.6735 39.9268C64.7031 39.8825 64.7149 39.8647 64.7178 39.8647Z" fill="#E0E0E0" stroke="black" stroke-width="0.5" stroke-miterlimit="10"/>
<path d="M126.865 97.3736C126.865 97.3736 125.483 96.0027 122.779 99.427C120.076 102.851 118.903 104.905 118.903 104.905C118.903 104.905 118.229 105.602 117.786 104.97C117.34 104.337 116.885 102.706 115.898 102.789C114.876 102.872 114.341 103.888 114.211 105.513C114.078 107.135 113.662 110.681 113.62 111.003C113.582 111.316 113.313 111.738 112.941 111.357C112.569 110.976 110.639 107.72 109.15 108.728C107.661 109.735 108.036 114.318 108.069 114.82C108.101 115.322 107.966 115.505 107.717 115.579C107.466 115.653 106.923 114.498 106.335 113.594C105.75 112.69 104.911 111.747 104.098 112.4C103.289 113.053 102.429 116.265 104.473 122.165L105.599 124.836L108.483 125.246C114.708 125.748 117.6 124.115 118.032 123.166C118.46 122.218 117.337 121.642 116.315 121.302C115.293 120.959 114.04 120.723 114.049 120.46C114.058 120.197 114.202 120.023 114.696 119.928C115.189 119.834 119.721 119.051 120.324 117.358C120.927 115.665 117.293 114.61 116.832 114.347C116.368 114.081 116.711 113.718 117.006 113.603C117.308 113.484 120.634 112.19 122.174 111.659C123.713 111.124 124.564 110.353 124.387 109.342C124.218 108.367 122.525 108.335 121.801 108.06C121.078 107.788 121.586 106.961 121.586 106.961C121.586 106.961 123.279 105.309 125.92 101.835C128.561 98.3604 126.839 97.347 126.839 97.347" fill="#92E3A9"/>
<path d="M124.44 100.438C124.443 100.44 124.425 100.464 124.393 100.511C124.354 100.565 124.304 100.635 124.242 100.721C124.1 100.913 123.902 101.182 123.651 101.522C123.137 102.216 122.381 103.215 121.441 104.444C119.565 106.902 116.941 110.276 114.025 113.987C111.118 117.701 108.486 121.06 106.574 123.503C105.632 124.717 104.863 125.704 104.326 126.396C104.063 126.729 103.859 126.992 103.711 127.179C103.643 127.261 103.59 127.329 103.549 127.379C103.51 127.424 103.493 127.447 103.49 127.444C103.487 127.441 103.504 127.418 103.537 127.371C103.575 127.317 103.625 127.246 103.688 127.161C103.829 126.969 104.027 126.7 104.278 126.36C104.793 125.666 105.549 124.667 106.485 123.438C108.362 120.98 110.985 117.606 113.901 113.895C116.808 110.184 119.438 106.822 121.349 104.382C122.292 103.167 123.06 102.181 123.598 101.489C123.861 101.155 124.065 100.892 124.212 100.706C124.28 100.624 124.333 100.556 124.375 100.505C124.416 100.458 124.437 100.438 124.44 100.438Z" fill="#E0E0E0"/>
<path d="M116.442 105.097C116.463 105.094 116.507 105.389 116.551 105.871C116.596 106.352 116.634 107.017 116.661 107.75C116.678 108.456 116.696 109.094 116.711 109.629C116.723 110.11 116.731 110.406 116.711 110.409C116.69 110.412 116.643 110.116 116.601 109.635C116.563 109.153 116.531 108.488 116.504 107.756C116.48 107.05 116.457 106.411 116.439 105.877C116.427 105.398 116.421 105.1 116.442 105.097Z" fill="#E0E0E0"/>
<path d="M116.965 110.512C116.962 110.471 118.327 110.32 120.014 110.181C121.704 110.039 123.075 109.96 123.078 110.004C123.081 110.045 121.716 110.196 120.026 110.335C118.339 110.474 116.968 110.553 116.965 110.512Z" fill="#E0E0E0"/>
<path d="M112.061 116.211C112.066 116.191 112.365 116.244 112.846 116.339C113.328 116.43 113.996 116.557 114.734 116.675C115.473 116.794 116.144 116.882 116.631 116.947C117.119 117.009 117.42 117.051 117.417 117.074C117.414 117.095 117.11 117.092 116.619 117.056C116.129 117.021 115.449 116.95 114.708 116.829C113.966 116.711 113.298 116.566 112.823 116.448C112.347 116.324 112.058 116.229 112.061 116.211Z" fill="#E0E0E0"/>
<path d="M110.512 111.416C110.533 111.41 110.639 111.67 110.799 112.096C110.958 112.521 111.165 113.112 111.387 113.771C111.608 114.427 111.8 115.024 111.933 115.461C112.066 115.895 112.137 116.167 112.117 116.176C112.096 116.182 111.99 115.922 111.83 115.496C111.67 115.071 111.464 114.48 111.242 113.821C111.021 113.165 110.828 112.568 110.696 112.131C110.563 111.694 110.492 111.422 110.512 111.416Z" fill="#E0E0E0"/>
<path d="M105.546 115.898C105.567 115.892 105.702 116.226 105.906 116.77C106.11 117.316 106.382 118.073 106.675 118.909C106.967 119.748 107.221 120.51 107.401 121.065C107.579 121.621 107.679 121.967 107.658 121.972C107.638 121.978 107.502 121.644 107.298 121.101C107.094 120.554 106.822 119.798 106.53 118.959C106.237 118.12 105.983 117.358 105.803 116.802C105.626 116.25 105.525 115.904 105.546 115.898Z" fill="#E0E0E0"/>
<path d="M107.649 121.813C107.652 121.792 108.036 121.848 108.651 121.946C109.266 122.04 110.116 122.173 111.059 122.297C112.001 122.421 112.855 122.519 113.476 122.584C114.096 122.652 114.477 122.696 114.477 122.717C114.477 122.738 114.09 122.732 113.467 122.693C112.843 122.655 111.984 122.575 111.038 122.451C110.093 122.327 109.245 122.176 108.633 122.052C108.019 121.928 107.646 121.834 107.649 121.813Z" fill="#E0E0E0"/>
<path d="M77.7497 56.1324L72.5105 69.292L88.9696 75.8448L94.2088 62.6852L77.7497 56.1324Z" fill="#92E3A9" stroke="#263238" stroke-miterlimit="10" stroke-linecap="round" stroke-linejoin="round"/>
<path d="M94.2066 62.6881C94.2066 62.6881 94.18 62.6792 94.1268 62.6585C94.0736 62.6378 93.9968 62.6083 93.8963 62.5669C93.6925 62.4872 93.3941 62.369 93.0041 62.2153C92.2241 61.9051 91.0807 61.4531 89.633 60.8799C86.7406 59.7306 82.6279 58.0997 77.7383 56.1587L77.7737 56.1439C76.2167 60.0615 74.4293 64.5494 72.5384 69.3031L72.5207 69.2647C78.6128 71.6933 84.2765 73.9476 88.9771 75.8237L88.9446 75.8385C90.5282 71.8765 91.84 68.5911 92.7589 66.2955C93.2198 65.1462 93.5802 64.248 93.8254 63.6335C93.9495 63.3262 94.0441 63.0928 94.1061 62.9333C94.1711 62.7708 94.2066 62.6881 94.2066 62.6881C94.2066 62.6881 94.177 62.7678 94.115 62.9274C94.0529 63.0869 93.9613 63.3203 93.8402 63.6276C93.5979 64.2421 93.2404 65.1432 92.7884 66.2896C91.8755 68.5911 90.5696 71.8854 88.9919 75.8562L88.983 75.8798L88.9594 75.871C84.2559 74.0008 78.5921 71.7465 72.5 69.3238L72.4734 69.312L72.4852 69.2854C74.379 64.5346 76.1665 60.0467 77.7265 56.1291L77.7353 56.1055L77.759 56.1143C82.6516 58.0672 86.7672 59.7129 89.6596 60.8681C91.1014 61.4472 92.2418 61.9022 93.0189 62.2124C93.4059 62.369 93.7043 62.4872 93.9052 62.5699C94.0057 62.6112 94.0795 62.6408 94.1327 62.6615C94.1829 62.6762 94.2066 62.6881 94.2066 62.6881Z" fill="#92E3A9"/>
<path d="M94.2066 62.6881C94.2066 62.6881 94.18 62.6792 94.1268 62.6585C94.0736 62.6378 93.9968 62.6083 93.8963 62.5669C93.6925 62.4872 93.3941 62.369 93.0041 62.2153C92.2241 61.9051 91.0807 61.4531 89.633 60.8799C86.7406 59.7306 82.6279 58.0997 77.7383 56.1587L77.7737 56.1439C76.2167 60.0615 74.4293 64.5494 72.5384 69.3031L72.5207 69.2647C78.6128 71.6933 84.2765 73.9476 88.9771 75.8237L88.9446 75.8385C90.5282 71.8765 91.84 68.5911 92.7589 66.2955C93.2198 65.1462 93.5802 64.248 93.8254 63.6335C93.9495 63.3262 94.0441 63.0928 94.1061 62.9333C94.1711 62.7708 94.2066 62.6881 94.2066 62.6881ZM94.2066 62.6881C94.2066 62.6881 94.177 62.7678 94.115 62.9274C94.0529 63.0869 93.9613 63.3203 93.8402 63.6276C93.5979 64.2421 93.2404 65.1432 92.7884 66.2896C91.8755 68.5911 90.5696 71.8854 88.9919 75.8562L88.983 75.8798L88.9594 75.871C84.2559 74.0008 78.5921 71.7465 72.5 69.3238L72.4734 69.312L72.4852 69.2854C74.379 64.5346 76.1665 60.0467 77.7265 56.1291L77.7353 56.1055L77.759 56.1143C82.6516 58.0672 86.7672 59.7129 89.6596 60.8681C91.1014 61.4472 92.2418 61.9022 93.0189 62.2124C93.4059 62.369 93.7043 62.4872 93.9052 62.5699C94.0057 62.6112 94.0795 62.6408 94.1327 62.6615C94.1829 62.6762 94.2066 62.6881 94.2066 62.6881Z" stroke="#263238" stroke-miterlimit="10" stroke-linecap="round" stroke-linejoin="round"/>
<path d="M77.977 57.1986L73.3979 68.7002L88.7014 74.7929L93.2805 63.2913L77.977 57.1986Z" fill="#92E3A9" stroke="#263238" stroke-miterlimit="10" stroke-linecap="round" stroke-linejoin="round"/>
<path d="M73.4573 68.7389L81.65 63.7163L83.1805 69.5071L86.3772 68.0121L88.7615 74.8311L73.4573 68.7389Z" fill="white" stroke="#263238" stroke-miterlimit="10" stroke-linecap="round" stroke-linejoin="round"/>
<path d="M86.7141 64.7178C86.4482 65.3826 85.6948 65.7076 85.0301 65.4416C84.3653 65.1757 84.0403 64.4224 84.3062 63.7576C84.5721 63.0928 85.3255 62.7678 85.9903 63.0337C86.655 63.2997 86.98 64.053 86.7141 64.7178Z" fill="white" stroke="#263238" stroke-miterlimit="10" stroke-linecap="round" stroke-linejoin="round"/>
<path d="M34.8303 77.2567C34.8333 77.2449 34.9456 77.3335 35.1819 77.3158C35.2971 77.301 35.4419 77.2508 35.5601 77.1267C35.6724 77.0056 35.7551 76.8106 35.8733 76.6186C36.3312 75.8208 36.9842 74.6804 37.7907 73.2741C37.9946 72.9225 38.2073 72.5532 38.4289 72.1661C38.5412 71.9741 38.6534 71.7762 38.7687 71.5782C38.8248 71.4778 38.8927 71.3773 38.9252 71.2798C38.9577 71.1794 38.9607 71.07 38.9341 70.9637C38.9075 70.8603 38.8484 70.7657 38.7657 70.6948C38.6859 70.6298 38.5648 70.5737 38.4614 70.5146C38.2457 70.3935 38.0271 70.2723 37.8055 70.1482C37.3594 69.9001 36.9044 69.643 36.4346 69.3801C34.5585 68.3253 32.4963 67.1701 30.3307 65.9558C30.0913 65.817 29.7634 65.9086 29.6127 66.1361C29.4591 66.399 29.3055 66.659 29.1548 66.919C28.8505 67.4419 28.5521 67.956 28.2566 68.4612C27.6657 69.4717 27.0985 70.4466 26.5548 71.3773C26.4869 71.4925 26.4189 71.6078 26.3539 71.723C26.286 71.8293 26.2564 71.9416 26.2594 72.0598C26.2653 72.175 26.3067 72.2902 26.3805 72.3759C26.4485 72.4675 26.5578 72.5148 26.673 72.5827C27.1162 72.8339 27.5475 73.0761 27.9641 73.3125C28.7943 73.7852 29.5714 74.2225 30.2804 74.6243C31.6868 75.4279 32.8272 76.0779 33.6279 76.5358C34.0149 76.7604 34.3192 76.9376 34.5349 77.0617C34.6324 77.1208 34.7092 77.1651 34.7683 77.2006C34.8037 77.236 34.8303 77.2538 34.8303 77.2567C34.8303 77.2597 34.8008 77.2449 34.7447 77.2183C34.6826 77.1858 34.6028 77.1445 34.5024 77.0913C34.2838 76.9731 33.9735 76.8047 33.5806 76.589C32.774 76.1429 31.6247 75.5047 30.2095 74.7218C29.4975 74.3259 28.7205 73.8916 27.8843 73.4248C27.4678 73.1914 27.0335 72.9491 26.5903 72.7009C26.4869 72.6389 26.351 72.5827 26.2594 72.4646C26.1648 72.3552 26.1117 72.2105 26.1058 72.0657C26.0998 71.9209 26.1442 71.7703 26.218 71.6521C26.286 71.5368 26.351 71.4216 26.4189 71.3064C26.9596 70.3757 27.5239 69.3978 28.1118 68.3844C28.4043 67.8792 28.7057 67.3622 29.0071 66.8392C29.1607 66.5763 29.3143 66.3133 29.4709 66.0445C29.66 65.7549 30.0795 65.6367 30.3897 65.817C32.5524 67.0342 34.6117 68.1953 36.4878 69.253C36.9546 69.5189 37.4126 69.776 37.8557 70.0271C38.0773 70.1512 38.2959 70.2753 38.5116 70.3964C38.618 70.4614 38.7243 70.5057 38.8366 70.5944C38.94 70.683 39.0139 70.8012 39.0464 70.9282C39.0789 71.0553 39.073 71.1912 39.0346 71.3153C38.9902 71.4423 38.9193 71.5339 38.8662 71.6343C38.7509 71.8323 38.6357 72.0302 38.5234 72.2193C38.2989 72.6034 38.0832 72.9698 37.8764 73.3214C37.0551 74.7159 36.3873 75.8474 35.9176 76.6422C35.7935 76.8342 35.7137 77.0204 35.5867 77.1533C35.4567 77.2804 35.3001 77.3306 35.179 77.3394C35.0549 77.3483 34.9633 77.3217 34.9072 77.2951C34.854 77.2804 34.8303 77.2567 34.8303 77.2567Z" fill="#E0E0E0"/>
<path d="M33.2673 71.2L34.0119 72.5237L32.4755 72.5502L30.9392 72.5798L31.731 71.2296L32.5228 69.8794L33.2673 71.2Z" fill="#E0E0E0"/>
<path d="M38.4792 108.76L29.5566 99.7994L34.0415 91.5623C38.5264 85.8217 48.0222 86.191 48.0222 86.191C48.0222 86.191 54.4836 85.5676 62.0234 87.036C69.5662 88.5044 68.9576 93.4945 68.9576 93.4945L69.9681 111.981L71.0524 127.034L43.2359 127.595L38.4792 108.76Z" fill="#C8DCEC"/>
<path d="M53.4644 126.73L28.5492 127.034C22.5634 127.108 18.569 120.883 21.1305 115.47L31.7844 95.7134L41.4869 102.272L34.8688 116.008L55.0391 116.368L53.4644 126.73Z" fill="#C8DCEC"/>
<path d="M68.0713 90.4927L88.0643 121.361L76.4 122.123C76.4 122.123 69.4333 111.147 69.5929 111.375C69.8765 111.786 68.0713 90.4927 68.0713 90.4927Z" fill="#C8DCEC"/>
<path d="M40.9877 104.048C40.9818 104.048 40.9936 103.992 41.0143 103.888C41.0438 103.77 41.0763 103.623 41.1206 103.442C41.2122 103.055 41.3481 102.494 41.487 101.794C41.6258 101.096 41.7765 100.26 41.877 99.3237C41.9715 98.3901 42.0306 97.3501 41.8888 96.2806C41.7292 95.2141 41.3274 94.245 40.8577 93.4384C40.3849 92.6289 39.8561 91.9641 39.3745 91.4412C38.8929 90.9182 38.4675 90.5282 38.1632 90.2712C37.8618 90.0112 37.6875 89.8753 37.6964 89.8635C37.6993 89.8605 37.7466 89.8901 37.8323 89.9492C37.918 90.0112 38.048 90.0969 38.2016 90.2239C38.5177 90.4692 38.9579 90.8503 39.4543 91.3673C39.9506 91.8843 40.4972 92.5491 40.9818 93.3675C41.4663 94.1829 41.8799 95.1668 42.0424 96.2599C42.1872 97.3531 42.1222 98.4019 42.0217 99.3415C41.9124 100.281 41.7499 101.12 41.5963 101.817C41.4427 102.515 41.292 103.073 41.1797 103.457C41.1236 103.649 41.0792 103.797 41.0467 103.897C41.0113 103.998 40.9906 104.048 40.9877 104.048Z" fill="#263238"/>
<path d="M40.1838 105.111C40.1927 105.114 40.1306 105.274 40.0125 105.558C39.8943 105.841 39.7141 106.249 39.4895 106.748C39.0375 107.75 38.3964 109.127 37.6577 110.633C36.9191 112.14 36.2219 113.49 35.7048 114.459C35.4478 114.944 35.2351 115.334 35.0814 115.603C34.9308 115.872 34.8421 116.016 34.8333 116.01C34.8244 116.005 34.8953 115.851 35.0283 115.573C35.176 115.275 35.371 114.882 35.6073 114.406C36.1066 113.399 36.7773 112.051 37.5189 110.559C38.2457 109.062 38.9016 107.708 39.392 106.695C39.6225 106.219 39.8145 105.823 39.9593 105.525C40.0952 105.259 40.175 105.108 40.1838 105.111Z" fill="#263238"/>
<path d="M53.4643 126.729C53.4613 126.729 53.4613 126.712 53.4643 126.676C53.4672 126.635 53.4702 126.584 53.4761 126.525C53.4909 126.384 53.5116 126.186 53.5352 125.937C53.5943 125.412 53.6741 124.664 53.7804 123.722C54.002 121.813 54.3122 119.121 54.6786 115.951L54.7495 116.031C52.507 116.034 50.0135 116.034 47.3899 116.037C42.3643 116.028 37.8173 116.019 34.5142 116.013C32.8745 116.004 31.545 115.996 30.6114 115.99C30.1593 115.984 29.8048 115.978 29.5507 115.975C29.4355 115.972 29.3439 115.969 29.2759 115.966C29.2139 115.963 29.1814 115.96 29.1814 115.957C29.1814 115.954 29.2139 115.951 29.2759 115.948C29.3468 115.945 29.4384 115.942 29.5507 115.939C29.8048 115.937 30.1593 115.931 30.6114 115.925C31.542 115.919 32.8745 115.91 34.5142 115.901C37.8173 115.895 42.3643 115.886 47.3899 115.877C50.0135 115.88 52.507 115.883 54.7495 115.883H54.8293L54.8204 115.963C54.4304 119.13 54.1025 121.819 53.8691 123.728C53.7479 124.667 53.6534 125.415 53.5854 125.94C53.55 126.189 53.5234 126.384 53.5057 126.525C53.4968 126.587 53.4879 126.635 53.482 126.676C53.4702 126.712 53.4672 126.729 53.4643 126.729Z" fill="#263238"/>
<path d="M35.0431 116.224C35.0224 116.235 34.8511 115.984 34.5468 115.6C34.2425 115.219 33.7875 114.714 33.2172 114.232C32.647 113.751 32.0739 113.387 31.6455 113.151C31.2171 112.912 30.9393 112.788 30.9482 112.764C30.9541 112.746 31.2496 112.838 31.6957 113.053C32.1418 113.269 32.7357 113.624 33.3147 114.114C33.8938 114.605 34.3459 115.13 34.6324 115.532C34.922 115.937 35.0579 116.212 35.0431 116.224Z" fill="#263238"/>
<path d="M70.3846 118.176C70.3787 118.176 70.3669 118.088 70.3462 117.922C70.3255 117.742 70.2989 117.497 70.2635 117.187C70.1955 116.549 70.1039 115.624 70.0064 114.477C69.8055 112.188 69.5721 109.024 69.3624 105.522C69.1555 102.021 69.0108 98.8512 68.928 96.5556C68.8867 95.4063 68.8571 94.4786 68.8453 93.8375C68.8394 93.5272 68.8365 93.2791 68.8335 93.0988C68.8335 92.9304 68.8335 92.8418 68.8394 92.8418C68.8453 92.8418 68.8542 92.9304 68.863 93.0988C68.8719 93.282 68.8867 93.5272 68.9044 93.8375C68.9369 94.4934 68.9812 95.4181 69.0374 96.5556C69.1496 98.8512 69.3092 102.018 69.516 105.519C69.7228 109.018 69.9385 112.185 70.1128 114.475C70.2014 115.609 70.2723 116.531 70.3226 117.187C70.3462 117.497 70.3639 117.742 70.3757 117.925C70.3876 118.088 70.3905 118.176 70.3846 118.176Z" fill="#263238"/>
<path d="M48.1462 101.38C48.1374 101.38 48.1492 101.238 48.1787 100.975C48.2142 100.695 48.2585 100.32 48.3146 99.8587C48.4446 98.8837 48.6219 97.5483 48.8287 96.0001L48.9439 96.071C48.3471 96.4876 47.703 96.9396 47.0324 97.4094C46.3499 97.8851 45.694 98.3401 45.0883 98.7626L44.9495 98.86L44.9761 98.6916C45.2095 97.1583 45.4133 95.8347 45.561 94.8685C45.6349 94.4136 45.6969 94.0442 45.7442 93.7665C45.7885 93.5095 45.8181 93.3706 45.8269 93.3736C45.8358 93.3736 45.824 93.5154 45.7944 93.7754C45.759 94.0561 45.7117 94.4283 45.6556 94.8833C45.5226 95.8524 45.3365 97.179 45.1238 98.7153L45.0086 98.6444C45.6113 98.2219 46.2672 97.7639 46.9496 97.2853C47.6203 96.8185 48.2673 96.3665 48.8642 95.9528L49.003 95.8553L48.9794 96.0238C48.7519 97.566 48.5569 98.9014 48.4121 99.8734C48.3383 100.331 48.2792 100.704 48.2348 100.984C48.1817 101.241 48.1521 101.383 48.1462 101.38Z" fill="black"/>
<path d="M59.2639 102.58C59.258 102.586 59.1546 102.485 58.9744 102.296C58.7794 102.089 58.5194 101.814 58.2003 101.478C57.5326 100.754 56.6197 99.764 55.562 98.6177L55.689 98.5733C55.6299 99.2972 55.5649 100.083 55.497 100.899C55.4261 101.726 55.3581 102.523 55.2931 103.259L55.2783 103.431L55.1661 103.303C54.1379 102.142 53.2486 101.141 52.5986 100.408C52.2973 100.059 52.052 99.7758 51.8659 99.5631C51.6975 99.3651 51.6089 99.2529 51.6148 99.247C51.6207 99.2411 51.7211 99.3415 51.9014 99.5276C52.0934 99.7344 52.3504 100.006 52.6636 100.343C53.3225 101.064 54.2265 102.054 55.2724 103.2L55.1454 103.241C55.2074 102.506 55.2724 101.708 55.3404 100.881C55.4113 100.065 55.4792 99.2795 55.5413 98.5556L55.5561 98.3872L55.6683 98.5142C56.7113 99.6754 57.6094 100.68 58.2683 101.413C58.5755 101.761 58.8237 102.045 59.0098 102.261C59.1812 102.461 59.2698 102.574 59.2639 102.58Z" fill="black"/>
<path d="M64.8597 102.184C64.8656 102.19 64.7947 102.311 64.6588 102.535C64.5081 102.775 64.3072 103.097 64.062 103.49C63.5302 104.317 62.8004 105.451 61.9554 106.763L61.8816 106.651C62.5965 106.527 63.3736 106.394 64.1801 106.255C64.9985 106.116 65.7903 105.983 66.5171 105.859L66.6856 105.83L66.591 105.971C65.7253 107.26 64.9779 108.37 64.4342 109.183C64.1713 109.561 63.9586 109.871 63.799 110.102C63.6483 110.315 63.5656 110.427 63.5568 110.424C63.5508 110.418 63.6218 110.297 63.7577 110.075C63.9083 109.836 64.1092 109.52 64.3574 109.133C64.8922 108.314 65.6219 107.192 66.4699 105.892L66.5437 106.004C65.8169 106.128 65.0281 106.264 64.2097 106.406C63.4031 106.542 62.6261 106.675 61.9081 106.796L61.7397 106.825L61.8343 106.683C62.697 105.384 63.4445 104.261 63.9881 103.442C64.2481 103.058 64.4608 102.748 64.6233 102.512C64.7681 102.293 64.8538 102.178 64.8597 102.184Z" fill="black"/>
<path d="M57.4175 107.909C57.4234 107.915 57.3525 108.036 57.2166 108.261C57.066 108.5 56.8651 108.822 56.6198 109.215C56.088 110.043 55.3583 111.177 54.5133 112.489L54.4394 112.377C55.1544 112.252 55.9314 112.12 56.738 111.981C57.5564 111.842 58.3482 111.709 59.075 111.585L59.2434 111.555L59.1489 111.697C58.2832 112.985 57.5357 114.096 56.9921 114.909C56.7291 115.287 56.5164 115.597 56.3569 115.827C56.2062 116.04 56.1235 116.152 56.1146 116.149C56.1087 116.144 56.1796 116.022 56.3155 115.801C56.4662 115.562 56.6671 115.245 56.9153 114.858C57.45 114.04 58.1798 112.917 59.0277 111.617L59.1016 111.73C58.3748 111.854 57.5859 111.99 56.7676 112.131C55.961 112.267 55.184 112.4 54.466 112.521L54.2976 112.551L54.3922 112.409C55.2549 111.109 56.0023 109.986 56.546 109.168C56.806 108.784 57.0187 108.474 57.1812 108.237C57.326 108.019 57.4116 107.903 57.4175 107.909Z" fill="black"/>
<path d="M73.4986 102.101C73.5045 102.107 73.4336 102.228 73.2977 102.453C73.147 102.692 72.9461 103.014 72.7009 103.407C72.1691 104.234 71.4393 105.369 70.5943 106.681L70.5205 106.568C71.2355 106.444 72.0125 106.311 72.8191 106.172C73.6375 106.034 74.4293 105.901 75.1561 105.777L75.3245 105.747L75.2299 105.889C74.3643 107.177 73.6168 108.288 73.0731 109.1C72.8102 109.478 72.5975 109.789 72.4379 110.019C72.2873 110.232 72.2045 110.344 72.1957 110.341C72.1898 110.335 72.2607 110.214 72.3966 109.993C72.5472 109.753 72.7482 109.437 72.9963 109.05C73.5311 108.232 74.2609 107.109 75.1088 105.809L75.1826 105.921C74.4558 106.045 73.667 106.181 72.8486 106.323C72.042 106.459 71.265 106.592 70.5471 106.713L70.3787 106.743L70.4732 106.601C71.3359 105.301 72.0834 104.178 72.627 103.36C72.887 102.976 73.0997 102.665 73.2622 102.429C73.407 102.213 73.4897 102.098 73.4986 102.101Z" fill="black"/>
<path d="M35.8438 97.3738C35.8497 97.3797 35.7788 97.5008 35.6429 97.7253C35.4922 97.9646 35.2913 98.2867 35.0461 98.6796C34.5143 99.5069 33.7845 100.641 32.9396 101.953L32.8657 101.841C33.5807 101.717 34.3577 101.584 35.1643 101.445C35.9827 101.306 36.7745 101.173 37.5013 101.049L37.6697 101.02L37.5751 101.161C36.7095 102.45 35.962 103.56 35.4184 104.373C35.1554 104.751 34.9427 105.061 34.7832 105.292C34.6325 105.504 34.5497 105.617 34.5409 105.614C34.535 105.608 34.6059 105.487 34.7418 105.265C34.8925 105.026 35.0934 104.71 35.3415 104.323C35.8763 103.504 36.6061 102.382 37.454 101.082L37.5279 101.194C36.8011 101.318 36.0122 101.454 35.1938 101.596C34.3873 101.732 33.6102 101.865 32.8923 101.986L32.7239 102.015L32.8184 101.873C33.6811 100.573 34.4286 99.4508 34.9722 98.6324C35.2322 98.2483 35.445 97.9381 35.6075 97.7017C35.7522 97.4831 35.8349 97.3678 35.8438 97.3738Z" fill="black"/>
<path d="M24.1617 119.465C24.1676 119.459 24.2651 119.565 24.4335 119.766C24.6137 119.984 24.856 120.274 25.1544 120.632C25.7748 121.394 26.6257 122.44 27.6096 123.651L27.4796 123.686C27.5859 122.969 27.6982 122.189 27.8164 121.376C27.9405 120.555 28.0586 119.763 28.165 119.033L28.1916 118.865L28.295 118.998C29.2493 120.221 30.0736 121.276 30.6763 122.047C30.957 122.413 31.1815 122.711 31.3529 122.936C31.5095 123.146 31.5892 123.261 31.5833 123.267C31.5774 123.273 31.4829 123.166 31.3145 122.969C31.1343 122.75 30.8979 122.46 30.6024 122.106C29.9909 121.344 29.1518 120.301 28.1798 119.092L28.3098 119.057C28.2034 119.787 28.0882 120.578 27.967 121.4C27.8459 122.209 27.7307 122.989 27.6214 123.707L27.5977 123.876L27.4943 123.743C26.5282 122.519 25.6921 121.462 25.0805 120.688C24.7969 120.321 24.5664 120.02 24.3921 119.795C24.2385 119.586 24.1558 119.47 24.1617 119.465Z" fill="black"/>
<path d="M50.8408 105.162C50.8408 105.171 50.699 105.188 50.439 105.212C50.1554 105.236 49.7802 105.268 49.3163 105.31C48.3354 105.383 46.9911 105.484 45.4341 105.599L45.4785 105.472C46.0073 105.968 46.5834 106.509 47.1802 107.067C47.7859 107.638 48.3679 108.187 48.9027 108.692L49.0268 108.811L48.8584 108.819C47.3102 108.905 45.9719 108.979 44.9969 109.032C44.536 109.053 44.1608 109.068 43.8801 109.079C43.6201 109.088 43.4783 109.088 43.4783 109.079C43.4783 109.071 43.6171 109.053 43.8771 109.029C44.1578 109.006 44.533 108.976 44.991 108.938C45.9659 108.87 47.3014 108.778 48.8495 108.672L48.8052 108.799C48.2675 108.294 47.6825 107.747 47.0768 107.18C46.483 106.618 45.9069 106.078 45.381 105.578L45.2569 105.463L45.4253 105.454C46.9823 105.36 48.3295 105.28 49.3104 105.221C49.7743 105.197 50.1524 105.18 50.4361 105.168C50.6961 105.153 50.8379 105.153 50.8408 105.162Z" fill="black"/>
<path d="M44.2938 120.053C44.2997 120.047 44.3972 120.15 44.5715 120.348C44.7576 120.564 45.0058 120.847 45.3101 121.199C45.9453 121.949 46.8169 122.98 47.8244 124.171L47.6944 124.21C47.7859 123.489 47.8834 122.706 47.9869 121.893C48.0932 121.069 48.1966 120.274 48.2912 119.544L48.3119 119.376L48.4182 119.509C49.3961 120.714 50.2411 121.751 50.8586 122.511C51.1452 122.871 51.3786 123.167 51.5529 123.385C51.7125 123.592 51.7952 123.704 51.7893 123.71C51.7834 123.716 51.6859 123.613 51.5145 123.418C51.3313 123.205 51.0861 122.918 50.7877 122.57C50.1614 121.819 49.3016 120.794 48.3059 119.603L48.4359 119.565C48.3443 120.298 48.2439 121.09 48.1405 121.914C48.0341 122.726 47.9337 123.506 47.8421 124.227L47.8214 124.396L47.715 124.266C46.7253 123.06 45.8685 122.02 45.2421 121.258C44.9526 120.895 44.7162 120.602 44.539 120.381C44.3706 120.171 44.2878 120.058 44.2938 120.053Z" fill="black"/>
<path d="M32.5938 109.13C32.5938 109.139 32.452 109.156 32.192 109.183C31.9083 109.206 31.5331 109.239 31.0693 109.28C30.0884 109.354 28.7441 109.455 27.1871 109.57L27.2314 109.443C27.7602 109.939 28.3364 110.48 28.9332 111.038C29.5388 111.608 30.1209 112.158 30.6556 112.663L30.7797 112.781L30.6113 112.79C29.0632 112.876 27.7248 112.95 26.7498 113.003C26.2889 113.024 25.9137 113.038 25.633 113.05C25.373 113.059 25.2312 113.059 25.2312 113.05C25.2312 113.041 25.3701 113.024 25.6301 113C25.9107 112.976 26.2859 112.947 26.7439 112.908C27.7189 112.841 29.0543 112.749 30.6025 112.643L30.5581 112.77C30.0204 112.264 29.4354 111.718 28.8298 111.151C28.2359 110.589 27.6598 110.049 27.1339 109.549L27.0098 109.434L27.1782 109.425C28.7352 109.331 30.0825 109.251 31.0633 109.192C31.5272 109.168 31.9054 109.15 32.189 109.139C32.449 109.124 32.5908 109.124 32.5938 109.13Z" fill="black"/>
<path d="M42.645 119.715C42.645 119.724 42.5032 119.742 42.2432 119.769C41.9596 119.792 41.5844 119.825 41.1205 119.866C40.1396 119.94 38.7954 120.04 37.2383 120.156L37.2827 120.029C37.8115 120.525 38.3876 121.066 38.9844 121.624C39.5901 122.194 40.1721 122.744 40.7069 123.249L40.831 123.367L40.6626 123.376C39.1144 123.462 37.7761 123.536 36.8011 123.589C36.3402 123.609 35.965 123.624 35.6843 123.636C35.4243 123.645 35.2825 123.645 35.2825 123.636C35.2825 123.627 35.4213 123.609 35.6813 123.586C35.962 123.562 36.3372 123.533 36.7952 123.494C37.7701 123.426 39.1056 123.335 40.6537 123.228L40.6094 123.355C40.0717 122.85 39.4867 122.304 38.881 121.736C38.2872 121.175 37.7111 120.634 37.1852 120.135L37.0611 120.02L37.2295 120.011C38.7865 119.916 40.1337 119.837 41.1146 119.777C41.5785 119.754 41.9566 119.736 42.2403 119.724C42.5032 119.71 42.645 119.707 42.645 119.715Z" fill="black"/>
<path d="M65.3384 92.7853C65.3384 92.7942 65.1966 92.8119 64.9366 92.8356C64.653 92.8592 64.2777 92.8917 63.8139 92.9331C62.833 93.0069 61.4887 93.1074 59.9317 93.2226L59.976 93.0956C60.5049 93.5919 61.081 94.1326 61.6778 94.691C62.2835 95.2612 62.8655 95.8107 63.4003 96.316L63.5243 96.4341L63.3559 96.443C61.8078 96.5287 60.4694 96.6025 59.4944 96.6557C59.0335 96.6764 58.6583 96.6912 58.3776 96.703C58.1176 96.7119 57.9758 96.7119 57.9758 96.703C57.9758 96.6941 58.1147 96.6764 58.3747 96.6528C58.6554 96.6291 59.0306 96.5996 59.4885 96.5612C60.4635 96.4932 61.7989 96.4016 63.3471 96.2953L63.3028 96.4223C62.765 95.9171 62.1801 95.3705 61.5744 94.8033C60.9805 94.2419 60.4044 93.7012 59.8785 93.2019L59.7544 93.0867L59.9228 93.0778C61.4798 92.9833 62.8271 92.9035 63.808 92.8444C64.2718 92.8208 64.65 92.8031 64.9336 92.7913C65.1966 92.7765 65.3384 92.7765 65.3384 92.7853Z" fill="black"/>
<path d="M54.3006 119.716C54.3006 119.716 59.273 118.283 60.9157 117.863C61.5568 117.701 64.3015 119.148 66.1983 120.351C66.1983 120.351 68.81 121.899 68.5973 122.378C68.3639 122.903 67.4008 122.794 65.8674 122.073C65.8674 122.073 66.4021 123.63 65.3503 123.595C65.3503 123.595 65.8733 125.276 64.8865 125.45C63.8997 125.625 63.6692 123.48 62.7977 123.361C61.9291 123.246 60.1298 123.128 60.1298 123.128C60.1298 123.128 58.6318 125.607 57.4737 125.781C56.3126 125.955 53.627 125.642 53.627 125.642L54.3006 119.716Z" fill="#FFBE9D"/>
<path d="M62.783 120.058C62.8066 120.023 63.4271 120.374 64.1716 120.844C64.9161 121.314 65.5011 121.722 65.4775 121.76C65.4539 121.795 64.8334 121.444 64.0889 120.974C63.3473 120.504 62.7623 120.097 62.783 120.058Z" fill="#EB996E"/>
<path d="M62.4903 121.016C62.508 120.977 63.2467 121.278 64.1389 121.692C65.0312 122.103 65.7402 122.469 65.7225 122.508C65.7048 122.546 64.9662 122.245 64.0739 121.831C63.1817 121.42 62.4726 121.054 62.4903 121.016Z" fill="#EB996E"/>
<path d="M63.0223 123.332C63.0282 123.29 63.5304 123.323 64.145 123.409C64.7595 123.491 65.2529 123.595 65.247 123.636C65.2411 123.677 64.7388 123.645 64.1243 123.559C63.5098 123.477 63.0164 123.376 63.0223 123.332Z" fill="#EB996E"/>
<path d="M47.8332 68.4404C47.9484 68.8215 47.8184 69.2647 47.5141 69.5188C47.2098 69.7758 46.7489 69.826 46.3944 69.6488C45.7208 69.3061 45.6351 68.3783 45.768 67.6338C45.901 66.8893 46.1521 66.0975 45.8419 65.4091C45.6026 64.8832 45.0856 64.5493 44.6837 64.1357C43.9806 63.4148 43.6083 62.363 43.7797 61.3703C43.951 60.3776 44.6956 59.4854 45.6646 59.2165C46.6544 58.9388 47.8746 59.2431 48.6102 58.5281C49.145 58.0081 49.1775 57.1572 49.5911 56.5397C50.2323 55.5766 51.5884 55.4259 52.7347 55.5825C53.881 55.7391 55.0451 56.1054 56.1678 55.8277C57.1044 55.5943 57.8755 54.9414 58.753 54.5396C60.6557 53.668 63.0902 54.1407 64.529 55.6593C65.9708 57.1779 66.3106 59.6331 65.3415 61.4885C64.9929 62.1562 64.467 62.7589 63.7727 63.0426" fill="#263238"/>
<path d="M53.5353 92.8442C56.7084 92.8412 59.267 90.2442 59.2256 87.0711L59.1518 81.6408C59.1518 81.6408 63.7135 81.1828 64.0178 76.6625C64.3192 72.1421 64.1005 61.7128 64.1005 61.7128C58.9863 59.1778 52.9001 59.6062 48.1936 62.8385L47.4963 63.3171L47.8361 87.2307C47.8775 90.3447 50.4183 92.8471 53.5353 92.8442Z" fill="#FFBE9D"/>
<path d="M62.898 69.8971C62.0944 69.7375 62.1003 68.7005 62.9069 68.5528C62.9423 68.5469 62.9807 68.5469 63.0162 68.5528C63.8198 68.7123 63.8139 69.7493 63.0073 69.8971C62.9748 69.9059 62.9334 69.9059 62.898 69.8971Z" fill="#263238"/>
<path d="M63.7874 68.4551C63.7135 68.529 63.2881 68.1626 62.6647 68.1271C62.0413 68.0799 61.5715 68.3871 61.5065 68.3044C61.474 68.266 61.5538 68.1301 61.7577 67.9912C61.9586 67.8524 62.2983 67.7283 62.6883 67.7519C63.0754 67.7785 63.3974 67.9469 63.5776 68.1124C63.7638 68.2749 63.8228 68.4226 63.7874 68.4551Z" fill="#263238"/>
<path d="M56.5783 68.6055C56.8767 68.8124 56.9506 69.223 56.7438 69.5214C56.537 69.8198 56.1263 69.8937 55.8279 69.6869C55.5295 69.4801 55.4556 69.0694 55.6624 68.771C55.8692 68.4726 56.2799 68.3987 56.5783 68.6055Z" fill="#263238"/>
<path d="M56.9891 68.6353C56.9152 68.7091 56.4897 68.3428 55.8663 68.3073C55.243 68.2601 54.7732 68.5673 54.7082 68.4846C54.6757 68.4462 54.7555 68.3103 54.9593 68.1714C55.1602 68.0326 55.5 67.9085 55.89 67.9321C56.277 67.9587 56.5991 68.1271 56.7793 68.2926C56.9654 68.4551 57.0245 68.6028 56.9891 68.6353Z" fill="#263238"/>
<path d="M59.2079 73.9118C59.2049 73.8616 59.5949 73.8055 60.2272 73.7523C60.3926 73.7434 60.5196 73.7139 60.5374 73.6252C60.5728 73.5277 60.5196 73.3505 60.4458 73.1525C60.3069 72.733 60.1681 72.3046 60.0233 71.8584C59.4413 70.0178 59.0454 68.5022 59.1369 68.4726C59.2315 68.4431 59.7781 69.9114 60.3601 71.7521C60.496 72.2012 60.629 72.6296 60.756 73.0521C60.8062 73.2441 60.9067 73.4686 60.8092 73.7345C60.756 73.8675 60.6231 73.9561 60.5137 73.9798C60.4044 74.0064 60.3128 74.0004 60.2331 74.0004C59.6008 73.9916 59.2079 73.9591 59.2079 73.9118Z" fill="#263238"/>
<path d="M57.1456 74.4878C57.9433 74.8571 58.8947 75.318 60.1533 75.5425C60.1533 75.5425 59.3615 76.6652 58.0851 76.1157C56.7556 75.5485 57.1456 74.4878 57.1456 74.4878Z" fill="white"/>
<path d="M59.1605 81.5729C59.1605 81.5729 56.2888 81.6497 53.355 79.5757C53.355 79.5757 54.5722 82.9083 59.1074 82.7458L59.1605 81.5729Z" fill="#EB996E"/>
<path d="M64.1301 62.8537C64.1301 62.8537 61.4002 64.2423 57.778 62.5198C55.4026 61.3912 52.646 60.8712 52.0522 61.3557C51.4554 61.8403 51.3756 64.2689 49.0593 65.0223C49.0593 65.0223 49.3104 69.646 47.4609 69.516C45.6114 69.386 46.6278 62.1978 46.6278 62.1978L51.0979 59.9051L56.0053 58.8799L60.6586 59.4442L64.269 60.3571L64.1301 62.8537Z" fill="#263238"/>
<path d="M47.7948 68.0296C47.7209 67.9912 44.7369 66.9424 44.666 70.0386C44.5951 73.1379 47.7209 72.5677 47.7298 72.4791C47.7386 72.3904 47.7948 68.0296 47.7948 68.0296Z" fill="#FFBE9D"/>
<path d="M46.8109 71.2853C46.7962 71.2764 46.7548 71.3207 46.6632 71.3621C46.5746 71.4005 46.421 71.4241 46.2585 71.3621C45.9335 71.235 45.6705 70.7092 45.6676 70.1508C45.6646 69.8671 45.7296 69.6012 45.836 69.3826C45.9364 69.158 46.0871 69.0044 46.2525 68.9778C46.418 68.9424 46.5332 69.0458 46.5687 69.1344C46.6071 69.223 46.5864 69.2821 46.6041 69.288C46.613 69.2969 46.6721 69.2378 46.6484 69.1078C46.6366 69.0458 46.6012 68.9719 46.5303 68.9099C46.4564 68.8478 46.35 68.8153 46.2348 68.8242C45.9955 68.836 45.7769 69.0517 45.6616 69.291C45.5346 69.5333 45.4548 69.8346 45.4548 70.1508C45.4607 70.7742 45.768 71.368 46.2112 71.5069C46.4269 71.5689 46.61 71.5069 46.7075 71.436C46.8021 71.3591 46.8198 71.2912 46.8109 71.2853Z" fill="#EB996E"/>
<path d="M46.217 58.3303C46.1993 58.2949 46.7075 58.1501 47.2924 58.3687C47.8774 58.5844 48.167 59.0276 48.1315 59.0423C48.099 59.0748 47.7799 58.7085 47.2393 58.5135C46.7045 58.3096 46.2229 58.3776 46.217 58.3303Z" fill="#263238"/>
<path d="M48.0814 56.4746C48.1346 56.4776 48.0519 57.1276 48.1582 57.9017C48.2646 58.6846 48.6309 59.2282 48.5896 59.2519C48.5748 59.2637 48.4625 59.1425 48.3296 58.9091C48.1996 58.6787 48.0607 58.3271 48.0046 57.9253C47.8953 57.1158 48.0519 56.4687 48.0814 56.4746Z" fill="#263238"/>
<path d="M60.8124 66.9661C60.7946 66.9306 60.9276 66.8243 61.1787 66.7209C61.4299 66.6175 61.8021 66.5318 62.2187 66.5347C62.6353 66.5407 63.0046 66.6352 63.2528 66.7416C63.5009 66.8479 63.6339 66.9572 63.6162 66.9956C63.5778 67.0784 62.981 66.845 62.2157 66.842C61.4505 66.8272 60.8478 67.0488 60.8124 66.9661Z" fill="#263238"/>
<path d="M53.9046 66.3162C53.8869 66.2807 54.0199 66.1744 54.271 66.071C54.5221 65.9676 54.8944 65.8819 55.311 65.8848C55.7276 65.8907 56.0969 65.9853 56.3451 66.0917C56.5932 66.198 56.7262 66.3073 56.7085 66.3457C56.67 66.4285 56.0732 66.1951 55.308 66.1921C54.5428 66.1773 53.9401 66.3989 53.9046 66.3162Z" fill="#263238"/>
<path d="M60.2776 67.4537C60.2805 67.4567 60.2864 67.5217 60.2894 67.6369C60.2923 67.7669 60.2982 67.9324 60.3041 68.1362C60.3101 68.3549 60.313 68.6149 60.3189 68.9133C60.3189 69.2117 60.3366 69.5603 60.4666 69.9178C60.5907 70.2723 60.8035 70.6387 61.1196 70.9489C61.4387 71.2532 61.8552 71.5073 62.3398 71.6196C62.5821 71.6757 62.8361 71.7052 63.0961 71.6846C63.3561 71.6727 63.6191 71.6196 63.8702 71.5221C64.3754 71.3359 64.8334 70.9725 65.1436 70.491C65.439 70.033 65.572 69.4982 65.5602 68.9783C65.5602 68.4494 65.5631 67.9383 65.5631 67.4508L65.634 67.5217C64.0859 67.5069 62.7623 67.4951 61.7991 67.4862C61.3382 67.4774 60.9659 67.4715 60.6853 67.4656C60.5671 67.4626 60.4666 67.4597 60.3839 67.4567C60.3189 67.4597 60.2805 67.4567 60.2776 67.4537C60.2716 67.4478 60.4046 67.4419 60.6587 67.436C60.9334 67.4301 61.2998 67.4242 61.7548 67.4153C62.7268 67.4065 64.0682 67.3947 65.637 67.3799H65.7079V67.4508C65.7079 67.9383 65.7108 68.4494 65.7108 68.9783C65.7286 69.516 65.5868 70.0921 65.2736 70.5737C64.9456 71.0818 64.4581 71.4689 63.9234 71.6609C63.6575 71.7643 63.3798 71.8175 63.105 71.8293C62.8302 71.8471 62.5614 71.8175 62.3073 71.7555C61.7962 71.6343 61.3589 71.3625 61.031 71.0375C60.703 70.7066 60.4873 70.3225 60.3632 69.9473C60.2362 69.5721 60.2244 69.2117 60.2332 68.9014C60.2391 68.5971 60.2451 68.3312 60.248 68.1067C60.2539 67.9058 60.2598 67.7433 60.2628 67.6133C60.2716 67.5069 60.2746 67.4508 60.2776 67.4537Z" fill="#263238"/>
<path d="M53.0361 67.2999C53.0391 67.3029 53.045 67.3679 53.0479 67.4831C53.0509 67.6131 53.0568 67.7786 53.0627 67.9824C53.0686 68.2011 53.0716 68.461 53.0775 68.7595C53.0775 69.0579 53.0952 69.4065 53.2252 69.764C53.3493 70.1185 53.562 70.4849 53.8781 70.7951C54.1972 71.0994 54.6138 71.3535 55.0983 71.4658C55.3406 71.5219 55.5947 71.5514 55.8547 71.5308C56.1147 71.5189 56.3776 71.4658 56.6287 71.3683C57.134 71.1821 57.5919 70.8187 57.9021 70.3371C58.1976 69.8792 58.3305 69.3444 58.3187 68.8245C58.3187 68.2956 58.3217 67.7845 58.3217 67.297L58.3926 67.3679C56.8444 67.3531 55.5208 67.3413 54.5577 67.3324C54.0968 67.3236 53.7245 67.3177 53.4438 67.3118C53.3256 67.3088 53.2252 67.3058 53.1425 67.3029C53.0745 67.3058 53.0391 67.3029 53.0361 67.2999C53.0302 67.294 53.1631 67.2881 53.4172 67.2822C53.692 67.2763 54.0583 67.2704 54.5133 67.2615C55.4854 67.2527 56.8267 67.2408 58.3955 67.2261H58.4664V67.297C58.4664 67.7845 58.4694 68.2956 58.4694 68.8245C58.4871 69.3622 58.3453 69.9383 58.0321 70.4199C57.7042 70.928 57.2167 71.3151 56.6819 71.5071C56.416 71.6105 56.1383 71.6637 55.8635 71.6755C55.5888 71.6933 55.3199 71.6637 55.0658 71.6017C54.5547 71.4805 54.1174 71.2087 53.7895 70.8837C53.4615 70.5528 53.2459 70.1687 53.1218 69.7935C52.9947 69.4183 52.9829 69.0579 52.9918 68.7476C52.9977 68.4433 53.0036 68.1774 53.0066 67.9529C53.0125 67.752 53.0184 67.5895 53.0213 67.4595C53.0272 67.3531 53.0302 67.297 53.0361 67.2999Z" fill="#263238"/>
<path d="M60.3426 67.6691C60.3426 67.7105 59.8846 67.7459 59.3233 67.7459C58.7589 67.7459 58.304 67.7105 58.304 67.6691C58.304 67.6277 58.7619 67.5923 59.3233 67.5923C59.8876 67.5923 60.3426 67.6277 60.3426 67.6691Z" fill="#263238"/>
<path d="M47.3872 67.7104C47.3872 67.669 48.6517 67.6306 50.2117 67.6247C51.7717 67.6188 53.0362 67.6513 53.0362 67.6927C53.0362 67.734 51.7717 67.7724 50.2117 67.7784C48.6517 67.7813 47.3872 67.7518 47.3872 67.7104Z" fill="#263238"/>
<path d="M104.151 71.3805L95.356 68.2222L86.6462 71.3391C85.5353 71.865 84.5603 72.1782 84.5603 73.2152V78.3738C84.5603 81.9546 85.4998 85.5059 87.4291 88.6376C89.0541 91.273 91.5683 93.9882 95.4417 95.7136C99.0018 94.5584 101.658 91.4739 103.283 88.8385C105.212 85.7038 106.152 82.1555 106.152 78.5747V73.9361C106.155 72.4559 105.372 71.735 104.151 71.3805Z" fill="#92E3A9" stroke="#263238" stroke-miterlimit="10" stroke-linecap="round" stroke-linejoin="round"/>
<path d="M95.4417 92.7178C92.3779 91.3528 90.3865 89.1576 89.1013 87.0718C87.5739 84.593 86.8323 81.7862 86.8323 78.9499V75.3336C86.8323 74.5152 87.3257 73.747 88.3095 73.2891L95.3589 70.6537L95.356 68.2222L86.6462 71.3391C85.7332 71.738 84.5603 72.1782 84.5603 73.2152V78.3738C84.5603 81.9546 85.4998 85.5059 87.4291 88.6376C89.0541 91.273 91.5683 93.9882 95.4417 95.7136V92.7178Z" fill="#92E3A9" stroke="#263238" stroke-miterlimit="10" stroke-linecap="round" stroke-linejoin="round"/>
<path d="M95.4416 95.7107C96.0591 95.5039 96.6264 95.2675 97.17 94.9691C98.6295 94.1744 99.8763 93.0812 100.828 92.0915C101.891 90.9865 102.683 89.7899 103.371 88.6731C105.301 85.5384 106.24 81.9901 106.155 78.3118L106.16 74.0543C106.155 71.933 105.067 71.7764 104.154 71.3776L95.3589 68.2192L95.3618 70.6508L102.494 73.3305C103.475 73.7884 103.971 74.5566 103.971 75.375V78.9913C103.971 81.8246 103.23 84.6314 101.702 87.1132C100.417 89.199 98.5113 91.3499 95.4475 92.7149V95.7107H95.4416Z" fill="#799093" stroke="#263238" stroke-width="0.75" stroke-miterlimit="10"/>
<path opacity="0.5" d="M97.6901 78.7223L97.6989 78.025C97.6989 76.7664 96.6737 75.7412 95.4151 75.7412C94.1565 75.7412 93.1313 76.7664 93.1313 78.0221L93.1224 78.7312C92.5049 78.8227 92.0322 79.3516 92.0322 79.9927V84.0994C92.0322 84.8056 92.6054 85.3787 93.3086 85.3787H97.5719C98.278 85.3787 98.8512 84.8056 98.8512 84.0994V79.9927C98.8512 79.325 98.34 78.7814 97.6901 78.7223ZM96.0267 83.0772H94.9128L95.0872 82.2736C94.8951 82.1524 94.7651 81.9397 94.7651 81.6974C94.7651 81.3222 95.0694 81.0179 95.4447 81.0179C95.8199 81.0179 96.1242 81.3222 96.1242 81.6974C96.1242 81.9338 96.006 82.1406 95.8228 82.2618C95.8996 82.572 96.0267 83.0772 96.0267 83.0772ZM97.1996 78.7164H93.6158L93.6247 78.025C93.6247 77.0382 94.4283 76.2346 95.4151 76.2346C96.4019 76.2346 97.2055 77.0382 97.2055 78.0221L97.1996 78.7164Z" fill="white"/>
<path d="M88.2594 78.6723C88.2387 78.6753 88.1796 78.4034 88.1264 77.9573C88.0732 77.5112 88.0348 76.8907 88.0555 76.2053C88.0644 75.8626 88.088 75.5376 88.1175 75.2421C88.1471 74.9467 88.2003 74.6719 88.3155 74.4651C88.4278 74.2583 88.5843 74.1342 88.6996 74.0781C88.8178 74.0219 88.8946 74.0249 88.8946 74.0338C88.9093 74.0544 88.5962 74.1135 88.413 74.5153C88.3214 74.7074 88.28 74.9644 88.2594 75.2569C88.2357 75.5494 88.218 75.8715 88.2091 76.2112C88.1884 76.8908 88.2091 77.5053 88.2357 77.9484C88.2594 78.3916 88.28 78.6693 88.2594 78.6723Z" fill="white"/>
<path d="M88.3865 80.9147C88.3451 80.9147 88.3067 80.7049 88.3008 80.442C88.2949 80.179 88.3244 79.9663 88.3688 79.9663C88.4101 79.9663 88.4485 80.1761 88.4544 80.439C88.4603 80.702 88.4308 80.9147 88.3865 80.9147Z" fill="white"/>
<path d="M79.1091 102.184L69.3003 126.437H51.6177V127.53H104.287L115.062 102.184H79.1091Z" fill="#263238"/>
<path d="M94.0971 116.501C93.7426 117.721 92.7056 118.492 91.7867 118.226C90.8649 117.957 90.407 116.752 90.7615 115.532C91.1161 114.312 92.1501 113.54 93.0719 113.806C93.9937 114.075 94.4546 115.281 94.0971 116.501Z" fill="#FAFAFA"/>
</g>
<defs>
<clipPath id="clip0_3_363">
<rect width="142.108" height="128" fill="white"/>
</clipPath>
</defs>
</svg>
