<svg width="143" height="128" viewBox="0 0 143 128" fill="none" xmlns="http://www.w3.org/2000/svg">
<g clip-path="url(#clip0_3_2160)">
<path d="M134.623 24.9293C134.156 24.135 133.663 23.3585 133.149 22.5967C126.305 12.4544 114.527 5.51863 102.941 2.38293C97.8683 1.00995 92.6273 0.289503 87.3775 0.112345C52.9438 -1.0569 39.2288 26.0808 27.8493 33.0845C16.4698 40.0882 -1.03935 52.0493 0.129899 77.1438C1.29915 102.238 19.387 125.874 54.4054 127.333C89.4208 128.791 91.7563 113.036 111.306 107.199C124.244 103.337 133.436 90.292 137.939 78.2363C144.071 61.8078 143.782 40.4691 134.623 24.9293Z" fill="#92E3A9"/>
<path opacity="0.7" d="M134.623 24.9293C134.156 24.135 133.663 23.3585 133.149 22.5967C126.305 12.4544 114.527 5.51863 102.941 2.38293C97.8683 1.00995 92.6273 0.289503 87.3775 0.112345C52.9438 -1.0569 39.2288 26.0808 27.8493 33.0845C16.4698 40.0882 -1.03935 52.0493 0.129899 77.1438C1.29915 102.238 19.387 125.874 54.4054 127.333C89.4208 128.791 91.7563 113.036 111.306 107.199C124.244 103.337 133.436 90.292 137.939 78.2363C144.071 61.8078 143.782 40.4691 134.623 24.9293Z" fill="#DDF8F3"/>
<path d="M25.9596 124.288C30.0461 120.946 30.5746 115.324 29.9959 110.355C29.8984 109.525 29.9191 108.642 29.4585 107.946C28.9979 107.249 28.0235 106.827 27.2971 107.24C26.6948 107.582 26.4822 108.324 26.181 108.947C25.7795 109.776 25.1388 110.488 24.3563 110.972C23.8426 111.291 23.193 111.512 22.6379 111.27C21.8791 110.934 21.7108 109.95 21.6487 109.124C21.5336 107.582 21.4155 106.041 21.3003 104.497C21.2383 103.67 21.1704 102.826 20.8456 102.061C20.5208 101.296 19.886 100.617 19.0711 100.461C18.2562 100.307 17.3084 100.842 17.205 101.665C17.1637 102.008 17.2611 102.353 17.267 102.696C17.2729 103.041 17.1401 103.434 16.8182 103.558C16.4905 103.682 16.1362 103.475 15.8675 103.254C14.9344 102.489 14.2583 101.462 13.6235 100.437C12.9886 99.4124 12.3656 98.3613 11.5064 97.5168C10.6472 96.6694 9.50157 96.0376 8.2969 96.07C7.09222 96.1025 5.87278 96.9381 5.66314 98.1251C5.4535 99.315 6.24186 100.443 7.0686 101.323C8.2969 102.631 9.71416 103.762 11.2613 104.665C11.5419 104.828 11.843 105.005 11.97 105.303C12.1973 105.84 11.7131 106.431 11.1757 106.658C10.5675 106.915 9.88542 106.906 9.23879 107.036C8.59216 107.166 7.90715 107.509 7.70932 108.137C7.43472 109.011 8.22308 109.838 8.976 110.361C10.4819 111.406 12.1678 112.191 13.9394 112.673C14.5742 112.844 15.2386 112.986 15.77 113.373C16.3015 113.759 16.6617 114.477 16.4108 115.085C16.1568 115.693 15.401 115.944 14.7484 115.879C14.0929 115.814 13.4876 115.516 12.8528 115.339C11.6659 115.005 10.1866 115.206 9.52815 116.248C9.09706 116.933 9.12659 117.837 9.43662 118.587C9.74369 119.337 10.2958 119.957 10.8746 120.527C12.8942 122.511 15.398 124.037 18.144 124.731C20.8899 125.422 23.3849 125.467 25.9596 124.288Z" fill="#92E3A9" stroke="#263238" stroke-width="0.25" stroke-miterlimit="10"/>
<path d="M26.3169 127.977C25.9715 126.019 25.3426 123.725 24.3889 121.277C23.4411 118.826 22.1744 116.222 20.7542 113.547C20.3969 112.88 20.0455 112.218 19.6971 111.569C19.3487 110.919 19.0032 110.278 18.6253 109.67C17.8753 108.451 17.0604 107.335 16.2543 106.298C15.4483 105.262 14.6422 104.308 13.8834 103.419C13.1216 102.534 12.3982 101.722 11.7043 101.007C10.3225 99.5751 9.0735 98.5534 8.18771 97.8862C7.74481 97.5496 7.39345 97.3015 7.15133 97.1362C7.03322 97.0565 6.94169 96.9945 6.87673 96.9502C6.81473 96.9088 6.7793 96.8911 6.7793 96.8911C6.7793 96.8911 6.80882 96.9177 6.86788 96.962C6.93283 97.0092 7.02141 97.0742 7.13657 97.1598C7.37278 97.3311 7.71824 97.5879 8.15818 97.9275C9.03512 98.6066 10.2723 99.6341 11.6423 101.069C12.3303 101.784 13.0478 102.599 13.8036 103.487C14.5595 104.376 15.3597 105.333 16.1598 106.369C16.963 107.405 17.772 108.519 18.519 109.735C18.894 110.34 19.2365 110.978 19.5849 111.631C19.9333 112.28 20.2847 112.942 20.642 113.609C22.0592 116.284 23.3259 118.879 24.2796 121.324C25.2363 123.766 25.874 126.048 26.2284 127.997" fill="#E0E0E0"/>
<path d="M26.3169 127.977C25.9715 126.019 25.3426 123.725 24.3889 121.277C23.4411 118.826 22.1744 116.222 20.7542 113.547C20.3969 112.88 20.0455 112.218 19.6971 111.569C19.3487 110.919 19.0032 110.278 18.6253 109.67C17.8753 108.451 17.0604 107.335 16.2543 106.298C15.4483 105.262 14.6422 104.308 13.8834 103.419C13.1216 102.534 12.3982 101.722 11.7043 101.007C10.3225 99.5751 9.0735 98.5534 8.18771 97.8862C7.74481 97.5496 7.39345 97.3015 7.15133 97.1362C7.03322 97.0565 6.94169 96.9945 6.87673 96.9502C6.81473 96.9088 6.7793 96.8911 6.7793 96.8911C6.7793 96.8911 6.80882 96.9177 6.86788 96.962C6.93283 97.0092 7.02141 97.0742 7.13657 97.1598C7.37278 97.3311 7.71824 97.5879 8.15818 97.9275C9.03512 98.6066 10.2723 99.6341 11.6423 101.069C12.3303 101.784 13.0478 102.599 13.8036 103.487C14.5595 104.376 15.3597 105.333 16.1598 106.369C16.963 107.405 17.772 108.519 18.519 109.735C18.894 110.34 19.2365 110.978 19.5849 111.631C19.9333 112.28 20.2847 112.942 20.642 113.609C22.0592 116.284 23.3259 118.879 24.2796 121.324C25.2363 123.766 25.874 126.048 26.2284 127.997" stroke="#263238" stroke-width="0.25" stroke-miterlimit="10"/>
<path d="M18.5928 109.661C18.6016 109.661 18.6164 109.534 18.64 109.301C18.6636 109.067 18.6872 108.731 18.7109 108.314C18.7581 107.482 18.7876 106.327 18.8172 105.058C18.8467 103.785 18.8939 102.637 18.9618 101.807C18.9943 101.391 19.0238 101.057 19.0475 100.824C19.0711 100.59 19.0799 100.463 19.0711 100.46C19.0622 100.46 19.0386 100.587 19.0002 100.818C18.9618 101.048 18.9175 101.385 18.8733 101.798C18.7847 102.628 18.7197 103.782 18.6902 105.055C18.6636 106.316 18.64 107.455 18.6193 108.312C18.6075 108.71 18.5957 109.041 18.5869 109.298C18.5839 109.531 18.5869 109.658 18.5928 109.661Z" fill="#E0E0E0" stroke="#263238" stroke-width="0.25" stroke-miterlimit="10"/>
<path d="M7.65918 108.56C7.65918 108.562 7.69756 108.565 7.77138 108.568C7.85996 108.568 7.96625 108.568 8.09322 108.568C8.37077 108.568 8.77528 108.565 9.27132 108.58C10.2664 108.601 11.6423 108.681 13.1511 108.834C14.6628 108.991 16.024 109.191 17.0043 109.369C17.4944 109.451 17.8901 109.531 18.1647 109.584C18.2887 109.608 18.395 109.628 18.4806 109.643C18.5544 109.655 18.5928 109.661 18.5928 109.655C18.5928 109.652 18.5574 109.637 18.4865 109.617C18.4009 109.593 18.3005 109.566 18.1765 109.534C17.9048 109.466 17.5121 109.372 17.022 109.277C16.0447 109.079 14.6806 108.864 13.1629 108.707C11.6482 108.554 10.2693 108.489 9.27132 108.489C8.77233 108.486 8.36781 108.5 8.09027 108.515C7.9633 108.524 7.85701 108.53 7.76843 108.539C7.69756 108.551 7.65918 108.557 7.65918 108.56Z" fill="#E0E0E0" stroke="#263238" stroke-width="0.25" stroke-miterlimit="10"/>
<path d="M24.2529 121.088C24.2558 121.088 24.2765 121.043 24.3119 120.952C24.3503 120.848 24.4005 120.716 24.4625 120.55C24.5924 120.202 24.7666 119.694 24.9763 119.062C25.3926 117.801 25.9182 116.042 26.4703 114.09C27.0225 112.141 27.5333 110.378 27.9289 109.112C28.1268 108.492 28.2862 107.981 28.4043 107.612C28.4574 107.446 28.4988 107.311 28.5313 107.204C28.5578 107.11 28.5726 107.06 28.5667 107.06C28.5637 107.06 28.5431 107.104 28.5076 107.195C28.4693 107.299 28.4191 107.432 28.3571 107.597C28.2271 107.945 28.0529 108.453 27.8433 109.085C27.424 110.346 26.9014 112.106 26.3493 114.057C25.7971 116.006 25.2863 117.769 24.8907 119.035C24.6928 119.656 24.5334 120.166 24.4153 120.535C24.3621 120.701 24.3208 120.837 24.2883 120.943C24.2617 121.037 24.2499 121.088 24.2529 121.088Z" fill="#E0E0E0" stroke="#263238" stroke-width="0.25" stroke-miterlimit="10"/>
<path d="M9.56665 117.716C9.56665 117.719 9.61685 117.734 9.71428 117.76C9.82648 117.787 9.96821 117.819 10.1424 117.861C10.5292 117.949 11.0636 118.07 11.7162 118.221C13.0449 118.525 14.8755 118.971 16.8951 119.464C18.9177 119.96 20.7513 120.391 22.0859 120.675C22.7532 120.816 23.2935 120.926 23.6685 120.996C23.8456 121.029 23.9903 121.056 24.0996 121.073C24.1999 121.091 24.2501 121.097 24.2531 121.091C24.2531 121.088 24.2029 121.073 24.1055 121.047C23.9962 121.02 23.8545 120.988 23.6773 120.946C23.2905 120.858 22.7561 120.737 22.1036 120.586C20.7749 120.282 18.9442 119.836 16.9246 119.34C14.905 118.844 13.0685 118.413 11.7339 118.132C11.0666 117.991 10.5263 117.881 10.1513 117.811C9.97411 117.778 9.82943 117.754 9.72019 117.734C9.6198 117.716 9.56665 117.71 9.56665 117.716Z" fill="#E0E0E0" stroke="#263238" stroke-width="0.25" stroke-miterlimit="10"/>
<path d="M64.7508 39.9154L43.4036 46.3379L47.7326 60.7268L69.0798 54.3043L64.7508 39.9154Z" fill="white" stroke="black" stroke-width="0.5" stroke-miterlimit="10"/>
<path d="M69.08 54.3019C69.08 54.3019 69.0475 54.2104 68.9944 54.0391C68.9383 53.862 68.8615 53.6081 68.7582 53.2803C68.5515 52.6101 68.2533 51.6357 67.8724 50.3867C67.1136 47.8858 66.0211 44.3013 64.6924 39.9314L64.7692 39.9728C58.8786 41.7502 51.4616 43.9854 43.4275 46.4095H43.4245L43.4747 46.315C45.016 51.4438 46.4805 56.3215 47.7974 60.7062L47.7088 60.659C53.992 58.784 59.3245 57.1926 63.0891 56.0676C64.9729 55.5096 66.464 55.0667 67.4915 54.7625C68.0023 54.612 68.395 54.4968 68.6666 54.4171C68.7966 54.3787 68.8969 54.3521 68.9708 54.3285C69.0446 54.3108 69.08 54.3019 69.08 54.3019C69.08 54.3019 69.0505 54.3137 68.9826 54.3344C68.9117 54.358 68.8143 54.3876 68.6873 54.4259C68.4186 54.5086 68.0318 54.6267 67.5328 54.7832C66.5112 55.0962 65.029 55.5479 63.157 56.1208C59.3865 57.2634 54.0452 58.8844 47.7531 60.7918L47.6852 60.8125L47.6645 60.7446C46.3447 56.3599 44.8743 51.4851 43.33 46.3564L43.3064 46.2826L43.3802 46.2589H43.3832C51.4232 43.8466 58.8403 41.6203 64.7337 39.8517L64.7928 39.834L64.8105 39.893C66.1185 44.2866 67.1903 47.8917 67.9403 50.4044C68.3094 51.6505 68.5958 52.6248 68.7936 53.2921C68.8881 53.6199 68.9619 53.8708 69.0121 54.045C69.0593 54.2193 69.08 54.3019 69.08 54.3019Z" fill="#E0E0E0"/>
<path d="M69.08 54.3019C69.08 54.3019 69.0475 54.2104 68.9944 54.0391C68.9383 53.862 68.8615 53.6081 68.7582 53.2803C68.5515 52.6101 68.2533 51.6357 67.8724 50.3867C67.1136 47.8858 66.0211 44.3013 64.6924 39.9314L64.7692 39.9728C58.8786 41.7502 51.4616 43.9854 43.4275 46.4095H43.4245L43.4747 46.315C45.016 51.4438 46.4805 56.3215 47.7974 60.7062L47.7088 60.659C53.992 58.784 59.3245 57.1926 63.0891 56.0676C64.9729 55.5096 66.464 55.0667 67.4915 54.7625C68.0023 54.612 68.395 54.4968 68.6666 54.4171C68.7966 54.3787 68.8969 54.3521 68.9708 54.3285C69.0446 54.3108 69.08 54.3019 69.08 54.3019ZM69.08 54.3019C69.08 54.3019 69.0505 54.3137 68.9826 54.3344C68.9117 54.358 68.8143 54.3876 68.6873 54.4259C68.4186 54.5086 68.0318 54.6267 67.5328 54.7832C66.5112 55.0962 65.029 55.5479 63.157 56.1208C59.3865 57.2634 54.0452 58.8844 47.7531 60.7918L47.6852 60.8125L47.6645 60.7446C46.3447 56.3599 44.8743 51.4851 43.33 46.3564L43.3064 46.2826L43.3802 46.2589H43.3832C51.4232 43.8466 58.8403 41.6203 64.7337 39.8517L64.7928 39.834L64.8105 39.893C66.1185 44.2866 67.1903 47.8917 67.9403 50.4044C68.3094 51.6505 68.5958 52.6248 68.7936 53.2921C68.8881 53.6199 68.9619 53.8708 69.0121 54.045C69.0593 54.2193 69.08 54.3019 69.08 54.3019Z" stroke="black" stroke-width="0.5" stroke-miterlimit="10"/>
<path d="M64.7514 39.9136C64.7544 39.9136 64.7426 39.9372 64.7219 39.9785C64.6953 40.0287 64.6628 40.0878 64.6215 40.1616C64.5241 40.3329 64.3912 40.5632 64.2229 40.8584C63.8656 41.4726 63.3578 42.3436 62.7348 43.4184C61.4563 45.5856 59.6935 48.5737 57.733 51.9043L57.7005 51.9604L57.6385 51.9367C57.4318 51.857 57.2074 51.7714 56.986 51.6828C53.2361 50.2212 49.8406 48.8955 47.3722 47.933C46.1527 47.4487 45.1636 47.056 44.4638 46.7785C44.1302 46.6426 43.8674 46.5364 43.6755 46.4566C43.5928 46.4212 43.5249 46.3917 43.4717 46.371C43.4274 46.3503 43.4038 46.3385 43.4038 46.3356C43.4038 46.3326 43.4304 46.3385 43.4776 46.3562C43.5337 46.3769 43.6016 46.4005 43.6873 46.4301C43.8821 46.5009 44.1479 46.5984 44.4845 46.7253C45.1872 46.9911 46.1822 47.369 47.4105 47.8326C49.8849 48.7863 53.2863 50.0943 57.0421 51.5411C57.2665 51.6267 57.4879 51.7153 57.6946 51.795L57.6001 51.8275C59.5784 48.5087 61.3559 45.5295 62.6432 43.3682C63.2869 42.3052 63.8066 41.4401 64.1727 40.8318C64.3499 40.5425 64.4916 40.3151 64.5949 40.1498C64.6392 40.0789 64.6776 40.0199 64.7071 39.9756C64.7366 39.9313 64.7485 39.9136 64.7514 39.9136Z" fill="#E0E0E0" stroke="black" stroke-width="0.5" stroke-miterlimit="10"/>
<path d="M126.86 97.3871C126.86 97.3871 125.478 96.0171 122.777 99.4392C120.075 102.861 118.903 104.913 118.903 104.913C118.903 104.913 118.23 105.61 117.787 104.978C117.341 104.346 116.886 102.717 115.9 102.799C114.878 102.882 114.344 103.898 114.214 105.522C114.081 107.143 113.665 110.686 113.623 111.008C113.585 111.321 113.316 111.743 112.944 111.362C112.572 110.981 110.644 107.727 109.156 108.734C107.668 109.741 108.043 114.32 108.075 114.822C108.108 115.324 107.972 115.507 107.724 115.581C107.473 115.655 106.93 114.501 106.342 113.597C105.758 112.694 104.919 111.752 104.107 112.404C103.298 113.057 102.439 116.266 104.482 122.163L105.607 124.832L108.489 125.242C114.71 125.744 117.601 124.111 118.032 123.164C118.46 122.216 117.338 121.64 116.316 121.301C115.295 120.958 114.043 120.722 114.052 120.459C114.06 120.196 114.205 120.022 114.698 119.928C115.191 119.833 119.721 119.051 120.323 117.359C120.925 115.667 117.294 114.613 116.833 114.35C116.369 114.084 116.712 113.721 117.007 113.606C117.308 113.488 120.633 112.195 122.171 111.663C123.71 111.129 124.56 110.358 124.383 109.348C124.215 108.374 122.523 108.341 121.799 108.067C121.076 107.795 121.584 106.968 121.584 106.968C121.584 106.968 123.276 105.318 125.915 101.846C128.555 98.3733 126.834 97.3605 126.834 97.3605" fill="#92E3A9"/>
<path d="M126.86 97.3871C126.86 97.3871 125.478 96.0171 122.777 99.4392C120.075 102.861 118.903 104.913 118.903 104.913C118.903 104.913 118.23 105.61 117.787 104.978C117.341 104.346 116.886 102.717 115.9 102.799C114.878 102.882 114.344 103.898 114.214 105.522C114.081 107.143 113.665 110.686 113.623 111.008C113.585 111.321 113.316 111.743 112.944 111.362C112.572 110.981 110.644 107.727 109.156 108.734C107.668 109.741 108.043 114.32 108.075 114.822C108.108 115.324 107.972 115.507 107.724 115.581C107.473 115.655 106.93 114.501 106.342 113.597C105.758 112.694 104.919 111.752 104.107 112.404C103.298 113.057 102.439 116.266 104.482 122.163L105.607 124.832L108.489 125.242C114.71 125.744 117.601 124.111 118.032 123.164C118.46 122.216 117.338 121.64 116.316 121.301C115.295 120.958 114.043 120.722 114.052 120.459C114.06 120.196 114.205 120.022 114.698 119.928C115.191 119.833 119.721 119.051 120.323 117.359C120.925 115.667 117.294 114.613 116.833 114.35C116.369 114.084 116.712 113.721 117.007 113.606C117.308 113.488 120.633 112.195 122.171 111.663C123.71 111.129 124.56 110.358 124.383 109.348C124.215 108.374 122.523 108.341 121.799 108.067C121.076 107.795 121.584 106.968 121.584 106.968C121.584 106.968 123.276 105.318 125.915 101.846C128.555 98.3733 126.834 97.3605 126.834 97.3605" stroke="#263238" stroke-width="0.25" stroke-miterlimit="10"/>
<path d="M124.436 100.449C124.439 100.452 124.421 100.476 124.389 100.523C124.35 100.576 124.3 100.647 124.238 100.733C124.096 100.925 123.899 101.193 123.648 101.533C123.134 102.227 122.378 103.225 121.439 104.453C119.564 106.91 116.942 110.282 114.028 113.99C111.123 117.702 108.492 121.059 106.581 123.5C105.64 124.714 104.872 125.7 104.334 126.391C104.072 126.725 103.868 126.988 103.72 127.174C103.652 127.256 103.599 127.324 103.558 127.374C103.52 127.419 103.502 127.442 103.499 127.439C103.496 127.436 103.514 127.413 103.546 127.365C103.584 127.312 103.635 127.241 103.697 127.156C103.838 126.964 104.036 126.695 104.287 126.356C104.801 125.662 105.557 124.664 106.493 123.436C108.368 120.979 110.99 117.607 113.904 113.899C116.809 110.19 119.437 106.83 121.348 104.391C122.289 103.177 123.057 102.191 123.595 101.5C123.857 101.167 124.061 100.904 124.209 100.718C124.277 100.635 124.33 100.567 124.371 100.517C124.412 100.47 124.433 100.449 124.436 100.449Z" fill="#E0E0E0" stroke="#263238" stroke-width="0.25" stroke-miterlimit="10"/>
<path d="M116.443 105.105C116.464 105.103 116.508 105.398 116.553 105.879C116.597 106.36 116.635 107.025 116.662 107.757C116.68 108.463 116.697 109.1 116.712 109.635C116.724 110.116 116.733 110.411 116.712 110.414C116.691 110.417 116.644 110.122 116.603 109.641C116.564 109.159 116.532 108.495 116.505 107.763C116.482 107.057 116.458 106.419 116.44 105.885C116.429 105.407 116.423 105.108 116.443 105.105Z" fill="#E0E0E0" stroke="#263238" stroke-width="0.25" stroke-miterlimit="10"/>
<path d="M116.966 110.518C116.963 110.476 118.327 110.326 120.013 110.187C121.702 110.045 123.072 109.966 123.075 110.01C123.078 110.051 121.714 110.202 120.025 110.341C118.339 110.479 116.969 110.559 116.966 110.518Z" fill="#E0E0E0" stroke="#263238" stroke-width="0.25" stroke-miterlimit="10"/>
<path d="M112.064 116.213C112.07 116.192 112.369 116.245 112.85 116.34C113.331 116.431 113.998 116.558 114.737 116.676C115.475 116.795 116.145 116.883 116.632 116.948C117.119 117.01 117.421 117.051 117.418 117.075C117.415 117.096 117.111 117.093 116.62 117.057C116.13 117.022 115.451 116.951 114.71 116.83C113.969 116.712 113.302 116.567 112.826 116.449C112.351 116.325 112.062 116.231 112.064 116.213Z" fill="#E0E0E0" stroke="#263238" stroke-width="0.25" stroke-miterlimit="10"/>
<path d="M110.517 111.421C110.538 111.415 110.644 111.675 110.804 112.1C110.963 112.525 111.17 113.116 111.391 113.774C111.613 114.43 111.805 115.026 111.937 115.463C112.07 115.897 112.141 116.169 112.121 116.178C112.1 116.184 111.994 115.924 111.834 115.499C111.675 115.073 111.468 114.483 111.247 113.824C111.025 113.169 110.833 112.573 110.7 112.136C110.567 111.699 110.497 111.427 110.517 111.421Z" fill="#E0E0E0" stroke="#263238" stroke-width="0.25" stroke-miterlimit="10"/>
<path d="M105.554 115.9C105.575 115.894 105.71 116.228 105.914 116.771C106.118 117.317 106.39 118.073 106.682 118.909C106.974 119.747 107.228 120.509 107.408 121.064C107.585 121.619 107.686 121.965 107.665 121.971C107.644 121.977 107.509 121.643 107.305 121.1C107.101 120.553 106.829 119.797 106.537 118.959C106.245 118.12 105.991 117.359 105.811 116.803C105.634 116.251 105.533 115.906 105.554 115.9Z" fill="#E0E0E0" stroke="#263238" stroke-width="0.25" stroke-miterlimit="10"/>
<path d="M107.656 121.811C107.659 121.791 108.043 121.847 108.657 121.944C109.271 122.039 110.122 122.172 111.064 122.296C112.006 122.42 112.859 122.517 113.479 122.582C114.099 122.65 114.48 122.694 114.48 122.715C114.48 122.736 114.093 122.73 113.47 122.691C112.847 122.653 111.988 122.573 111.043 122.449C110.098 122.325 109.251 122.175 108.64 122.051C108.025 121.927 107.653 121.832 107.656 121.811Z" fill="#E0E0E0" stroke="#263238" stroke-width="0.25" stroke-miterlimit="10"/>
<path d="M113.832 68.3529L113.133 91.251L129.866 91.7616L130.565 68.8635L113.832 68.3529Z" fill="#F5F5F5" stroke="black" stroke-width="0.5" stroke-miterlimit="10"/>
<path d="M110.749 71.3949L110.05 94.293L126.783 94.8036L127.482 71.9055L110.749 71.3949Z" fill="white" stroke="black" stroke-width="0.5" stroke-miterlimit="10"/>
<path d="M126.787 94.8032C126.787 94.8032 126.784 94.7648 126.787 94.691C126.787 94.6142 126.79 94.5079 126.792 94.3662C126.798 94.0769 126.81 93.6576 126.822 93.1143C126.852 92.0189 126.893 90.4274 126.946 88.4107C127.061 84.3804 127.224 78.6641 127.415 71.9025L127.483 71.9734C122.443 71.8228 116.753 71.6515 110.751 71.4685H110.748L110.828 71.3947C110.562 79.9485 110.314 87.8645 110.113 94.2924L110.051 94.2274C115.112 94.3957 119.287 94.5345 122.201 94.632C123.657 94.6822 124.799 94.7235 125.582 94.7501C125.969 94.7648 126.267 94.7766 126.474 94.7855C126.68 94.7944 126.787 94.8032 126.787 94.8032C126.787 94.8032 126.689 94.8062 126.491 94.8003C126.288 94.7944 125.995 94.7884 125.611 94.7796C124.832 94.7589 123.695 94.7294 122.245 94.694C119.322 94.6113 115.133 94.4961 110.054 94.3544L109.992 94.3515L109.995 94.2895C110.187 87.8615 110.423 79.9455 110.68 71.3917L110.683 71.3149L110.76 71.3179H110.763C116.765 71.5039 122.455 71.6811 127.492 71.8346L127.563 71.8376L127.56 71.9084C127.339 78.6906 127.153 84.4217 127.02 88.4609C126.952 90.4687 126.896 92.0573 126.857 93.1468C126.837 93.6842 126.822 94.0975 126.81 94.3839C126.804 94.5198 126.798 94.6231 126.795 94.6999C126.79 94.7678 126.787 94.8032 126.787 94.8032Z" fill="#E0E0E0"/>
<path d="M126.787 94.8032C126.787 94.8032 126.784 94.7648 126.787 94.691C126.787 94.6142 126.79 94.5079 126.792 94.3662C126.798 94.0769 126.81 93.6576 126.822 93.1143C126.852 92.0189 126.893 90.4274 126.946 88.4107C127.061 84.3804 127.224 78.6641 127.415 71.9025L127.483 71.9734C122.443 71.8228 116.753 71.6515 110.751 71.4685H110.748L110.828 71.3947C110.562 79.9485 110.314 87.8645 110.113 94.2924L110.051 94.2274C115.112 94.3957 119.287 94.5345 122.201 94.632C123.657 94.6822 124.799 94.7235 125.582 94.7501C125.969 94.7648 126.267 94.7766 126.474 94.7855C126.68 94.7944 126.787 94.8032 126.787 94.8032ZM126.787 94.8032C126.787 94.8032 126.689 94.8062 126.491 94.8003C126.288 94.7944 125.995 94.7884 125.611 94.7796C124.832 94.7589 123.695 94.7294 122.245 94.694C119.322 94.6113 115.133 94.4961 110.054 94.3544L109.992 94.3515L109.995 94.2895C110.187 87.8615 110.423 79.9455 110.68 71.3917L110.683 71.3149L110.76 71.3179H110.763C116.765 71.5039 122.455 71.6811 127.492 71.8346L127.563 71.8376L127.56 71.9084C127.339 78.6906 127.153 84.4217 127.02 88.4609C126.952 90.4687 126.896 92.0573 126.857 93.1468C126.837 93.6842 126.822 94.0975 126.81 94.3839C126.804 94.5198 126.798 94.6231 126.795 94.6999C126.79 94.7678 126.787 94.8032 126.787 94.8032Z" stroke="black" stroke-width="0.5" stroke-miterlimit="10"/>
<path d="M120.952 76.6946C120.952 76.7359 119.13 76.7152 116.883 76.6473C114.636 76.5794 112.818 76.4879 112.821 76.4465C112.821 76.4052 114.642 76.4259 116.889 76.4938C119.133 76.5617 120.952 76.6503 120.952 76.6946Z" fill="#E0E0E0" stroke="black" stroke-width="0.5" stroke-miterlimit="10"/>
<path d="M125.29 78.8175C125.29 78.8588 122.482 78.8086 119.024 78.7023C115.564 78.596 112.761 78.4779 112.761 78.4336C112.761 78.3893 115.569 78.4425 119.03 78.5488C122.485 78.6551 125.29 78.7761 125.29 78.8175Z" fill="#E0E0E0" stroke="black" stroke-width="0.5" stroke-miterlimit="10"/>
<path d="M125.225 80.8934C125.225 80.9347 122.417 80.8845 118.959 80.7782C115.499 80.6719 112.697 80.5538 112.697 80.5096C112.697 80.4682 115.504 80.5184 118.965 80.6247C122.423 80.731 125.228 80.8521 125.225 80.8934Z" fill="#E0E0E0" stroke="black" stroke-width="0.5" stroke-miterlimit="10"/>
<path d="M125.163 82.9691C125.163 83.0104 122.355 82.9602 118.897 82.8539C115.437 82.7476 112.635 82.6295 112.635 82.5852C112.635 82.5439 115.442 82.5941 118.903 82.7004C122.358 82.8067 125.163 82.9277 125.163 82.9691Z" fill="#E0E0E0" stroke="black" stroke-width="0.5" stroke-miterlimit="10"/>
<path d="M125.098 85.0445C125.098 85.0859 122.29 85.0357 118.832 84.9294C115.372 84.8231 112.57 84.705 112.57 84.6607C112.57 84.6164 115.378 84.6695 118.838 84.7758C122.296 84.8821 125.101 85.0032 125.098 85.0445Z" fill="#E0E0E0" stroke="black" stroke-width="0.5" stroke-miterlimit="10"/>
<path d="M125.036 87.1204C125.036 87.1618 122.228 87.1116 118.77 87.0053C115.31 86.899 112.508 86.7809 112.508 86.7366C112.508 86.6953 115.316 86.7455 118.776 86.8518C122.231 86.9581 125.036 87.0791 125.036 87.1204Z" fill="#E0E0E0" stroke="black" stroke-width="0.5" stroke-miterlimit="10"/>
<path d="M124.971 89.1961C124.971 89.2375 122.163 89.1873 118.705 89.081C115.245 88.9747 112.443 88.8566 112.443 88.8123C112.443 88.771 115.251 88.8211 118.711 88.9274C122.169 89.0337 124.974 89.1548 124.971 89.1961Z" fill="#E0E0E0" stroke="black" stroke-width="0.5" stroke-miterlimit="10"/>
<path d="M119.113 91.0946C119.113 91.136 117.604 91.1242 115.744 91.068C113.884 91.0119 112.378 90.9322 112.378 90.8879C112.378 90.8466 113.886 90.8584 115.747 90.9145C117.607 90.9736 119.116 91.0533 119.113 91.0946Z" fill="#E0E0E0" stroke="black" stroke-width="0.5" stroke-miterlimit="10"/>
<path d="M77.7752 56.1719L72.5393 69.3232L88.9881 75.872L94.2241 62.7206L77.7752 56.1719Z" fill="#92E3A9" stroke="#263238" stroke-width="0.5" stroke-miterlimit="10" stroke-linecap="round" stroke-linejoin="round"/>
<path d="M94.2218 62.723C94.2218 62.723 94.1953 62.7142 94.1421 62.6935C94.089 62.6728 94.0122 62.6433 93.9118 62.602C93.7081 62.5222 93.4099 62.4041 93.0201 62.2506C92.2406 61.9406 91.0979 61.4888 89.6511 60.916C86.7605 59.7674 82.6504 58.1376 77.7638 56.1977L77.7992 56.1829C76.2432 60.0981 74.4568 64.5832 72.5672 69.334L72.5494 69.2956C78.6378 71.7227 84.298 73.9755 88.9957 75.8505L88.9632 75.8652C90.5458 71.9057 91.8568 68.6224 92.775 66.3282C93.2356 65.1796 93.5959 64.282 93.8409 63.6679C93.965 63.3608 94.0594 63.1275 94.1214 62.9681C94.1864 62.8057 94.2218 62.723 94.2218 62.723C94.2218 62.723 94.1923 62.8027 94.1303 62.9622C94.0683 63.1216 93.9768 63.3549 93.8557 63.662C93.6136 64.2761 93.2563 65.1767 92.8046 66.3223C91.8922 68.6224 90.5871 71.9146 89.0104 75.8829L89.0016 75.9066L88.9779 75.8977C84.2773 74.0287 78.6171 71.7758 72.5288 69.3547L72.5022 69.3428L72.514 69.3163C74.4066 64.5684 76.193 60.0834 77.752 56.1682L77.7608 56.1445L77.7845 56.1534C82.6741 58.1051 86.7871 59.7497 89.6777 60.9042C91.1186 61.4829 92.2583 61.9376 93.0349 62.2476C93.4217 62.4041 93.7199 62.5222 93.9207 62.6049C94.0211 62.6463 94.0949 62.6758 94.148 62.6964C94.1982 62.7112 94.2218 62.723 94.2218 62.723Z" fill="#92E3A9"/>
<path d="M94.2218 62.723C94.2218 62.723 94.1953 62.7142 94.1421 62.6935C94.089 62.6728 94.0122 62.6433 93.9118 62.602C93.7081 62.5222 93.4099 62.4041 93.0201 62.2506C92.2406 61.9406 91.0979 61.4888 89.6511 60.916C86.7605 59.7674 82.6504 58.1376 77.7638 56.1977L77.7992 56.1829C76.2432 60.0981 74.4568 64.5832 72.5672 69.334L72.5494 69.2956C78.6378 71.7227 84.298 73.9755 88.9957 75.8505L88.9632 75.8652C90.5458 71.9057 91.8568 68.6224 92.775 66.3282C93.2356 65.1796 93.5959 64.282 93.8409 63.6679C93.965 63.3608 94.0594 63.1275 94.1214 62.9681C94.1864 62.8057 94.2218 62.723 94.2218 62.723ZM94.2218 62.723C94.2218 62.723 94.1923 62.8027 94.1303 62.9622C94.0683 63.1216 93.9768 63.3549 93.8557 63.662C93.6136 64.2761 93.2563 65.1767 92.8046 66.3223C91.8922 68.6224 90.5871 71.9146 89.0104 75.8829L89.0016 75.9066L88.9779 75.8977C84.2773 74.0287 78.6171 71.7758 72.5288 69.3547L72.5022 69.3428L72.514 69.3163C74.4066 64.5684 76.193 60.0834 77.752 56.1682L77.7608 56.1445L77.7845 56.1534C82.6741 58.1051 86.7871 59.7497 89.6777 60.9042C91.1186 61.4829 92.2583 61.9376 93.0349 62.2476C93.4217 62.4041 93.7199 62.5222 93.9207 62.6049C94.0211 62.6463 94.0949 62.6758 94.148 62.6964C94.1982 62.7112 94.2218 62.723 94.2218 62.723Z" stroke="#263238" stroke-width="0.5" stroke-miterlimit="10" stroke-linecap="round" stroke-linejoin="round"/>
<path d="M78.0025 57.237L73.4263 68.7314L88.7202 74.8204L93.2964 63.3259L78.0025 57.237Z" fill="#92E3A9" stroke="#263238" stroke-width="0.5" stroke-miterlimit="10" stroke-linecap="round" stroke-linejoin="round"/>
<path d="M73.4854 68.77L81.673 63.7505L83.2025 69.5377L86.3973 68.0436L88.78 74.8583L73.4854 68.77Z" fill="white" stroke="#263238" stroke-width="0.5" stroke-miterlimit="10" stroke-linecap="round" stroke-linejoin="round"/>
<path d="M86.734 64.7514C86.4683 65.4157 85.7154 65.7405 85.051 65.4748C84.3867 65.209 84.0619 64.4561 84.3276 63.7918C84.5934 63.1274 85.3463 62.8026 86.0106 63.0684C86.675 63.3341 86.9998 64.087 86.734 64.7514Z" fill="white" stroke="#263238" stroke-width="0.5" stroke-miterlimit="10" stroke-linecap="round" stroke-linejoin="round"/>
<path d="M34.8825 77.2823C34.8855 77.2704 34.9977 77.359 35.2339 77.3413C35.349 77.3265 35.4937 77.2764 35.6118 77.1523C35.724 77.0313 35.8067 76.8364 35.9248 76.6445C36.3825 75.8473 37.035 74.7076 37.8411 73.3021C38.0448 72.9507 38.2574 72.5817 38.4788 72.1949C38.591 72.0029 38.7032 71.8051 38.8184 71.6073C38.8745 71.5069 38.9424 71.4065 38.9749 71.3091C39.0074 71.2087 39.0103 71.0994 38.9837 70.9931C38.9572 70.8898 38.8981 70.7953 38.8154 70.7244C38.7357 70.6595 38.6147 70.6034 38.5113 70.5443C38.2958 70.4233 38.0773 70.3022 37.8558 70.1782C37.41 69.9302 36.9553 69.6733 36.4858 69.4105C34.6109 68.3564 32.5499 67.2019 30.3856 65.9884C30.1465 65.8496 29.8187 65.9412 29.6682 66.1685C29.5146 66.4313 29.3611 66.6911 29.2105 66.951C28.9064 67.4736 28.6082 67.9873 28.3129 68.4922C27.7224 69.502 27.1555 70.4764 26.6122 71.4065C26.5443 71.5217 26.4763 71.6368 26.4114 71.752C26.3435 71.8583 26.314 71.9705 26.3169 72.0886C26.3228 72.2037 26.3641 72.3189 26.438 72.4045C26.5059 72.496 26.6151 72.5433 26.7303 72.6112C27.1732 72.8622 27.6043 73.1043 28.0206 73.3405C28.8503 73.8129 29.6268 74.2499 30.3355 74.6515C31.7409 75.4546 32.8806 76.1042 33.6808 76.5618C34.0676 76.7862 34.3717 76.9634 34.5873 77.0874C34.6847 77.1464 34.7615 77.1907 34.8205 77.2262C34.8559 77.2616 34.8825 77.2793 34.8825 77.2823C34.8825 77.2852 34.853 77.2704 34.7969 77.2439C34.7349 77.2114 34.6552 77.1701 34.5548 77.1169C34.3363 76.9988 34.0263 76.8305 33.6336 76.615C32.8275 76.1691 31.6789 75.5313 30.2646 74.7489C29.553 74.3532 28.7765 73.9192 27.9409 73.4527C27.5245 73.2194 27.0905 72.9773 26.6476 72.7293C26.5443 72.6673 26.4084 72.6112 26.3169 72.4931C26.2224 72.3838 26.1693 72.2391 26.1634 72.0945C26.1575 71.9498 26.2018 71.7992 26.2756 71.6811C26.3435 71.5659 26.4084 71.4508 26.4763 71.3356C27.0167 70.4056 27.5806 69.4282 28.1682 68.4155C28.4605 67.9106 28.7617 67.3939 29.0629 66.8712C29.2164 66.6085 29.3699 66.3457 29.5264 66.077C29.7154 65.7876 30.1347 65.6695 30.4447 65.8496C32.606 67.0661 34.664 68.2265 36.539 69.2836C37.0055 69.5493 37.4631 69.8062 37.906 70.0571C38.1275 70.1812 38.346 70.3052 38.5615 70.4262C38.6678 70.4912 38.7741 70.5355 38.8863 70.6241C38.9896 70.7126 39.0635 70.8307 39.0959 70.9577C39.1284 71.0847 39.1225 71.2205 39.0841 71.3445C39.0398 71.4715 38.969 71.563 38.9158 71.6634C38.8007 71.8612 38.6855 72.059 38.5733 72.248C38.3489 72.6318 38.1334 72.998 37.9267 73.3493C37.1059 74.743 36.4386 75.8739 35.9691 76.6681C35.8451 76.86 35.7654 77.0461 35.6384 77.1789C35.5085 77.3059 35.352 77.3561 35.2309 77.3649C35.1069 77.3738 35.0154 77.3472 34.9593 77.3206C34.9061 77.3059 34.8825 77.2823 34.8825 77.2823Z" fill="#E0E0E0"/>
<path d="M33.3206 71.2295L34.0646 72.5523L32.5293 72.5789L30.9939 72.6084L31.7852 71.259L32.5765 69.9097L33.3206 71.2295Z" fill="#E0E0E0"/>
<path d="M133.454 127.525C133.454 127.569 105.212 127.607 70.3822 127.607C35.541 127.607 7.30493 127.572 7.30493 127.525C7.30493 127.48 35.541 127.442 70.3822 127.442C105.215 127.445 133.454 127.48 133.454 127.525Z" fill="#263238"/>
<path d="M38.529 108.767L29.6121 99.8113L34.0942 91.5793C38.5763 85.8424 48.0661 86.2114 48.0661 86.2114C48.0661 86.2114 54.5235 85.5884 62.0586 87.0559C69.5967 88.5234 68.9885 93.5104 68.9885 93.5104L69.9983 111.985L71.0819 127.029L43.2828 127.59L38.529 108.767Z" fill="#C8DCEC"/>
<path d="M53.5048 126.725L28.6051 127.029C22.6231 127.103 18.6311 120.882 21.191 115.472L31.8383 95.728L41.5347 102.283L34.9208 116.01L55.0785 116.37L53.5048 126.725Z" fill="#C8DCEC"/>
<path d="M68.1025 90.5103L88.0831 121.359L76.426 122.121C76.426 122.121 69.4637 111.152 69.6232 111.38C69.9066 111.79 68.1025 90.5103 68.1025 90.5103Z" fill="#C8DCEC"/>
<path d="M41.0357 104.057C41.0298 104.057 41.0416 104.001 41.0622 103.898C41.0918 103.78 41.1242 103.632 41.1685 103.452C41.2601 103.065 41.3959 102.504 41.5347 101.804C41.6734 101.107 41.824 100.272 41.9244 99.3359C42.0189 98.4029 42.0779 97.3635 41.9362 96.2947C41.7768 95.2288 41.3752 94.2603 40.9057 93.4542C40.4333 92.6452 39.9048 91.9809 39.4235 91.4583C38.9422 90.9356 38.5171 90.5459 38.2129 90.289C37.9118 90.0292 37.7376 89.8934 37.7464 89.8815C37.7494 89.8786 37.7966 89.9081 37.8822 89.9672C37.9679 90.0292 38.0978 90.1148 38.2513 90.2418C38.5673 90.4868 39.0072 90.8677 39.5032 91.3844C39.9993 91.9012 40.5455 92.5655 41.0298 93.3834C41.514 94.1983 41.9274 95.1815 42.0898 96.274C42.2344 97.3665 42.1695 98.4147 42.0691 99.3536C41.9598 100.293 41.7974 101.131 41.6439 101.828C41.4904 102.525 41.3398 103.083 41.2276 103.467C41.1715 103.659 41.1272 103.806 41.0947 103.907C41.0593 104.007 41.0386 104.057 41.0357 104.057Z" fill="#263238"/>
<path d="M40.2327 105.12C40.2416 105.123 40.1796 105.283 40.0615 105.566C39.9434 105.849 39.7633 106.257 39.5389 106.756C39.0871 107.757 38.4464 109.133 37.7082 110.639C36.9701 112.144 36.2732 113.494 35.7565 114.462C35.4997 114.947 35.2871 115.336 35.1335 115.605C34.9829 115.874 34.8944 116.018 34.8855 116.012C34.8766 116.007 34.9475 115.853 35.0804 115.575C35.228 115.277 35.4229 114.885 35.6591 114.409C36.1581 113.402 36.8283 112.056 37.5695 110.565C38.2958 109.068 38.9513 107.716 39.4414 106.703C39.6717 106.227 39.8637 105.832 40.0083 105.534C40.1442 105.268 40.2239 105.117 40.2327 105.12Z" fill="#263238"/>
<path d="M53.5048 126.724C53.5019 126.724 53.5019 126.707 53.5048 126.671C53.5078 126.63 53.5107 126.58 53.5166 126.521C53.5314 126.379 53.5521 126.181 53.5757 125.933C53.6347 125.408 53.7145 124.661 53.8208 123.719C54.0422 121.811 54.3522 119.121 54.7184 115.953L54.7892 116.033C52.5482 116.036 50.0561 116.036 47.4342 116.039C42.4118 116.03 37.8676 116.021 34.5666 116.015C32.9279 116.006 31.5992 115.998 30.6661 115.992C30.2144 115.986 29.8601 115.98 29.6061 115.977C29.491 115.974 29.3995 115.971 29.3315 115.968C29.2695 115.965 29.2371 115.962 29.2371 115.959C29.2371 115.956 29.2695 115.953 29.3315 115.95C29.4024 115.947 29.4939 115.944 29.6061 115.941C29.8601 115.938 30.2144 115.933 30.6661 115.927C31.5962 115.921 32.9279 115.912 34.5666 115.903C37.8676 115.897 42.4118 115.888 47.4342 115.879C50.0561 115.882 52.5482 115.885 54.7892 115.885H54.869L54.8601 115.965C54.4703 119.13 54.1426 121.817 53.9093 123.725C53.7883 124.664 53.6938 125.411 53.6259 125.936C53.5905 126.184 53.5639 126.379 53.5462 126.521C53.5373 126.583 53.5285 126.63 53.5225 126.671C53.5107 126.707 53.5078 126.724 53.5048 126.724Z" fill="#263238"/>
<path d="M35.095 116.225C35.0743 116.237 34.9031 115.986 34.599 115.602C34.2948 115.221 33.8401 114.716 33.2703 114.235C32.7004 113.753 32.1276 113.39 31.6995 113.154C31.2713 112.915 30.9938 112.791 31.0026 112.767C31.0086 112.75 31.3038 112.841 31.7497 113.057C32.1955 113.272 32.789 113.626 33.3677 114.117C33.9464 114.607 34.3982 115.132 34.6846 115.534C34.974 115.938 35.1098 116.213 35.095 116.225Z" fill="#263238"/>
<path d="M70.4146 118.177C70.4087 118.177 70.3969 118.088 70.3763 117.923C70.3556 117.743 70.329 117.498 70.2936 117.188C70.2257 116.55 70.1341 115.626 70.0367 114.48C69.8359 112.192 69.6027 109.03 69.393 105.531C69.1863 102.032 69.0417 98.8636 68.959 96.5694C68.9177 95.4208 68.8881 94.4937 68.8763 93.8529C68.8704 93.5429 68.8675 93.2949 68.8645 93.1148C68.8645 92.9465 68.8645 92.8579 68.8704 92.8579C68.8763 92.8579 68.8852 92.9465 68.894 93.1148C68.9029 93.2979 68.9177 93.5429 68.9354 93.8529C68.9678 94.5084 69.0121 95.4326 69.0682 96.5694C69.1804 98.8636 69.3399 102.029 69.5466 105.528C69.7532 109.024 69.9688 112.189 70.143 114.477C70.2316 115.611 70.3024 116.532 70.3526 117.188C70.3763 117.498 70.394 117.743 70.4058 117.926C70.4176 118.088 70.4205 118.177 70.4146 118.177Z" fill="#263238"/>
<path d="M48.1901 101.391C48.1813 101.391 48.1931 101.249 48.2226 100.986C48.258 100.706 48.3023 100.331 48.3584 99.8703C48.4883 98.8959 48.6655 97.5613 48.8722 96.0141L48.9873 96.085C48.3909 96.5013 47.7472 96.953 47.077 97.4225C46.3949 97.8979 45.7394 98.3526 45.1341 98.7748L44.9954 98.8723L45.0219 98.704C45.2552 97.1715 45.4589 95.8488 45.6066 94.8832C45.6804 94.4285 45.7424 94.0595 45.7896 93.7819C45.8339 93.525 45.8634 93.3863 45.8723 93.3892C45.8812 93.3892 45.8693 93.5309 45.8398 93.7908C45.8044 94.0713 45.7571 94.4433 45.701 94.898C45.5682 95.8665 45.3822 97.1922 45.1696 98.7276L45.0544 98.6567C45.6568 98.2345 46.3122 97.7768 46.9943 97.2985C47.6646 96.832 48.3112 96.3802 48.9076 95.9669L49.0464 95.8694L49.0228 96.0377C48.7954 97.579 48.6005 98.9136 48.4559 99.885C48.382 100.343 48.323 100.715 48.2787 100.995C48.2256 101.252 48.196 101.394 48.1901 101.391Z" fill="black"/>
<path d="M59.3007 102.59C59.2948 102.596 59.1914 102.495 59.0113 102.306C58.8164 102.1 58.5566 101.825 58.2377 101.488C57.5704 100.765 56.6581 99.7758 55.601 98.6302L55.728 98.5859C55.6689 99.3093 55.604 100.095 55.5361 100.91C55.4652 101.736 55.3973 102.534 55.3323 103.269L55.3176 103.44L55.2054 103.313C54.1778 102.153 53.2891 101.152 52.6395 100.42C52.3383 100.071 52.0933 99.7876 51.9073 99.575C51.739 99.3772 51.6504 99.265 51.6563 99.2591C51.6622 99.2532 51.7626 99.3536 51.9427 99.5396C52.1346 99.7463 52.3915 100.018 52.7045 100.355C53.3629 101.075 54.2664 102.064 55.3117 103.21L55.1847 103.251C55.2467 102.516 55.3117 101.719 55.3796 100.892C55.4504 100.077 55.5183 99.2916 55.5803 98.5682L55.5951 98.3999L55.7073 98.5269C56.7496 99.6873 57.6472 100.691 58.3056 101.423C58.6127 101.772 58.8607 102.055 59.0467 102.271C59.218 102.472 59.3066 102.584 59.3007 102.59Z" fill="black"/>
<path d="M64.8931 102.194C64.899 102.2 64.8282 102.321 64.6924 102.545C64.5418 102.785 64.341 103.106 64.0959 103.499C63.5644 104.326 62.8351 105.46 61.9907 106.771L61.9169 106.658C62.6314 106.534 63.408 106.402 64.214 106.263C65.0319 106.124 65.8232 105.991 66.5496 105.867L66.7179 105.838L66.6234 105.979C65.7583 107.267 65.0112 108.377 64.468 109.189C64.2052 109.567 63.9926 109.877 63.8331 110.107C63.6826 110.32 63.5999 110.432 63.591 110.429C63.5851 110.423 63.656 110.302 63.7918 110.081C63.9424 109.841 64.1432 109.525 64.3912 109.139C64.9256 108.321 65.6549 107.199 66.5023 105.9L66.5761 106.012C65.8498 106.136 65.0614 106.272 64.2436 106.413C63.4375 106.549 62.6609 106.682 61.9434 106.803L61.7751 106.833L61.8696 106.691C62.7318 105.392 63.4788 104.27 64.0221 103.452C64.2819 103.068 64.4945 102.758 64.6569 102.522C64.8016 102.303 64.8872 102.188 64.8931 102.194Z" fill="black"/>
<path d="M57.4554 107.916C57.4613 107.922 57.3904 108.043 57.2546 108.268C57.104 108.507 56.9032 108.829 56.6582 109.221C56.1267 110.048 55.3974 111.182 54.5529 112.493L54.4791 112.381C55.1937 112.257 55.9702 112.124 56.7763 111.985C57.5942 111.846 58.3855 111.713 59.1118 111.589L59.2801 111.56L59.1856 111.702C58.3205 112.989 57.5735 114.099 57.0302 114.911C56.7674 115.289 56.5548 115.599 56.3954 115.829C56.2448 116.042 56.1621 116.154 56.1533 116.151C56.1474 116.145 56.2182 116.024 56.3541 115.803C56.5046 115.564 56.7054 115.248 56.9534 114.861C57.4879 114.043 58.2172 112.921 59.0646 111.622L59.1384 111.734C58.412 111.858 57.6237 111.994 56.8058 112.136C55.9997 112.271 55.2232 112.404 54.5057 112.525L54.3374 112.555L54.4319 112.413C55.2941 111.114 56.0411 109.992 56.5844 109.174C56.8442 108.79 57.0568 108.48 57.2192 108.244C57.3639 108.025 57.4495 107.91 57.4554 107.916Z" fill="black"/>
<path d="M73.5267 102.111C73.5326 102.117 73.4617 102.238 73.3259 102.463C73.1753 102.702 72.9745 103.024 72.7295 103.416C72.198 104.243 71.4687 105.377 70.6242 106.688L70.5504 106.576C71.265 106.452 72.0415 106.319 72.8476 106.18C73.6655 106.041 74.4568 105.908 75.1831 105.784L75.3514 105.755L75.2569 105.897C74.3918 107.184 73.6448 108.294 73.1015 109.106C72.8387 109.484 72.6261 109.794 72.4667 110.024C72.3161 110.237 72.2334 110.349 72.2246 110.346C72.2187 110.34 72.2895 110.219 72.4253 109.998C72.5759 109.759 72.7767 109.443 73.0247 109.056C73.5592 108.238 74.2885 107.116 75.1359 105.817L75.2097 105.929C74.4833 106.053 73.695 106.189 72.8771 106.331C72.071 106.467 71.2945 106.599 70.577 106.72L70.4087 106.75L70.5032 106.608C71.3653 105.309 72.1124 104.187 72.6557 103.369C72.9155 102.985 73.1281 102.675 73.2905 102.439C73.4351 102.224 73.5178 102.108 73.5267 102.111Z" fill="black"/>
<path d="M35.8951 97.3874C35.901 97.3933 35.8301 97.5144 35.6943 97.7388C35.5437 97.978 35.3429 98.2998 35.0979 98.6925C34.5664 99.5192 33.8371 100.653 32.9926 101.964L32.9188 101.852C33.6334 101.728 34.4099 101.595 35.216 101.456C36.0339 101.317 36.8252 101.185 37.5515 101.061L37.7198 101.031L37.6253 101.173C36.7602 102.46 36.0132 103.57 35.4699 104.382C35.2071 104.76 34.9945 105.07 34.8351 105.301C34.6845 105.513 34.6018 105.625 34.593 105.622C34.5871 105.616 34.6579 105.495 34.7938 105.274C34.9443 105.035 35.1451 104.719 35.3931 104.332C35.9276 103.514 36.6569 102.392 37.5043 101.093L37.5781 101.205C36.8517 101.329 36.0634 101.465 35.2455 101.607C34.4394 101.743 33.6629 101.875 32.9454 101.997L32.7771 102.026L32.8716 101.884C33.7338 100.585 34.4808 99.4631 35.0241 98.6453C35.2839 98.2614 35.4965 97.9514 35.6589 97.7152C35.8036 97.4967 35.8862 97.3815 35.8951 97.3874Z" fill="black"/>
<path d="M24.2205 119.464C24.2264 119.458 24.3239 119.565 24.4922 119.765C24.6723 119.984 24.9144 120.273 25.2126 120.63C25.8327 121.392 26.683 122.437 27.6662 123.648L27.5363 123.683C27.6426 122.966 27.7548 122.186 27.8729 121.374C27.9969 120.554 28.115 119.762 28.2213 119.033L28.2479 118.865L28.3513 118.998C29.305 120.22 30.1287 121.274 30.7311 122.045C31.0116 122.411 31.236 122.709 31.4072 122.933C31.5637 123.143 31.6435 123.258 31.6375 123.264C31.6316 123.27 31.5372 123.164 31.3689 122.966C31.1887 122.747 30.9525 122.458 30.6573 122.104C30.0461 121.342 29.2075 120.3 28.2361 119.092L28.366 119.057C28.2597 119.786 28.1446 120.577 28.0235 121.398C27.9025 122.207 27.7873 122.987 27.6781 123.704L27.6544 123.872L27.5511 123.74C26.5856 122.517 25.75 121.46 25.1388 120.687C24.8553 120.32 24.625 120.019 24.4508 119.795C24.2973 119.585 24.2146 119.47 24.2205 119.464Z" fill="black"/>
<path d="M50.8829 105.171C50.8829 105.179 50.7412 105.197 50.4813 105.221C50.1979 105.244 49.8229 105.277 49.3593 105.318C48.379 105.392 47.0356 105.492 45.4796 105.608L45.5238 105.481C46.0524 105.977 46.6281 106.517 47.2246 107.075C47.8299 107.645 48.4115 108.194 48.946 108.699L49.07 108.817L48.9017 108.826C47.3545 108.912 46.0169 108.985 45.0426 109.039C44.5819 109.059 44.207 109.074 43.9265 109.086C43.6666 109.095 43.5249 109.095 43.5249 109.086C43.5249 109.077 43.6637 109.059 43.9235 109.036C44.204 109.012 44.579 108.982 45.0367 108.944C46.011 108.876 47.3456 108.785 48.8928 108.678L48.8485 108.805C48.3111 108.3 47.7265 107.754 47.1212 107.187C46.5277 106.626 45.952 106.086 45.4264 105.587L45.3024 105.472L45.4707 105.463C47.0267 105.368 48.3731 105.289 49.3534 105.23C49.817 105.206 50.1949 105.188 50.4784 105.176C50.7382 105.162 50.8799 105.162 50.8829 105.171Z" fill="black"/>
<path d="M44.3397 120.052C44.3456 120.046 44.443 120.149 44.6172 120.347C44.8032 120.562 45.0512 120.846 45.3554 121.197C45.9902 121.947 46.8612 122.978 47.8681 124.168L47.7381 124.206C47.8297 123.486 47.9271 122.703 48.0305 121.891C48.1367 121.067 48.2401 120.273 48.3346 119.544L48.3552 119.375L48.4615 119.508C49.4389 120.713 50.2833 121.749 50.9004 122.508C51.1868 122.868 51.4201 123.164 51.5943 123.382C51.7537 123.589 51.8364 123.701 51.8305 123.707C51.8246 123.713 51.7272 123.61 51.5559 123.415C51.3728 123.202 51.1278 122.916 50.8296 122.567C50.2036 121.817 49.3444 120.793 48.3493 119.603L48.4793 119.564C48.3877 120.297 48.2873 121.088 48.184 121.912C48.0777 122.724 47.9773 123.503 47.8858 124.224L47.8651 124.392L47.7588 124.262C46.7697 123.057 45.9134 122.018 45.2875 121.256C44.9981 120.893 44.7619 120.601 44.5847 120.379C44.4164 120.17 44.3337 120.058 44.3397 120.052Z" fill="black"/>
<path d="M32.6473 109.136C32.6473 109.144 32.5056 109.162 32.2457 109.189C31.9623 109.212 31.5873 109.245 31.1237 109.286C30.1435 109.36 28.8 109.46 27.244 109.575L27.2882 109.449C27.8168 109.945 28.3925 110.485 28.989 111.043C29.5943 111.613 30.1759 112.162 30.7104 112.667L30.8344 112.785L30.6661 112.794C29.1189 112.879 27.7813 112.953 26.807 113.006C26.3464 113.027 25.9714 113.042 25.6909 113.054C25.431 113.063 25.2893 113.063 25.2893 113.054C25.2893 113.045 25.4281 113.027 25.6879 113.003C25.9684 112.98 26.3434 112.95 26.8011 112.912C27.7754 112.844 29.11 112.753 30.6572 112.646L30.6129 112.773C30.0755 112.268 29.4909 111.722 28.8856 111.155C28.2921 110.594 27.7164 110.054 27.1908 109.555L27.0668 109.44L27.2351 109.431C28.7911 109.336 30.1375 109.257 31.1178 109.198C31.5814 109.174 31.9593 109.156 32.2428 109.144C32.5026 109.13 32.6443 109.13 32.6473 109.136Z" fill="black"/>
<path d="M42.6922 119.715C42.6922 119.724 42.5505 119.742 42.2907 119.768C42.0072 119.792 41.6322 119.824 41.1686 119.866C40.1884 119.939 38.8449 120.04 37.2889 120.155L37.3332 120.028C37.8617 120.524 38.4375 121.064 39.0339 121.622C39.6392 122.192 40.2209 122.741 40.7553 123.246L40.8793 123.364L40.711 123.373C39.1638 123.459 37.8263 123.533 36.8519 123.586C36.3913 123.607 36.0163 123.621 35.7358 123.633C35.476 123.642 35.3342 123.642 35.3342 123.633C35.3342 123.624 35.473 123.607 35.7328 123.583C36.0133 123.559 36.3883 123.53 36.846 123.491C37.8204 123.423 39.155 123.332 40.7021 123.226L40.6578 123.353C40.1205 122.848 39.5358 122.301 38.9305 121.735C38.3371 121.174 37.7613 120.633 37.2357 120.134L37.1117 120.019L37.28 120.01C38.8361 119.916 40.1825 119.836 41.1627 119.777C41.6263 119.753 42.0042 119.736 42.2877 119.724C42.5505 119.709 42.6922 119.706 42.6922 119.715Z" fill="black"/>
<path d="M65.3714 92.8019C65.3714 92.8108 65.2297 92.8285 64.9699 92.8521C64.6864 92.8758 64.3114 92.9082 63.8479 92.9496C62.8676 93.0234 61.5241 93.1238 59.9681 93.2389L60.0124 93.112C60.5409 93.608 61.1167 94.1483 61.7131 94.7064C62.3184 95.2763 62.9001 95.8255 63.4345 96.3304L63.5585 96.4485L63.3902 96.4573C61.843 96.5429 60.5055 96.6168 59.5311 96.6699C59.0705 96.6906 58.6955 96.7053 58.415 96.7171C58.1552 96.726 58.0134 96.726 58.0134 96.7171C58.0134 96.7083 58.1522 96.6906 58.412 96.667C58.6925 96.6433 59.0675 96.6138 59.5252 96.5754C60.4996 96.5075 61.8341 96.416 63.3813 96.3097L63.337 96.4366C62.7997 95.9317 62.215 95.3855 61.6097 94.8186C61.0163 94.2576 60.4405 93.7173 59.9149 93.2183L59.7909 93.1031L59.9592 93.0943C61.5153 92.9998 62.8617 92.9201 63.8419 92.861C64.3055 92.8374 64.6834 92.8197 64.9669 92.8079C65.2297 92.7931 65.3714 92.7931 65.3714 92.8019Z" fill="black"/>
<path d="M54.3404 119.715C54.3404 119.715 59.3097 118.283 60.9514 117.864C61.5921 117.701 64.3351 119.148 66.2307 120.35C66.2307 120.35 68.8409 121.897 68.6283 122.375C68.395 122.901 67.4325 122.792 65.9 122.071C65.9 122.071 66.4345 123.627 65.3833 123.592C65.3833 123.592 65.9059 125.272 64.9198 125.446C63.9336 125.62 63.7033 123.477 62.8322 123.358C61.9642 123.243 60.166 123.125 60.166 123.125C60.166 123.125 58.669 125.602 57.5116 125.777C56.3512 125.951 53.6672 125.638 53.6672 125.638L54.3404 119.715Z" fill="#FFBE9D"/>
<path d="M62.8174 120.058C62.841 120.022 63.4611 120.374 64.2052 120.843C64.9492 121.313 65.5339 121.72 65.5102 121.758C65.4866 121.794 64.8666 121.442 64.1225 120.973C63.3814 120.503 62.7968 120.096 62.8174 120.058Z" fill="#EB996E"/>
<path d="M62.5252 121.014C62.5429 120.976 63.2811 121.277 64.1728 121.69C65.0645 122.101 65.7731 122.467 65.7554 122.505C65.7377 122.544 64.9995 122.242 64.1078 121.829C63.2161 121.419 62.5075 121.052 62.5252 121.014Z" fill="#EB996E"/>
<path d="M63.0567 123.329C63.0626 123.288 63.5645 123.32 64.1787 123.406C64.7928 123.488 65.2859 123.592 65.28 123.633C65.2741 123.674 64.7722 123.642 64.158 123.556C63.5439 123.474 63.0508 123.373 63.0567 123.329Z" fill="#EB996E"/>
<path d="M47.8771 68.472C47.9922 68.8529 47.8623 69.2958 47.5582 69.5497C47.254 69.8066 46.7934 69.8568 46.4391 69.6796C45.7659 69.3371 45.6803 68.41 45.8132 67.6659C45.946 66.9219 46.197 66.1305 45.887 65.4426C45.6478 64.917 45.1311 64.5834 44.7295 64.17C44.0268 63.4495 43.6548 62.3984 43.826 61.4063C43.9973 60.4142 44.7413 59.5225 45.7098 59.2538C46.699 58.9763 47.9184 59.2804 48.6536 58.5659C49.188 58.0462 49.2205 57.1958 49.6339 56.5787C50.2746 55.6162 51.6299 55.4656 52.7755 55.6221C53.9211 55.7786 55.0845 56.1447 56.2065 55.8672C57.1424 55.6339 57.9131 54.9814 58.79 54.5798C60.6915 53.7088 63.1245 54.1812 64.5624 55.6989C66.0033 57.2165 66.3429 59.6702 65.3744 61.5244C65.026 62.1917 64.5004 62.7941 63.8066 63.0775" fill="#263238"/>
<path d="M47.8771 68.472C47.9922 68.8529 47.8623 69.2958 47.5582 69.5497C47.254 69.8066 46.7934 69.8568 46.4391 69.6796C45.7659 69.3371 45.6803 68.41 45.8132 67.6659C45.946 66.9219 46.197 66.1305 45.887 65.4426C45.6478 64.917 45.1311 64.5834 44.7295 64.17C44.0268 63.4495 43.6548 62.3984 43.826 61.4063C43.9973 60.4142 44.7413 59.5225 45.7098 59.2538C46.699 58.9763 47.9184 59.2804 48.6536 58.5659C49.188 58.0462 49.2205 57.1958 49.6339 56.5787C50.2746 55.6162 51.6299 55.4656 52.7755 55.6221C53.9211 55.7786 55.0845 56.1447 56.2065 55.8672C57.1424 55.6339 57.9131 54.9814 58.79 54.5798C60.6915 53.7088 63.1245 54.1812 64.5624 55.6989C66.0033 57.2165 66.3429 59.6702 65.3744 61.5244C65.026 62.1917 64.5004 62.7941 63.8066 63.0775" stroke="#263238" stroke-width="0.2" stroke-miterlimit="10"/>
<path d="M53.5757 92.8609C56.7469 92.8579 59.3039 90.2625 59.2625 87.0914L59.1887 81.6644C59.1887 81.6644 63.7476 81.2068 64.0517 76.6893C64.3529 72.1717 64.1344 61.7489 64.1344 61.7489C59.0234 59.2155 52.9409 59.6436 48.2374 62.8738L47.5405 63.3522L47.8801 87.2509C47.9214 90.3629 50.4607 92.8638 53.5757 92.8609Z" fill="#FFBE9D" stroke="#263238" stroke-width="0.2" stroke-miterlimit="10"/>
<path d="M62.9325 69.928C62.1294 69.7685 62.1353 68.7321 62.9414 68.5845C62.9768 68.5786 63.0152 68.5786 63.0506 68.5845C63.8537 68.7439 63.8478 69.7803 63.0418 69.928C63.0093 69.9368 62.968 69.9368 62.9325 69.928Z" fill="#263238" stroke="#263238" stroke-width="0.2" stroke-miterlimit="10"/>
<path d="M63.8214 68.4869C63.7476 68.5607 63.3224 68.1946 62.6994 68.1591C62.0764 68.1119 61.6069 68.419 61.5419 68.3363C61.5094 68.2979 61.5892 68.1621 61.7929 68.0233C61.9937 67.8845 62.3332 67.7605 62.723 67.7842C63.1098 67.8107 63.4316 67.979 63.6117 68.1444C63.7977 68.3068 63.8568 68.4544 63.8214 68.4869Z" fill="#263238" stroke="#263238" stroke-width="0.2" stroke-miterlimit="10"/>
<path d="M56.617 68.6377C56.9152 68.8444 56.989 69.2548 56.7823 69.553C56.5756 69.8512 56.1652 69.9251 55.867 69.7184C55.5688 69.5117 55.495 69.1013 55.7017 68.803C55.9083 68.5048 56.3188 68.431 56.617 68.6377Z" fill="#263238" stroke="#263238" stroke-width="0.2" stroke-miterlimit="10"/>
<path d="M57.0274 68.6671C56.9536 68.7409 56.5284 68.3748 55.9054 68.3393C55.2824 68.2921 54.8129 68.5992 54.748 68.5165C54.7155 68.4781 54.7952 68.3423 54.999 68.2035C55.1997 68.0647 55.5393 67.9407 55.929 67.9643C56.3158 67.9909 56.6377 68.1592 56.8178 68.3246C57.0038 68.487 57.0629 68.6346 57.0274 68.6671Z" fill="#263238" stroke="#263238" stroke-width="0.2" stroke-miterlimit="10"/>
<path d="M59.2449 73.9402C59.242 73.89 59.6317 73.8339 60.2636 73.7807C60.4289 73.7719 60.5559 73.7423 60.5736 73.6538C60.609 73.5563 60.5559 73.3792 60.4821 73.1813C60.3433 72.7621 60.2045 72.3339 60.0598 71.8881C59.4782 70.0486 59.0825 68.5339 59.174 68.5043C59.2685 68.4748 59.8148 69.9423 60.3964 71.7818C60.5323 72.2306 60.6651 72.6587 60.7921 73.0809C60.8423 73.2729 60.9427 73.4973 60.8452 73.763C60.7921 73.8959 60.6592 73.9844 60.55 74.0081C60.4407 74.0346 60.3492 74.0287 60.2695 74.0287C59.6376 74.0199 59.2449 73.9874 59.2449 73.9402Z" fill="#263238" stroke="#263238" stroke-width="0.2" stroke-miterlimit="10"/>
<path d="M57.1839 74.5161C57.9811 74.8852 58.9319 75.3458 60.1897 75.5702C60.1897 75.5702 59.3984 76.6922 58.1228 76.143C56.7942 75.5761 57.1839 74.5161 57.1839 74.5161Z" fill="white" stroke="#263238" stroke-width="0.2" stroke-miterlimit="10"/>
<path d="M59.1975 81.5966C59.1975 81.5966 56.3275 81.6733 53.3955 79.6006C53.3955 79.6006 54.612 82.9312 59.1443 82.7688L59.1975 81.5966Z" fill="#EB996E" stroke="#263238" stroke-width="0.2" stroke-miterlimit="10"/>
<path d="M64.164 62.8883C64.164 62.8883 61.4357 64.276 57.8158 62.5546C55.4418 61.4267 52.687 60.9071 52.0935 61.3913C51.4971 61.8755 51.4174 64.3026 49.1025 65.0555C49.1025 65.0555 49.3535 69.6764 47.5051 69.5465C45.6568 69.4166 46.6725 62.2328 46.6725 62.2328L51.1398 59.9416L56.0442 58.917L60.6946 59.4809L64.3027 60.3933L64.164 62.8883Z" fill="#263238" stroke="#263238" stroke-width="0.2" stroke-miterlimit="10"/>
<path d="M47.8387 68.0617C47.7649 68.0233 44.7827 66.9751 44.7119 70.0695C44.641 73.1668 47.7649 72.597 47.7738 72.5084C47.7826 72.4198 47.8387 68.0617 47.8387 68.0617Z" fill="#FFBE9D" stroke="#263238" stroke-width="0.2" stroke-miterlimit="10"/>
<path d="M46.8555 71.3155C46.8407 71.3066 46.7994 71.3509 46.7079 71.3922C46.6193 71.4306 46.4658 71.4543 46.3034 71.3922C45.9786 71.2653 45.7158 70.7397 45.7128 70.1817C45.7099 69.8982 45.7748 69.6325 45.8811 69.414C45.9815 69.1896 46.1321 69.036 46.2975 69.0095C46.4628 68.974 46.578 69.0774 46.6134 69.166C46.6518 69.2545 46.6311 69.3136 46.6488 69.3195C46.6577 69.3284 46.7167 69.2693 46.6931 69.1394C46.6813 69.0774 46.6459 69.0036 46.575 68.9416C46.5012 68.8796 46.3949 68.8471 46.2797 68.8559C46.0406 68.8677 45.8221 69.0833 45.7069 69.3224C45.58 69.5646 45.5002 69.8657 45.5002 70.1817C45.5061 70.8047 45.8132 71.3982 46.2561 71.5369C46.4717 71.5989 46.6547 71.5369 46.7522 71.4661C46.8466 71.3893 46.8644 71.3214 46.8555 71.3155Z" fill="#EB996E" stroke="#263238" stroke-width="0.2" stroke-miterlimit="10"/>
<path d="M46.2619 58.3679C46.2442 58.3324 46.7521 58.1878 47.3367 58.4062C47.9213 58.6218 48.2107 59.0647 48.1752 59.0794C48.1428 59.1119 47.8239 58.7458 47.2835 58.5509C46.7491 58.3472 46.2678 58.4151 46.2619 58.3679Z" fill="#263238" stroke="#263238" stroke-width="0.2" stroke-miterlimit="10"/>
<path d="M48.125 56.5137C48.1782 56.5167 48.0955 57.1662 48.2018 57.9398C48.3081 58.7223 48.6742 59.2656 48.6329 59.2892C48.6181 59.301 48.5059 59.1799 48.3731 58.9467C48.2431 58.7164 48.1044 58.365 48.0483 57.9635C47.939 57.1544 48.0955 56.5078 48.125 56.5137Z" fill="#263238" stroke="#263238" stroke-width="0.2" stroke-miterlimit="10"/>
<path d="M60.848 66.9985C60.8303 66.9631 60.9632 66.8568 61.2141 66.7535C61.4651 66.6501 61.8371 66.5645 62.2535 66.5675C62.6698 66.5734 63.0389 66.6678 63.2869 66.7741C63.5349 66.8804 63.6678 66.9897 63.6501 67.0281C63.6117 67.1107 63.0152 66.8775 62.2505 66.8745C61.4858 66.8598 60.8834 67.0812 60.848 66.9985Z" fill="#263238" stroke="#263238" stroke-width="0.2" stroke-miterlimit="10"/>
<path d="M53.9447 66.3491C53.927 66.3137 54.0598 66.2074 54.3108 66.1041C54.5618 66.0007 54.9338 65.9151 55.3501 65.918C55.7665 65.9239 56.1355 66.0184 56.3836 66.1247C56.6316 66.231 56.7645 66.3403 56.7467 66.3787C56.7084 66.4613 56.1119 66.2281 55.3472 66.2251C54.5825 66.2104 53.9801 66.4318 53.9447 66.3491Z" fill="#263238" stroke="#263238" stroke-width="0.2" stroke-miterlimit="10"/>
<path d="M60.3134 67.4854C60.3164 67.4884 60.3223 67.5533 60.3252 67.6685C60.3282 67.7984 60.3341 67.9638 60.34 68.1675C60.3459 68.386 60.3488 68.6458 60.3548 68.944C60.3548 69.2423 60.3725 69.5907 60.5024 69.9479C60.6264 70.3023 60.839 70.6684 61.1549 70.9784C61.4738 71.2825 61.8901 71.5365 62.3744 71.6487C62.6165 71.7048 62.8704 71.7343 63.1302 71.7136C63.3901 71.7018 63.6529 71.6487 63.9038 71.5512C64.4087 71.3652 64.8664 71.002 65.1764 70.5208C65.4717 70.0631 65.6045 69.5287 65.5927 69.009C65.5927 68.4805 65.5957 67.9697 65.5957 67.4825L65.6666 67.5533C64.1194 67.5386 62.7966 67.5268 61.834 67.5179C61.3734 67.5091 61.0014 67.5032 60.7209 67.4973C60.6028 67.4943 60.5024 67.4913 60.4197 67.4884C60.3548 67.4913 60.3164 67.4884 60.3134 67.4854C60.3075 67.4795 60.4404 67.4736 60.6943 67.4677C60.9689 67.4618 61.335 67.4559 61.7897 67.4471C62.7612 67.4382 64.1017 67.4264 65.6695 67.4116H65.7404V67.4825C65.7404 67.9697 65.7433 68.4805 65.7433 69.009C65.761 69.5464 65.6193 70.1221 65.3063 70.6034C64.9786 71.1113 64.4914 71.4981 63.957 71.69C63.6912 71.7933 63.4137 71.8465 63.1391 71.8583C62.8645 71.876 62.5958 71.8465 62.3419 71.7845C61.8311 71.6634 61.3941 71.3918 61.0663 71.067C60.7386 70.7363 60.5231 70.3525 60.399 69.9775C60.2721 69.6025 60.2603 69.2423 60.2691 68.9322C60.275 68.6281 60.2809 68.3624 60.2839 68.138C60.2898 67.9372 60.2957 67.7748 60.2987 67.6449C60.3075 67.5386 60.3105 67.4825 60.3134 67.4854Z" fill="#263238"/>
<path d="M60.3134 67.4854C60.3164 67.4884 60.3223 67.5533 60.3252 67.6685C60.3282 67.7984 60.3341 67.9638 60.34 68.1675C60.3459 68.386 60.3488 68.6458 60.3548 68.944C60.3548 69.2423 60.3725 69.5907 60.5024 69.9479C60.6264 70.3023 60.839 70.6684 61.1549 70.9784C61.4738 71.2825 61.8901 71.5365 62.3744 71.6487C62.6165 71.7048 62.8704 71.7343 63.1302 71.7136C63.3901 71.7018 63.6529 71.6487 63.9038 71.5512C64.4087 71.3652 64.8664 71.002 65.1764 70.5208C65.4717 70.0631 65.6045 69.5287 65.5927 69.009C65.5927 68.4805 65.5957 67.9697 65.5957 67.4825L65.6666 67.5533C64.1194 67.5386 62.7966 67.5268 61.834 67.5179C61.3734 67.5091 61.0014 67.5032 60.7209 67.4973C60.6028 67.4943 60.5024 67.4913 60.4197 67.4884C60.3548 67.4913 60.3164 67.4884 60.3134 67.4854ZM60.3134 67.4854C60.3075 67.4795 60.4404 67.4736 60.6943 67.4677C60.9689 67.4618 61.335 67.4559 61.7897 67.4471C62.7612 67.4382 64.1017 67.4264 65.6695 67.4116H65.7404V67.4825C65.7404 67.9697 65.7433 68.4805 65.7433 69.009C65.761 69.5464 65.6193 70.1221 65.3063 70.6034C64.9786 71.1113 64.4914 71.4981 63.957 71.69C63.6912 71.7933 63.4137 71.8465 63.1391 71.8583C62.8645 71.876 62.5958 71.8465 62.3419 71.7845C61.8311 71.6634 61.3941 71.3918 61.0663 71.067C60.7386 70.7363 60.5231 70.3525 60.399 69.9775C60.2721 69.6025 60.2603 69.2423 60.2691 68.9322C60.275 68.6281 60.2809 68.3624 60.2839 68.138C60.2898 67.9372 60.2957 67.7748 60.2987 67.6449C60.3075 67.5386 60.3105 67.4825 60.3134 67.4854Z" stroke="#263238" stroke-width="0.2" stroke-miterlimit="10"/>
<path d="M53.0766 67.3321C53.0795 67.3351 53.0855 67.4 53.0884 67.5152C53.0914 67.6451 53.0973 67.8104 53.1032 68.0142C53.1091 68.2327 53.112 68.4925 53.1179 68.7907C53.1179 69.0889 53.1356 69.4374 53.2656 69.7946C53.3896 70.1489 53.6022 70.5151 53.9181 70.8251C54.237 71.1292 54.6533 71.3831 55.1375 71.4953C55.3797 71.5514 55.6336 71.581 55.8934 71.5603C56.1533 71.5485 56.416 71.4953 56.667 71.3979C57.1719 71.2119 57.6296 70.8487 57.9396 70.3674C58.2349 69.9098 58.3677 69.3753 58.3559 68.8557C58.3559 68.3272 58.3589 67.8164 58.3589 67.3292L58.4297 67.4C56.8826 67.3853 55.5598 67.3735 54.5972 67.3646C54.1366 67.3557 53.7646 67.3498 53.4841 67.3439C53.366 67.341 53.2656 67.338 53.1829 67.3351C53.115 67.338 53.0795 67.3351 53.0766 67.3321C53.0707 67.3262 53.2036 67.3203 53.4575 67.3144C53.7321 67.3085 54.0982 67.3026 54.5529 67.2937C55.5243 67.2849 56.8648 67.2731 58.4327 67.2583H58.5036V67.3292C58.5036 67.8164 58.5065 68.3272 58.5065 68.8557C58.5242 69.3931 58.3825 69.9688 58.0695 70.4501C57.7418 70.958 57.2546 71.3448 56.7202 71.5367C56.4544 71.64 56.1769 71.6932 55.9023 71.705C55.6277 71.7227 55.359 71.6932 55.1051 71.6312C54.5943 71.5101 54.1573 71.2385 53.8295 70.9137C53.5018 70.583 53.2862 70.1991 53.1622 69.8241C53.0353 69.4492 53.0234 69.0889 53.0323 68.7789C53.0382 68.4748 53.0441 68.2091 53.0471 67.9847C53.053 67.7839 53.0589 67.6215 53.0618 67.4916C53.0677 67.3853 53.0707 67.3292 53.0766 67.3321Z" fill="#263238"/>
<path d="M53.0766 67.3321C53.0795 67.3351 53.0855 67.4 53.0884 67.5152C53.0914 67.6451 53.0973 67.8104 53.1032 68.0142C53.1091 68.2327 53.112 68.4925 53.1179 68.7907C53.1179 69.0889 53.1356 69.4374 53.2656 69.7946C53.3896 70.1489 53.6022 70.5151 53.9181 70.8251C54.237 71.1292 54.6533 71.3831 55.1375 71.4953C55.3797 71.5514 55.6336 71.581 55.8934 71.5603C56.1533 71.5485 56.416 71.4953 56.667 71.3979C57.1719 71.2119 57.6296 70.8487 57.9396 70.3674C58.2349 69.9098 58.3677 69.3753 58.3559 68.8557C58.3559 68.3272 58.3589 67.8164 58.3589 67.3292L58.4297 67.4C56.8826 67.3853 55.5598 67.3735 54.5972 67.3646C54.1366 67.3557 53.7646 67.3498 53.4841 67.3439C53.366 67.341 53.2656 67.338 53.1829 67.3351C53.115 67.338 53.0795 67.3351 53.0766 67.3321ZM53.0766 67.3321C53.0707 67.3262 53.2036 67.3203 53.4575 67.3144C53.7321 67.3085 54.0982 67.3026 54.5529 67.2937C55.5243 67.2849 56.8648 67.2731 58.4327 67.2583H58.5036V67.3292C58.5036 67.8164 58.5065 68.3272 58.5065 68.8557C58.5242 69.3931 58.3825 69.9688 58.0695 70.4501C57.7418 70.958 57.2546 71.3448 56.7202 71.5367C56.4544 71.64 56.1769 71.6932 55.9023 71.705C55.6277 71.7227 55.359 71.6932 55.1051 71.6312C54.5943 71.5101 54.1573 71.2385 53.8295 70.9137C53.5018 70.583 53.2862 70.1991 53.1622 69.8241C53.0353 69.4492 53.0234 69.0889 53.0323 68.7789C53.0382 68.4748 53.0441 68.2091 53.0471 67.9847C53.053 67.7839 53.0589 67.6215 53.0618 67.4916C53.0677 67.3853 53.0707 67.3292 53.0766 67.3321Z" stroke="#263238" stroke-width="0.2" stroke-miterlimit="10"/>
<path d="M60.3784 67.7013C60.3784 67.7426 59.9207 67.7781 59.3597 67.7781C58.7958 67.7781 58.3411 67.7426 58.3411 67.7013C58.3411 67.6599 58.7987 67.6245 59.3597 67.6245C59.9237 67.6245 60.3784 67.6599 60.3784 67.7013Z" fill="#263238" stroke="#263238" stroke-width="0.2" stroke-miterlimit="10"/>
<path d="M47.4312 67.7426C47.4312 67.7012 48.6949 67.6629 50.2539 67.6569C51.8129 67.651 53.0766 67.6835 53.0766 67.7249C53.0766 67.7662 51.8129 67.8046 50.2539 67.8105C48.6949 67.8134 47.4312 67.7839 47.4312 67.7426Z" fill="#263238" stroke="#263238" stroke-width="0.2" stroke-miterlimit="10"/>
<path d="M104.16 71.4098L95.3703 68.2534L86.6659 71.3685C85.5557 71.894 84.5813 72.207 84.5813 73.2434V78.3987C84.5813 81.9773 85.5202 85.5264 87.4483 88.6562C89.0723 91.2899 91.585 94.0034 95.4559 95.7277C99.0138 94.5733 101.668 91.4907 103.292 88.857C105.22 85.7242 106.159 82.1781 106.159 78.5995V73.9638C106.162 72.4846 105.38 71.7641 104.16 71.4098Z" fill="#92E3A9" stroke="#263238" stroke-width="0.5" stroke-miterlimit="10" stroke-linecap="round" stroke-linejoin="round"/>
<path d="M95.4559 92.7338C92.394 91.3697 90.4039 89.1758 89.1195 87.0913C87.593 84.614 86.8519 81.809 86.8519 78.9745V75.3604C86.8519 74.5425 87.345 73.7749 88.3282 73.3172L95.3732 70.6834L95.3703 68.2534L86.6659 71.3685C85.7535 71.7671 84.5813 72.207 84.5813 73.2434V78.3987C84.5813 81.9773 85.5202 85.5264 87.4483 88.6562C89.0723 91.2899 91.585 94.0034 95.4559 95.7277V92.7338Z" fill="#92E3A9" stroke="#263238" stroke-width="0.5" stroke-miterlimit="10" stroke-linecap="round" stroke-linejoin="round"/>
<path d="M95.456 95.7248C96.0731 95.5181 96.64 95.2819 97.1833 94.9837C98.6419 94.1894 99.8879 93.097 100.839 92.1078C101.902 91.0035 102.693 89.8077 103.381 88.6916C105.309 85.5589 106.248 82.0127 106.162 78.3367L106.168 74.0819C106.162 71.9619 105.076 71.8054 104.163 71.4068L95.3704 68.2534L95.3733 70.6834L102.501 73.3615C103.481 73.8191 103.977 74.5868 103.977 75.4047V79.0187C103.977 81.8503 103.236 84.6553 101.71 87.1356C100.425 89.2201 98.5208 91.3697 95.4589 92.7338V95.7248H95.456Z" fill="#799093" stroke="#263238" stroke-width="0.5" stroke-miterlimit="10"/>
<path opacity="0.5" d="M97.7029 78.7473L97.7118 78.0505C97.7118 76.7926 96.6872 75.7681 95.4294 75.7681C94.1715 75.7681 93.147 76.7926 93.147 78.0475L93.1381 78.7561C92.521 78.8477 92.0486 79.3762 92.0486 80.0169V84.1211C92.0486 84.8268 92.6214 85.3996 93.3241 85.3996H97.5848C98.2905 85.3996 98.8633 84.8268 98.8633 84.1211V80.0169C98.8633 79.3496 98.3525 78.8063 97.7029 78.7473ZM96.0406 83.0995H94.9274L95.1016 82.2964C94.9097 82.1753 94.7798 81.9627 94.7798 81.7206C94.7798 81.3456 95.0839 81.0415 95.4589 81.0415C95.8339 81.0415 96.138 81.3456 96.138 81.7206C96.138 81.9568 96.0199 82.1635 95.8368 82.2846C95.9136 82.5946 96.0406 83.0995 96.0406 83.0995ZM97.2128 78.7414H93.6312L93.6401 78.0505C93.6401 77.0643 94.4432 76.2612 95.4294 76.2612C96.4155 76.2612 97.2187 77.0643 97.2187 78.0475L97.2128 78.7414Z" fill="white"/>
<path d="M88.278 78.6968C88.2574 78.6997 88.1983 78.4281 88.1452 77.9822C88.092 77.5364 88.0536 76.9163 88.0743 76.2313C88.0832 75.8888 88.1068 75.564 88.1363 75.2687C88.1658 74.9735 88.219 74.6989 88.3341 74.4922C88.4463 74.2855 88.6028 74.1615 88.718 74.1054C88.8361 74.0493 88.9128 74.0522 88.9128 74.0611C88.9276 74.0818 88.6146 74.1408 88.4316 74.5424C88.34 74.7343 88.2987 74.9912 88.278 75.2835C88.2544 75.5758 88.2367 75.8977 88.2278 76.2372C88.2072 76.9163 88.2278 77.5305 88.2544 77.9734C88.278 78.4162 88.2987 78.6938 88.278 78.6968Z" fill="white"/>
<path d="M88.405 80.938C88.3636 80.938 88.3253 80.7284 88.3194 80.4656C88.3134 80.2028 88.343 79.9902 88.3873 79.9902C88.4286 79.9902 88.467 80.1999 88.4729 80.4627C88.4788 80.7254 88.4493 80.938 88.405 80.938Z" fill="white"/>
<path d="M79.1338 102.194L69.331 126.432H51.6594V127.525H104.296L115.064 102.194H79.1338Z" fill="#263238"/>
<path d="M94.1126 116.503C93.7582 117.722 92.7219 118.493 91.8036 118.227C90.8824 117.958 90.4247 116.754 90.779 115.534C91.1334 114.315 92.1668 113.544 93.088 113.81C94.0092 114.078 94.4698 115.283 94.1126 116.503Z" fill="#FAFAFA"/>
</g>
<defs>
<clipPath id="clip0_3_2160">
<rect width="142.167" height="128" fill="white"/>
</clipPath>
</defs>
</svg>
