<svg width="195" height="128" viewBox="0 0 195 128" fill="none" xmlns="http://www.w3.org/2000/svg">
<g clip-path="url(#clip0_3_2018)">
<path d="M148.425 0.00850721C126.944 0.569499 117.372 14.1604 89.4906 19.8836C61.0983 22.0944 48.0435 11.6954 27.262 17.0925C4.90523 22.9014 -6.80098 55.6461 4.17014 84.8122C15.1412 113.978 49.5994 125.806 65.4978 123.183C78.2017 121.089 88.4018 114.091 102.659 110.549C117.352 110.007 129.136 113.906 141.925 112.406C157.929 110.529 187.639 89.6538 189.867 58.6252C192.094 27.5966 171.536 -0.593937 148.425 0.00850721Z" fill="#92E3A9"/>
<path opacity="0.7" d="M148.425 0.00850721C126.944 0.569499 117.372 14.1604 89.4906 19.8836C61.0983 22.0944 48.0435 11.6954 27.262 17.0925C4.90523 22.9014 -6.80097 55.6461 4.17014 84.8122C15.1412 113.978 49.5994 125.806 65.4978 123.183C78.2017 121.089 88.4017 114.091 102.659 110.549C117.352 110.007 129.136 113.906 141.925 112.406C157.929 110.529 187.639 89.6538 189.867 58.6252C192.094 27.5966 171.536 -0.593937 148.425 0.00850721Z" fill="#D2EEEA"/>
<path d="M15.998 124.192H185.583" stroke="#263238" stroke-miterlimit="10"/>
<path d="M7.19067 124.192H11.756" stroke="#263238" stroke-miterlimit="10"/>
<path d="M151.332 84.7127C151.332 84.7127 156.298 92.6494 158.376 100.324C159.852 105.782 159.918 116.612 159.918 116.612C159.918 116.612 160.018 84.4778 167.413 72.0337" stroke="#263238" stroke-miterlimit="10" stroke-linecap="round" stroke-linejoin="round"/>
<path d="M171.404 44.2163C171.404 44.2163 164.243 55.7208 162.248 67.6923C160.253 79.6665 159.783 109.363 159.783 109.363C159.667 103.143 158.727 80.3685 156.732 70.5083C154.737 60.6481 151.097 53.4879 151.097 53.4879" stroke="#263238" stroke-miterlimit="10" stroke-linecap="round" stroke-linejoin="round"/>
<path d="M152.65 56.9808C152.65 56.9808 158.642 57.2572 161.441 52.7582C164.238 48.2592 162.4 43.9592 159.769 43.6441C157.138 43.3291 155.997 46.5817 155.022 45.0231C154.046 43.4617 157.818 40.5241 153.593 37.8214C149.365 35.1187 147.394 38.9959 146.054 37.6114C144.714 36.2269 145.678 32.6067 142.887 31.0177C140.096 29.4287 138.791 31.4073 137.247 31.4737C135.702 31.54 130.835 28.9174 128.895 30.9762C126.955 33.035 131.601 38.0149 129.418 38.1641C127.234 38.3106 126.35 42.5664 128.122 45.3216C129.896 48.0768 135.602 49.1656 134.489 50.6026C133.375 52.0397 127.925 51.9512 130.144 55.168C132.364 58.3847 139.902 58.5947 140.988 58.9761C142.072 59.3574 137.517 60.192 138.286 63.2042C139.057 66.2137 145.319 66.5868 149.348 64.6523C153.377 62.7178 152.65 56.9808 152.65 56.9808Z" fill="#92E3A9"/>
<path d="M135.359 36.6914C135.359 36.6914 148.088 45.0123 152.65 56.9811" stroke="#263238" stroke-miterlimit="10" stroke-linecap="round" stroke-linejoin="round"/>
<path d="M134.735 42.5196L143.268 43.3514L141.187 36.2769" stroke="#263238" stroke-miterlimit="10" stroke-linecap="round" stroke-linejoin="round"/>
<path d="M141.605 52.302H150.136L150.76 44.6001" stroke="#263238" stroke-miterlimit="10" stroke-linecap="round" stroke-linejoin="round"/>
<path d="M170.204 46.7863C170.204 46.7863 165.34 47.0101 163.069 43.3596C160.797 39.709 162.292 36.2159 164.426 35.9617C166.562 35.7074 167.488 38.3466 168.278 37.0809C169.068 35.8152 166.006 33.4303 169.439 31.2361C172.871 29.0418 174.471 32.1895 175.557 31.0647C176.646 29.94 175.861 27.0024 178.127 25.7118C180.393 24.4213 181.452 26.0269 182.706 26.0821C183.961 26.1346 187.91 24.0067 189.485 25.6787C191.06 27.3506 187.291 31.3936 189.062 31.5124C190.834 31.6312 191.552 35.0856 190.115 37.3241C188.675 39.5597 184.044 40.4441 184.947 41.6103C185.851 42.7765 190.275 42.7046 188.474 45.3161C186.672 47.9276 180.551 48.099 179.672 48.4057C178.79 48.7152 182.491 49.3923 181.866 51.838C181.242 54.2809 176.157 54.5849 172.885 53.0125C169.613 51.4428 170.204 46.7863 170.204 46.7863Z" fill="#92E3A9"/>
<path d="M184.24 30.3159C184.24 30.3159 173.907 37.0699 170.204 46.7864" stroke="#263238" stroke-miterlimit="10" stroke-linecap="round" stroke-linejoin="round"/>
<path d="M184.746 35.0468L177.82 35.7238L179.509 29.9785" stroke="#263238" stroke-miterlimit="10" stroke-linecap="round" stroke-linejoin="round"/>
<path d="M179.172 42.9893H172.244L171.738 36.7383" stroke="#263238" stroke-miterlimit="10" stroke-linecap="round" stroke-linejoin="round"/>
<path d="M154.289 90.3477C154.289 90.3477 158.235 90.53 160.079 87.5676C161.922 84.6051 160.709 81.7725 158.979 81.5652C157.246 81.358 156.494 83.4997 155.853 82.4717C155.212 81.4436 157.697 79.5092 154.911 77.7295C152.128 75.9498 150.829 78.5033 149.948 77.5913C149.063 76.6794 149.702 74.2972 147.864 73.2498C146.026 72.2025 145.167 73.5069 144.15 73.5483C143.133 73.5925 139.927 71.8653 138.65 73.2222C137.371 74.5791 140.433 77.8594 138.993 77.9561C137.556 78.0528 136.973 80.855 138.139 82.6706C139.308 84.4835 143.067 85.202 142.331 86.1471C141.599 87.0922 138.009 87.037 139.471 89.1538C140.933 91.2707 145.899 91.4116 146.612 91.6603C147.325 91.9118 144.327 92.4617 144.832 94.4432C145.338 96.4246 149.464 96.6706 152.117 95.3966C154.767 94.1254 154.289 90.3477 154.289 90.3477Z" fill="#92E3A9"/>
<path d="M142.904 76.9863C142.904 76.9863 151.285 82.4664 154.289 90.3479" stroke="#263238" stroke-miterlimit="10" stroke-linecap="round" stroke-linejoin="round"/>
<path d="M142.492 80.8245L148.113 81.3717L146.742 76.7124" stroke="#263238" stroke-miterlimit="10" stroke-linecap="round" stroke-linejoin="round"/>
<path d="M147.016 87.2663H152.634L153.046 82.1953" stroke="#263238" stroke-miterlimit="10" stroke-linecap="round" stroke-linejoin="round"/>
<path d="M165.992 74.8939C165.992 74.8939 160.048 74.0952 158.1 69.1679C156.152 64.2406 158.73 60.3413 161.375 60.5015C164.019 60.6618 164.561 64.0665 165.799 62.7068C167.037 61.3472 163.851 57.7795 168.493 55.8782C173.136 53.9769 174.38 58.1415 175.949 57.0195C177.516 55.8975 177.212 52.164 180.244 51.1001C183.275 50.0361 184.204 52.2165 185.713 52.5565C187.222 52.8991 192.478 51.1885 194.02 53.5624C195.562 55.9362 190.099 60.0041 192.221 60.5402C194.343 61.0763 194.451 65.4206 192.215 67.8138C189.977 70.207 184.168 70.2595 185.005 71.8706C185.843 73.4817 191.223 74.3716 188.463 77.1378C185.702 79.9041 178.249 78.7628 177.113 78.9452C175.977 79.1248 180.31 80.7635 179.014 83.5879C177.718 86.4122 171.489 85.6577 167.872 83.0352C164.251 80.4071 165.992 74.8939 165.992 74.8939Z" fill="#92E3A9"/>
<path d="M186.633 58.0254C186.633 58.0254 172.622 63.9338 165.992 74.8938" stroke="#263238" stroke-miterlimit="10" stroke-linecap="round" stroke-linejoin="round"/>
<path d="M186.208 63.8702L177.663 63.1627L180.976 56.5718" stroke="#263238" stroke-miterlimit="10" stroke-linecap="round" stroke-linejoin="round"/>
<path d="M177.699 72.2658L169.303 70.7403L170.066 63.0522" stroke="#263238" stroke-miterlimit="10" stroke-linecap="round" stroke-linejoin="round"/>
<path d="M150.18 101.534C149.754 102.678 149.511 112.414 149.511 113.707C149.511 122.269 154.234 124.256 160.059 124.256C165.885 124.256 170.608 122.727 170.608 113.707C170.608 112.414 170.364 102.678 169.939 101.534H150.18Z" fill="#263238" stroke="#263238" stroke-miterlimit="10" stroke-linecap="round" stroke-linejoin="round"/>
<path d="M14.6299 102.606V107.102" stroke="#263238" stroke-width="0.5" stroke-miterlimit="10"/>
<path d="M16.8794 104.853H12.3804" stroke="#263238" stroke-width="0.5" stroke-miterlimit="10"/>
<path d="M100.448 94.7607V97.5325" stroke="#263238" stroke-width="0.5" stroke-miterlimit="10"/>
<path d="M101.835 96.145H99.0632" stroke="#263238" stroke-width="0.5" stroke-miterlimit="10"/>
<path d="M115.1 0.91748V3.68928" stroke="#263238" stroke-width="0.5" stroke-miterlimit="10"/>
<path d="M116.484 2.30176H113.713" stroke="#263238" stroke-width="0.5" stroke-miterlimit="10"/>
<path d="M171.837 93.7822V96.5568" stroke="#263238" stroke-width="0.5" stroke-miterlimit="10"/>
<path d="M173.222 95.1694H170.45" stroke="#263238" stroke-width="0.5" stroke-miterlimit="10"/>
<path d="M113.34 107.929V114.658" stroke="#263238" stroke-width="0.5" stroke-miterlimit="10"/>
<path d="M116.703 111.294H109.974" stroke="#263238" stroke-width="0.5" stroke-miterlimit="10"/>
<path d="M10.4902 11.1118V17.8409" stroke="#263238" stroke-width="0.5" stroke-miterlimit="10"/>
<path d="M13.8561 14.4751H7.12695" stroke="#263238" stroke-width="0.5" stroke-miterlimit="10"/>
<path d="M34.3033 98.0269C34.9733 98.0269 35.5164 97.4838 35.5164 96.8138C35.5164 96.1437 34.9733 95.6006 34.3033 95.6006C33.6332 95.6006 33.0901 96.1437 33.0901 96.8138C33.0901 97.4838 33.6332 98.0269 34.3033 98.0269Z" stroke="#263238" stroke-width="0.5" stroke-miterlimit="10"/>
<path d="M9.82968 64.1214C9.82968 64.7929 9.28527 65.3346 8.6165 65.3346C7.94497 65.3346 7.40332 64.7901 7.40332 64.1214C7.40332 63.4498 7.94773 62.9082 8.6165 62.9082C9.28527 62.9082 9.82968 63.4526 9.82968 64.1214Z" stroke="#263238" stroke-width="0.5" stroke-miterlimit="10"/>
<path d="M34.3946 111.107C34.8067 111.107 35.1407 110.772 35.1407 110.36C35.1407 109.948 34.8067 109.614 34.3946 109.614C33.9825 109.614 33.6484 109.948 33.6484 110.36C33.6484 110.772 33.9825 111.107 34.3946 111.107Z" stroke="#263238" stroke-width="0.5" stroke-miterlimit="10"/>
<path d="M48.9664 98.027C49.3784 98.027 49.7125 97.6929 49.7125 97.2808C49.7125 96.8687 49.3784 96.5347 48.9664 96.5347C48.5543 96.5347 48.2202 96.8687 48.2202 97.2808C48.2202 97.6929 48.5543 98.027 48.9664 98.027Z" stroke="#263238" stroke-width="0.5" stroke-miterlimit="10"/>
<path d="M78.8565 4.8087C79.2686 4.8087 79.6026 4.47464 79.6026 4.06255C79.6026 3.65047 79.2686 3.31641 78.8565 3.31641C78.4444 3.31641 78.1104 3.65047 78.1104 4.06255C78.1104 4.47464 78.4444 4.8087 78.8565 4.8087Z" stroke="#263238" stroke-width="0.5" stroke-miterlimit="10"/>
<path d="M118.742 104.753C119.206 104.753 119.582 104.377 119.582 103.913C119.582 103.449 119.206 103.073 118.742 103.073C118.278 103.073 117.902 103.449 117.902 103.913C117.902 104.377 118.278 104.753 118.742 104.753Z" stroke="#263238" stroke-width="0.5" stroke-miterlimit="10"/>
<path d="M182.151 90.2037C182.615 90.2037 182.991 89.8275 182.991 89.3635C182.991 88.8996 182.615 88.5234 182.151 88.5234C181.687 88.5234 181.311 88.8996 181.311 89.3635C181.311 89.8275 181.687 90.2037 182.151 90.2037Z" stroke="#263238" stroke-width="0.5" stroke-miterlimit="10"/>
<path d="M159.653 18.9136C160.117 18.9136 160.493 18.5375 160.493 18.0735C160.493 17.6095 160.117 17.2334 159.653 17.2334C159.189 17.2334 158.813 17.6095 158.813 18.0735C158.813 18.5375 159.189 18.9136 159.653 18.9136Z" stroke="#263238" stroke-width="0.5" stroke-miterlimit="10"/>
<path d="M6.01766 41.2548C7.06881 40.2037 7.06881 38.4994 6.01766 37.4483C4.96652 36.3971 3.26228 36.3971 2.21113 37.4483C1.15998 38.4994 1.15998 40.2037 2.21113 41.2548C3.26227 42.306 4.96652 42.306 6.01766 41.2548Z" stroke="#263238" stroke-width="0.5" stroke-miterlimit="10"/>
<path d="M167.582 28.0826C167.922 26.6354 167.025 25.1865 165.578 24.8464C164.13 24.5063 162.682 25.4037 162.341 26.8509C162.001 28.298 162.899 29.7469 164.346 30.087C165.793 30.4272 167.242 29.5297 167.582 28.0826Z" stroke="#263238" stroke-width="0.5" stroke-miterlimit="10"/>
<path d="M142.328 103.797C142.567 102.33 141.572 100.947 140.104 100.708C138.637 100.469 137.254 101.465 137.015 102.932C136.776 104.399 137.772 105.783 139.239 106.021C140.706 106.26 142.09 105.265 142.328 103.797Z" stroke="#263238" stroke-width="0.5" stroke-miterlimit="10"/>
<path d="M40.1354 5.01112C40.477 3.5644 39.5812 2.11467 38.1344 1.77306C36.6877 1.43145 35.238 2.32732 34.8964 3.77404C34.5548 5.22076 35.4506 6.67049 36.8973 7.0121C38.3441 7.35371 39.7938 6.45784 40.1354 5.01112Z" stroke="#263238" stroke-width="0.5" stroke-miterlimit="10"/>
<path d="M86.8459 80.3184H76.0461V123.885H86.8459V80.3184Z" fill="#263238" stroke="#263238" stroke-miterlimit="10" stroke-linecap="round" stroke-linejoin="round"/>
<path d="M152.333 8.45361H16.0476V91.1183H152.333V8.45361Z" fill="#263238" stroke="#263238" stroke-width="0.25" stroke-miterlimit="10" stroke-linecap="round" stroke-linejoin="round"/>
<path d="M149.588 8.45361H13.3035V91.1183H149.588V8.45361Z" fill="#799093" stroke="#263238" stroke-width="0.25" stroke-miterlimit="10"/>
<path d="M144.678 11.4326H18.2141V88.1392H144.678V11.4326Z" fill="white" stroke="#263238" stroke-miterlimit="10" stroke-linecap="round" stroke-linejoin="round"/>
<path d="M144.678 83.5186H18.2141V88.1391H144.678V83.5186Z" fill="white" stroke="#263238" stroke-miterlimit="10" stroke-linecap="round" stroke-linejoin="round"/>
<path d="M82.0345 119L41.9968 121.586V124.192H120.895V121.586L82.0345 119Z" fill="#263238" stroke="#263238" stroke-miterlimit="10" stroke-linecap="round" stroke-linejoin="round"/>
<path d="M144.678 11.4326H18.2141V88.1392H144.678V11.4326Z" fill="white" stroke="#263238" stroke-miterlimit="10" stroke-linecap="round" stroke-linejoin="round"/>
<path d="M144.678 73.874H18.2141V88.1392H144.678V73.874Z" fill="#C2C2C2" stroke="#263238" stroke-width="0.5" stroke-miterlimit="10" stroke-linecap="round" stroke-linejoin="round"/>
<path d="M131.866 77.3447H29.8347V81.5314H131.866V77.3447Z" fill="#E8E8E8" stroke="#263238" stroke-width="0.25" stroke-miterlimit="10" stroke-linecap="round" stroke-linejoin="round"/>
<path d="M131.866 78.6631H29.8347V80.2189H131.866V78.6631Z" fill="#92E3A9" stroke="#263238" stroke-width="0.25" stroke-miterlimit="10" stroke-linecap="round" stroke-linejoin="round"/>
<path d="M28.5525 79.3981L23.5671 76.5186V82.2749L28.5525 79.3981Z" fill="#92E3A9" stroke="#263238" stroke-width="0.25" stroke-miterlimit="10" stroke-linecap="round" stroke-linejoin="round"/>
<path d="M144.678 11.4326H142.085V88.1392H144.678V11.4326Z" fill="#E8E8E8" stroke="#263238" stroke-width="0.5" stroke-miterlimit="10" stroke-linecap="round" stroke-linejoin="round"/>
<path d="M144.678 26.2339H142.085V66.8242H144.678V26.2339Z" fill="#C2C2C2" stroke="#263238" stroke-width="0.5" stroke-miterlimit="10" stroke-linecap="round" stroke-linejoin="round"/>
<path d="M144.678 11.4326H18.2141V14.3868H144.678V11.4326Z" fill="black" stroke="#263238" stroke-miterlimit="10" stroke-linecap="round" stroke-linejoin="round"/>
<path d="M144.678 85.9146H18.2141V88.1392H144.678V85.9146Z" fill="black" stroke="#263238" stroke-miterlimit="10" stroke-linecap="round" stroke-linejoin="round"/>
<path d="M112.394 60.5704H49.2871C47.7727 60.5704 46.5457 59.3434 46.5457 57.829V43.923C46.5457 42.4086 47.7727 41.1816 49.2871 41.1816H112.394C113.909 41.1816 115.136 42.4086 115.136 43.923V57.829C115.133 59.3434 113.906 60.5704 112.394 60.5704Z" fill="white" stroke="#263238" stroke-miterlimit="10"/>
<path d="M52.8712 55.8778C52.2494 55.8778 51.7327 55.7452 51.3209 55.4799C50.9091 55.2146 50.5969 54.847 50.3841 54.3745C50.1713 53.9047 50.0469 53.3575 50.011 52.7385L51.3402 52.3792C51.3679 52.7606 51.4259 53.1281 51.5199 53.4846C51.6138 53.8384 51.7658 54.1285 51.9786 54.3551C52.1914 54.5817 52.4899 54.6951 52.8712 54.6951C53.2609 54.6951 53.5566 54.5873 53.7555 54.369C53.9545 54.1506 54.054 53.8384 54.054 53.4321C54.054 52.9458 53.9435 52.5506 53.7224 52.2549C53.5013 51.9592 53.2222 51.658 52.885 51.3567L51.0749 49.7594C50.7212 49.4499 50.4587 49.11 50.2901 48.7425C50.1215 48.3749 50.0359 47.9189 50.0359 47.3773C50.0359 46.5869 50.2625 45.9762 50.7157 45.5423C51.1689 45.1085 51.7852 44.8901 52.5645 44.8901C52.99 44.8901 53.3659 44.9454 53.6892 45.0559C54.0125 45.1665 54.2834 45.3378 54.5017 45.5672C54.72 45.7966 54.8913 46.0895 55.0212 46.4377C55.1483 46.7887 55.2368 47.1977 55.281 47.6675L54.0042 48.0129C53.9766 47.6592 53.9241 47.3331 53.844 47.0346C53.7638 46.7362 53.6257 46.4985 53.4239 46.3161C53.2249 46.1337 52.9375 46.0425 52.5645 46.0425C52.1914 46.0425 51.9012 46.142 51.694 46.341C51.4867 46.5399 51.3817 46.8356 51.3817 47.2253C51.3817 47.5542 51.437 47.825 51.5475 48.0378C51.658 48.2506 51.8377 48.4689 52.0864 48.69L53.9103 50.2873C54.3193 50.641 54.6785 51.0666 54.9881 51.5585C55.2976 52.0504 55.4551 52.6335 55.4551 53.3078C55.4551 53.8411 55.3445 54.2999 55.1235 54.684C54.9024 55.0709 54.5984 55.3638 54.2115 55.5683C53.8219 55.7756 53.3769 55.8778 52.8712 55.8778Z" fill="#799093" stroke="#263238" stroke-width="0.3" stroke-miterlimit="10"/>
<path d="M57.8068 55.7591V46.0979H55.9829V44.9814H61.0788V46.0979H59.3102V55.7591H57.8068Z" fill="#799093" stroke="#263238" stroke-width="0.3" stroke-miterlimit="10"/>
<path d="M61.5071 55.7591L63.7953 44.9814H65.2461L67.5481 55.7591H66.1249L65.633 53.0453H63.4388L62.9192 55.7591H61.5071ZM63.635 51.9648H65.4313L64.5276 47.1093L63.635 51.9648Z" fill="#799093" stroke="#263238" stroke-width="0.3" stroke-miterlimit="10"/>
<path d="M68.637 55.7591V44.9814H70.8063C71.5248 44.9814 72.119 45.0782 72.5888 45.2688C73.0586 45.4595 73.4068 45.7663 73.6334 46.1863C73.86 46.6064 73.9733 47.1591 73.9733 47.8417C73.9733 48.259 73.9291 48.6376 73.8406 48.9802C73.7522 49.3229 73.6085 49.6103 73.4151 49.8452C73.2189 50.0801 72.9618 50.2514 72.644 50.3565L74.175 55.7591H72.7242L71.3148 50.7019H70.1431V55.7591H68.637ZM70.1403 49.6241H70.7124C71.1379 49.6241 71.4834 49.5716 71.7514 49.4639C72.0167 49.3561 72.2129 49.1764 72.3373 48.9194C72.4617 48.6624 72.5224 48.3032 72.5224 47.8417C72.5224 47.2116 72.4064 46.7584 72.177 46.4793C71.9476 46.2002 71.4889 46.0592 70.8063 46.0592H70.1403V49.6241V49.6241Z" fill="#799093" stroke="#263238" stroke-width="0.3" stroke-miterlimit="10"/>
<path d="M76.7285 55.7591V46.0979H74.9045V44.9814H80.0004V46.0979H78.2318V55.7591H76.7285Z" fill="#799093" stroke="#263238" stroke-width="0.3" stroke-miterlimit="10"/>
<path d="M84.085 55.7591V44.9814H86.4256C87.2243 44.9814 87.8571 45.103 88.3214 45.3462C88.7885 45.5894 89.1201 45.957 89.319 46.4433C89.518 46.9325 89.6175 47.5377 89.6175 48.2673V52.2329C89.6175 52.9956 89.518 53.6395 89.319 54.1618C89.1201 54.6841 88.7967 55.0821 88.3491 55.3529C87.9014 55.6237 87.2989 55.7591 86.5472 55.7591H84.085V55.7591ZM85.5883 54.6813H86.4395C86.9894 54.6813 87.3791 54.5736 87.6112 54.3608C87.8406 54.148 87.9815 53.8385 88.0312 53.4295C88.081 53.0205 88.1031 52.5286 88.1031 51.9538V48.4552C88.1031 47.8969 88.0672 47.4437 87.9981 47.0983C87.9262 46.7528 87.7715 46.4986 87.5311 46.3411C87.2906 46.1808 86.9148 46.1007 86.4008 46.1007H85.5883V54.6813Z" fill="#799093" stroke="#263238" stroke-width="0.3" stroke-miterlimit="10"/>
<path d="M91.0989 55.7591V44.9814H95.2773V46.0979H92.6022V49.6628H94.7716V50.7268H92.6022V54.6786H95.3022V55.7563H91.0989V55.7591Z" fill="#799093" stroke="#263238" stroke-width="0.3" stroke-miterlimit="10"/>
<path d="M96.4875 55.7591L96.6865 44.9814H98.1622L100.066 53.7224L101.981 44.9814H103.446L103.645 55.7591H102.435L102.316 47.9356L100.492 55.7591H99.6407L97.8306 47.9356L97.7118 55.7591H96.4875Z" fill="#799093" stroke="#263238" stroke-width="0.3" stroke-miterlimit="10"/>
<path d="M108.05 55.878C107.323 55.878 106.74 55.737 106.306 55.4524C105.872 55.1678 105.56 54.7615 105.375 54.2337C105.19 53.7059 105.096 53.0868 105.096 52.3766V48.2922C105.096 47.5819 105.19 46.974 105.383 46.4627C105.574 45.9515 105.884 45.5618 106.315 45.291C106.746 45.0202 107.323 44.8848 108.05 44.8848C108.777 44.8848 109.355 45.0229 109.78 45.2965C110.206 45.5729 110.515 45.9625 110.706 46.4683C110.897 46.974 110.993 47.5819 110.993 48.2922V52.3904C110.993 53.0924 110.897 53.7031 110.706 54.2254C110.515 54.7477 110.206 55.1539 109.78 55.4441C109.355 55.7343 108.777 55.878 108.05 55.878ZM108.05 54.6924C108.448 54.6924 108.752 54.6095 108.954 54.4465C109.158 54.2834 109.296 54.0513 109.366 53.7556C109.437 53.4599 109.473 53.1117 109.473 52.711V47.9882C109.473 47.5902 109.437 47.2448 109.366 46.9574C109.294 46.67 109.158 46.4461 108.954 46.2914C108.749 46.1366 108.448 46.0593 108.05 46.0593C107.652 46.0593 107.348 46.1366 107.138 46.2914C106.931 46.4461 106.79 46.6672 106.718 46.9574C106.646 47.2448 106.61 47.5902 106.61 47.9882V52.711C106.61 53.109 106.646 53.4599 106.718 53.7556C106.79 54.0541 106.928 54.2834 107.138 54.4465C107.345 54.6123 107.649 54.6924 108.05 54.6924Z" fill="#799093" stroke="#263238" stroke-width="0.3" stroke-miterlimit="10"/>
<path d="M78.9588 38.1446C84.6715 38.1446 89.3026 33.5136 89.3026 27.8008C89.3026 22.0881 84.6715 17.457 78.9588 17.457C73.2461 17.457 68.615 22.0881 68.615 27.8008C68.615 33.5136 73.2461 38.1446 78.9588 38.1446Z" fill="#799093" stroke="#263238" stroke-width="0.75" stroke-miterlimit="10"/>
<path d="M66.9846 27.066L67.366 30.6171C67.4406 31.3218 68.1066 31.8109 68.803 31.6672C71.3289 31.1504 76.9719 30.0837 80.4236 30.1417C84.975 30.2164 89.0927 32.5156 89.0927 32.5156L89.0512 30.443C88.9849 27.2401 88.4958 24.062 87.5949 20.989L86.9979 18.9551C86.9979 18.9551 83.8089 22.4896 79.1606 23.9653C75.662 25.0762 70.4556 25.5626 68.0956 25.734C67.413 25.7865 66.91 26.3889 66.9846 27.066Z" fill="white" stroke="#263238" stroke-miterlimit="10" stroke-linecap="round" stroke-linejoin="round"/>
<path d="M87.0698 20.0108L87.0394 19.9058C87.0394 19.9058 83.795 23.3878 79.1219 24.7916C78.8704 24.8663 78.6079 24.9409 78.3398 25.01" stroke="#263238" stroke-miterlimit="10"/>
<path d="M77.287 25.2559C76.4939 25.4272 75.6648 25.5737 74.833 25.7008" stroke="#263238" stroke-miterlimit="10"/>
<path d="M89.1646 33.2036C89.1453 33.2064 89.1232 33.2064 89.1038 33.2064C88.7225 33.2147 88.4047 32.9107 88.3964 32.5266L88.3549 30.4539C88.2914 27.3146 87.8105 24.1946 86.9262 21.1824L86.3293 19.1484C86.2215 18.7809 86.4315 18.3968 86.7991 18.289C87.1666 18.1812 87.5507 18.3912 87.6585 18.7588L88.2554 20.7927C89.1757 23.9238 89.6731 27.1654 89.7394 30.4263L89.7809 32.4989C89.7892 32.8637 89.5184 33.1649 89.1646 33.2036Z" fill="#263238" stroke="#263238" stroke-miterlimit="10" stroke-linecap="round" stroke-linejoin="round"/>
<path d="M75.2005 24.8911C72.4647 25.3692 69.6542 25.6234 68.0928 25.7367C67.413 25.7865 66.9128 26.3889 66.9847 27.066L67.366 30.6171C67.4406 31.3218 68.1066 31.8109 68.803 31.6672C70.3644 31.3467 73.1141 30.8188 75.8002 30.4734L75.2005 24.8911Z" fill="#263238" stroke="#263238" stroke-miterlimit="10" stroke-linecap="round" stroke-linejoin="round"/>
<path d="M70.5688 30.7135C70.5688 30.7135 71.6743 32.9602 71.8456 33.1675C71.9092 33.2449 72.0307 33.3001 72.1579 33.3416C72.4618 33.4383 72.7244 33.6345 72.9012 33.8998C73.6916 35.0964 75.709 38.1528 75.8112 38.2634C75.9383 38.3988 76.2506 38.5176 76.4247 38.385C76.5988 38.2523 77.8894 36.9894 77.7926 36.4339C77.6959 35.8812 77.5246 36.0498 77.2372 35.8177C77.005 35.6298 76.1097 34.0325 75.7698 33.4134C75.6869 33.2642 75.6951 33.0846 75.7891 32.9436L76.0903 32.4849C76.0903 32.4849 74.7749 31.4237 74.7556 31.2386C74.7362 31.0534 75.2834 30.918 75.3027 30.7301C75.3193 30.5394 74.8357 29.8789 74.8357 29.8789L70.5688 30.7135Z" fill="white" stroke="#263238" stroke-miterlimit="10" stroke-linecap="round" stroke-linejoin="round"/>
<path d="M75.2725 31.7944L76.2369 32.1509C76.2756 32.1647 76.2894 32.2117 76.2646 32.2421L76.0905 32.4853L75.2725 31.7944Z" fill="#92E3A9" stroke="#263238" stroke-miterlimit="10"/>
<path d="M72.8709 32.6978L72.5918 32.9105" stroke="#263238" stroke-miterlimit="10"/>
<path d="M74.7556 31.2388L73.1113 32.51" stroke="#263238" stroke-miterlimit="10"/>
<path d="M72.7102 27.4203L71.6414 27.5352L71.7146 28.2166L72.7834 28.1018L72.7102 27.4203Z" fill="#92E3A9"/>
<path d="M68.6233 112.176C68.6233 112.176 67.9794 123.12 67.9794 123.294C67.9794 123.468 67.1697 126.184 67.2858 126.591C67.4019 126.994 68.3276 127.11 68.9632 127.168C69.5989 127.226 70.9281 127.4 71.4504 127.4C71.9699 127.4 73.8215 127.284 74.1669 127.168C74.5151 127.052 74.9766 126.707 74.5704 126.417C74.1669 126.126 73.1831 126.013 72.0252 124.681C70.8701 123.352 70.5799 122.774 70.5799 122.774L73.0145 112.292L68.6233 112.176Z" fill="#FFBE9D" stroke="#263238" stroke-width="0.75" stroke-miterlimit="10"/>
<path d="M67.9796 123.294C67.9796 123.294 68.4273 123.484 68.8805 123.6C69.3365 123.714 70.2844 124.056 70.2844 124.056L70.5828 122.777L72.0281 124.134C72.0281 124.134 71.9148 124.438 71.8375 125.007C71.7628 125.576 71.6855 126.181 71.6855 126.181L72.556 126.447L72.8959 124.894L74.0704 125.728L73.8051 126.789C73.8051 126.789 74.1091 127.055 74.601 126.903C75.0929 126.751 75.0929 126.941 74.9796 127.243C74.8663 127.547 73.9184 127.773 73.0838 127.848C72.2492 127.923 69.3696 127.696 68.6871 127.544C68.0045 127.392 67.5126 127.353 67.1699 127.127C66.83 126.9 67.0953 126.14 67.1312 125.988C67.1699 125.836 69.2536 126.593 69.4443 126.593C69.6349 126.593 69.9749 125.645 69.9749 125.645L67.3219 124.924C67.3274 124.927 67.3827 123.368 67.9796 123.294Z" fill="#263238" stroke="#263238" stroke-miterlimit="10" stroke-linecap="round" stroke-linejoin="round"/>
<path d="M46.9465 122.874C46.9465 122.874 46.3054 123.056 45.7554 123.553C45.2055 124.054 45.2359 125.687 45.2359 125.687L46.9465 122.874Z" fill="#263238" stroke="#263238" stroke-miterlimit="10" stroke-linecap="round" stroke-linejoin="round"/>
<path d="M48.7539 125.651C48.7539 125.651 47.1566 125.151 46.5569 125.101C45.9572 125.051 45.2083 125.101 45.2083 125.101C45.2083 125.101 44.7578 125.25 44.7578 125.601C44.7578 125.952 44.6805 126.453 45.8798 126.652C47.0792 126.851 48.2039 126.652 48.7539 126.35C49.3038 126.052 48.7539 125.651 48.7539 125.651Z" fill="#263238" stroke="#263238" stroke-miterlimit="10" stroke-linecap="round" stroke-linejoin="round"/>
<path d="M52.3768 110.153C52.3768 110.153 48.3863 120.906 48.0408 121.37C47.6926 121.832 45.3575 124.786 45.2994 125.366C45.2414 125.944 48.2343 125.999 48.7538 125.654C49.2733 125.306 49.8924 122.296 50.2378 121.661C50.586 121.025 57.7545 110.966 57.7545 110.966L52.3768 110.153Z" fill="#FFBE9D" stroke="#263238" stroke-width="0.75" stroke-miterlimit="10"/>
<path d="M50.1026 122.755C50.1026 122.755 49.0552 122.106 48.5053 122.006C47.9553 121.907 47.4054 121.857 47.4054 121.857L46.6565 123.007L49.4532 124.355C49.4532 124.352 49.9008 123.454 50.1026 122.755Z" fill="#263238" stroke="#263238" stroke-miterlimit="10" stroke-linecap="round" stroke-linejoin="round"/>
<path d="M59.9625 77.5688L59.8768 79.4508C59.8768 79.4508 54.9163 92.1905 52.5231 98.4333C50.13 104.676 49.5303 109.462 49.5303 109.462C49.5303 109.462 51.6692 111.43 57.4809 112.37C63.2953 113.309 68.8527 113.481 72.0169 113.481C75.1811 113.481 78.7709 112.455 78.7709 112.455C78.7709 112.455 76.035 95.6974 73.8104 88.0867C71.5886 80.476 70.3035 79.2794 70.3035 79.2794L69.9609 76.8862L59.9625 77.5688Z" fill="#263238"/>
<path d="M63.5909 90.5186L62.9553 112.967" stroke="#FAFAFA" stroke-miterlimit="10" stroke-linecap="round" stroke-linejoin="round"/>
<path d="M63.6379 88.855L63.613 89.7393" stroke="#FAFAFA" stroke-miterlimit="10" stroke-linecap="round" stroke-linejoin="round"/>
<path d="M68.4934 79.8901C68.8499 79.8155 69.2009 79.7271 69.538 79.6221" stroke="#FAFAFA" stroke-miterlimit="10" stroke-linecap="round" stroke-linejoin="round"/>
<path d="M60.9021 80.0479C60.9021 80.0479 64.0774 80.479 67.1835 80.1004" stroke="#FAFAFA" stroke-miterlimit="10" stroke-linecap="round" stroke-linejoin="round"/>
<path d="M81.2691 57.4259C81.2691 57.4259 81.0176 56.2956 80.9762 55.5412C80.9347 54.7867 80.2218 53.7836 80.3074 53.3635C80.3903 52.9435 80.8104 52.9877 81.0204 53.1121C81.2304 53.2364 81.4819 53.6565 81.4819 53.6565C81.4819 53.6565 82.0678 51.8547 82.0678 51.0615C82.0678 50.2656 82.5707 50.3486 82.7808 50.893C82.9908 51.4374 82.6979 53.5321 82.6979 53.5321C82.6979 53.5321 83.4937 53.7421 83.8696 53.9079C84.2454 54.0765 84.9584 54.4109 84.8341 55.4583C84.7097 56.5056 84.5826 57.0915 84.3311 57.0915C84.0796 57.0915 83.8696 56.7571 83.8696 56.7571C83.8696 56.7571 83.8696 57.8874 83.4938 58.2218C83.1179 58.5562 82.3635 58.5976 82.3635 58.5976C82.3635 58.5976 82.4409 57.7603 81.2691 57.4259Z" fill="#FFBE9D" stroke="#263238" stroke-width="0.75" stroke-miterlimit="10"/>
<path d="M83.864 56.7543C83.864 56.7543 84.1155 55.7899 84.1155 55.6655" stroke="#263238" stroke-miterlimit="10" stroke-linecap="round" stroke-linejoin="round"/>
<path d="M81.4793 53.6562L81.2278 54.828" stroke="#263238" stroke-miterlimit="10" stroke-linecap="round" stroke-linejoin="round"/>
<path d="M80.2273 58.5976L81.0149 57.2628C81.0149 57.2628 81.3189 56.8372 82.0457 57.0804C82.054 57.0832 82.0595 57.086 82.0678 57.0887C82.7283 57.3126 83.0958 58.02 82.9162 58.6943L82.7144 59.4488C82.7144 59.446 81.1365 58.5368 80.2273 58.5976Z" fill="#92E3A9" stroke="#263238" stroke-miterlimit="10" stroke-linecap="round" stroke-linejoin="round"/>
<path d="M47.3057 85.3593C47.3057 85.3593 47.4964 86.3596 47.5904 87.0726C47.6843 87.7884 48.1624 89.2171 48.494 89.4078C48.8284 89.5985 49.2567 89.8361 48.7787 89.9798C48.3033 90.1235 48.0159 90.1705 47.5876 89.8361C47.1592 89.5017 46.8718 89.1204 46.8718 89.1204C46.8718 89.1204 46.5375 90.5961 46.2998 91.3118C46.0621 92.0276 45.3464 93.1689 45.3464 93.1689C45.3464 93.1689 45.5371 93.9786 45.2524 94.1223C44.9678 94.266 44.5367 93.647 44.5367 93.647C44.5367 93.647 44.1083 93.553 43.9177 93.2187C43.727 92.8843 43.4893 90.3612 43.5363 89.8831C43.5833 89.4078 45.5094 84.9917 45.5094 84.9917L47.3057 85.3593Z" fill="#FFBE9D" stroke="#263238" stroke-width="0.75" stroke-miterlimit="10"/>
<path d="M44.6001 90.5986C44.4481 90.875 44.3044 91.226 44.3044 91.3614C44.3044 91.552 44.5421 93.6468 44.5421 93.6468" stroke="#263238" stroke-miterlimit="10" stroke-linecap="round" stroke-linejoin="round"/>
<path d="M45.3518 93.1717L45.1611 92.0276L45.5425 90.4082" stroke="#263238" stroke-miterlimit="10" stroke-linecap="round" stroke-linejoin="round"/>
<path d="M45.6863 92.5996C45.6863 92.5996 45.7996 91.4499 46.0676 90.4551" stroke="#263238" stroke-miterlimit="10" stroke-linecap="round" stroke-linejoin="round"/>
<path d="M46.1615 88.2168C46.1615 88.2168 46.1146 88.6451 45.7802 88.9795C45.4458 89.3139 44.7798 89.7892 44.7798 89.7892" stroke="#263238" stroke-miterlimit="10" stroke-linecap="round" stroke-linejoin="round"/>
<path d="M58.9262 65.0891C58.9262 65.0891 55.0435 66.971 54.8003 67.4546C54.5571 67.941 49.7016 76.6184 49.0356 77.4668C48.3668 78.3152 46.3053 79.4095 46.0621 80.2579C45.8189 81.1063 46.0013 83.4139 46.0013 83.4139L45.5149 84.9918C45.5149 84.9918 45.5757 85.539 46.4241 85.7214C47.2725 85.9038 47.2725 85.9038 47.2725 85.9038L48.7288 84.5082C48.7288 84.5082 51.8848 83.7206 53.1587 82.2034C54.4327 80.6863 57.5278 73.5868 57.5278 73.5868L57.0415 78.3815C57.0415 78.3815 60.1974 78.8679 63.9585 78.5639C67.7197 78.2599 71.8483 77.6547 71.8483 77.6547L71.3012 72.0724C71.3012 72.0724 80.2825 70.6161 80.7689 70.1905C81.2553 69.7649 81.6781 68.6125 81.7389 68.187C81.7997 67.7614 83.3169 59.6311 83.3169 59.6311C83.3169 59.6311 82.7697 58.7219 81.4957 58.4788C80.2217 58.2356 78.9478 58.9043 78.887 59.2664C78.8262 59.6311 76.2174 64.9094 76.2174 64.9094C76.2174 64.9094 76.035 64.7878 75.369 65.0918C74.7003 65.3958 74.399 65.5174 74.399 65.5174C74.399 65.5174 71.1823 64.2434 69.8475 64.365C68.5128 64.4866 67.2388 64.669 67.2388 64.669C67.2388 64.669 64.8732 63.5774 63.1129 64.061C61.3553 64.5446 58.9262 65.0891 58.9262 65.0891Z" fill="#C8DCEC" stroke="#263238" stroke-width="0.5" stroke-miterlimit="10"/>
<path d="M67.3025 72.6137L71.3068 72.0693L68.6373 73.4649" stroke="#263238" stroke-miterlimit="10" stroke-linecap="round" stroke-linejoin="round"/>
<path d="M57.5916 70.8535L57.5308 73.5839L56.6216 72.4315" stroke="#263238" stroke-miterlimit="10" stroke-linecap="round" stroke-linejoin="round"/>
<path d="M46.5486 83.6597C46.5486 83.6597 46.731 84.2676 48.1873 84.2676" stroke="#263238" stroke-miterlimit="10" stroke-linecap="round" stroke-linejoin="round"/>
<path d="M69.1427 53.6533C69.1427 53.6533 69.5517 54.4133 69.7286 55.0572C69.9027 55.7011 70.6046 56.4002 70.7815 57.4531C70.9556 58.506 70.9556 59.4401 70.8395 59.9071C70.7235 60.3742 69.7866 60.4902 69.7866 60.4902C69.7866 60.4902 68.3247 60.0232 68.2087 58.2684C68.0926 56.5163 69.1427 53.6533 69.1427 53.6533Z" fill="#FFBE9D" stroke="#263238" stroke-width="0.75" stroke-miterlimit="10"/>
<path d="M70.0215 55.5879C70.0215 55.5879 70.4001 55.7261 70.5714 55.7261C70.7428 55.7261 71.0523 55.7592 70.95 56.171C70.8478 56.5828 70.6073 56.7209 70.6073 56.7209L70.0215 55.5879Z" fill="#FFBE9D" stroke="#263238" stroke-width="0.75" stroke-miterlimit="10"/>
<path d="M65.7548 50.6717C65.7548 50.6717 64.2929 49.9697 63.3008 50.4976C62.3059 51.0226 59.3849 53.6535 59.3269 54.5295C59.2688 55.4055 59.2108 56.6933 59.2108 57.2184C59.2108 57.7435 57.1078 58.8544 56.3478 60.6673C55.5878 62.4801 58.3928 66.045 60.2637 65.7521C62.1346 65.4592 62.6597 64.5831 63.3616 64.5831C64.0635 64.5831 66.2826 66.3352 67.5704 65.987C68.8554 65.636 70.8424 63.591 70.9032 62.306C70.9612 61.021 69.5601 59.6752 69.3252 58.6831C69.0903 57.6882 69.3833 56.6961 69.6182 55.9361C69.8531 55.1762 69.3252 52.7802 69.3252 52.7802C69.3252 52.7802 70.6103 52.9543 70.0272 51.6693C69.4413 50.3843 68.9162 49.9172 67.6892 49.7984C66.4539 49.6768 65.7548 50.6717 65.7548 50.6717Z" fill="#263238"/>
</g>
<defs>
<clipPath id="clip0_3_2018">
<rect width="194.296" height="128" fill="white"/>
</clipPath>
</defs>
</svg>
