<svg width="156" height="185" viewBox="0 0 156 185" fill="none" xmlns="http://www.w3.org/2000/svg">
<path d="M61.6976 133.908C61.6976 133.908 86.1457 102.188 94.7026 72.5682C103.259 42.9484 105.689 1.41785 102.946 0.508876C100.203 -0.400094 78.2157 24.6279 69.1574 53.3388C61.3058 78.2101 61.6976 133.908 61.6976 133.908Z" fill="#40C7A7"/>
<path d="M97.4457 11.1812C97.4457 11.1812 65.5221 74.4643 64.0176 124.505" stroke="#3B55CE" stroke-width="1.05" stroke-miterlimit="10" stroke-linecap="round"/>
<path d="M80.3622 183.933C80.3622 183.933 80.8794 160.535 71.2882 145.364C61.697 130.209 28.1905 103.959 17.753 107.203C9.50959 109.773 8.52226 169.75 29.9457 183.917H80.3622V183.933Z" fill="#40C7A7"/>
<path d="M21.3726 113.738C21.3726 113.738 48.0618 142.402 57.9508 183.932" stroke="#3B55CE" stroke-width="1.05" stroke-miterlimit="10" stroke-linecap="round"/>
<path d="M75.3462 184.402C75.3462 184.402 71.7887 123.251 63.5296 97.157C57.2609 77.3791 46.3376 60.4848 25.0081 48.6212C10.9348 40.8009 -2.99755 41.6942 0.951766 48.6212C4.90108 55.5482 17.4229 65.4685 33.5807 91.4681C48.1712 114.96 61.4766 160.691 61.696 184.402H75.3462Z" fill="#22A482"/>
<path d="M8.19165 48.2917C24.6628 58.5098 44.331 78.0683 53.0132 103.222C61.6955 128.375 65.206 170.893 64.8769 184.402" stroke="#3B55CE" stroke-width="1.05" stroke-miterlimit="10" stroke-linecap="round"/>
<path d="M61.6968 144.549C61.6968 144.549 60.3647 111.012 89.9376 113.409C116.063 115.525 113.994 144.549 113.994 144.549C113.994 144.549 126.469 135.444 141.012 142.512C160.273 151.868 154.851 172.179 154.851 172.179H61.6968V144.549V144.549Z" fill="#22A482"/>
</svg>
