<svg width="138" height="270" viewBox="0 0 138 270" fill="none" xmlns="http://www.w3.org/2000/svg">
<path d="M47.2059 94.7369L37.3953 90.913C37.3953 90.913 37.2386 87.5749 35.7811 85.3808C33.5244 81.98 32.7408 78.3598 31.7848 79.2844C30.8131 80.2404 31.0639 81.9643 31.5654 83.9233C32.0669 85.8823 31.0952 87.8099 31.0952 87.8099L22.5383 81.1024C22.5383 81.1024 22.2406 85.945 23.7137 88.7816C25.2966 91.869 27.2556 94.1571 31.8945 97.3071C36.5333 100.457 44.1029 104.689 44.1029 104.689L47.2059 94.7369Z" fill="#BA5964"/>
<path d="M47.2056 94.7371L61.6394 99.6111V110.848L44.1025 104.673L47.2056 94.7371Z" fill="#228C7E"/>
<path d="M47.3319 94.1257L44.1975 104.375" stroke="#AAEEED" stroke-width="1.05" stroke-miterlimit="10" stroke-linecap="round"/>
<path d="M49.6961 264.997C49.3043 265.749 49.602 267.269 52.611 268.523C55.6357 269.777 61.0895 269.244 63.2523 268.821C65.415 268.398 66.7471 267.771 69.9441 268.429C73.1569 269.103 78.407 268.805 80.0055 267.457C80.554 266.815 80.1936 265.498 80.1936 265.498L49.6961 264.997Z" fill="#8FC9C6"/>
<path d="M78.4858 255.609C78.9246 257.819 80.7269 262.991 80.2097 265.514C77.9529 267.426 73.126 267.551 69.5058 266.642C65.8855 265.733 63.331 267.583 58.7862 267.849C54.3197 268.116 50.6055 266.878 49.6965 264.997C48.7092 262.96 56.4981 261.377 61.7952 259.747C67.7349 257.929 70.8065 254.998 70.8065 254.998L78.4858 255.609Z" fill="#228C7E"/>
<path d="M69.0036 259.872C69.0036 259.872 67.9379 256.879 66.5117 255.907" stroke="#8FC9C6" stroke-width="0.525" stroke-miterlimit="10" stroke-linecap="round"/>
<path d="M64.9769 261.471C64.9769 261.471 63.9112 258.478 62.4851 257.506" stroke="#8FC9C6" stroke-width="0.525" stroke-miterlimit="10" stroke-linecap="round"/>
<path d="M60.9335 263.069C60.9335 263.069 59.8678 260.076 58.4417 259.104" stroke="#8FC9C6" stroke-width="0.525" stroke-miterlimit="10" stroke-linecap="round"/>
<path d="M78.4847 246.817V255.609C78.4847 255.609 77.466 255.954 77.0429 256.44C76.6197 256.941 76.0399 258.602 75.319 258.618C72.4824 258.728 70.8055 254.998 70.8055 254.998L69.7397 247.005L78.4847 246.817Z" fill="#FF9A8D"/>
<path d="M121.771 266.94C122.273 267.629 123.777 268.006 126.206 265.812C128.636 263.617 130.485 258.461 131.033 256.33C131.582 254.183 131.582 252.725 133.556 250.108C135.547 247.491 137.537 242.617 136.989 240.595C136.644 239.828 135.296 239.592 135.296 239.592L121.771 266.94Z" fill="#AAEEED"/>
<path d="M125.626 236.913C127.804 237.461 133.258 238.057 135.311 239.608C136.064 242.461 134.12 246.88 131.738 249.764C129.356 252.647 129.951 255.735 128.243 259.966C126.566 264.103 123.855 266.94 121.771 266.956C119.498 266.971 121.426 259.261 122.225 253.776C123.119 247.632 121.786 243.605 121.786 243.605L125.626 236.913Z" fill="#03AA99"/>
<path d="M125.408 247.287C125.408 247.287 122.242 246.974 120.753 247.836" stroke="#AAEEED" stroke-width="0.525" stroke-miterlimit="10" stroke-linecap="round"/>
<path d="M125.125 251.628C125.125 251.628 121.959 251.315 120.47 252.177" stroke="#AAEEED" stroke-width="0.525" stroke-miterlimit="10" stroke-linecap="round"/>
<path d="M124.843 255.97C124.843 255.97 121.677 255.656 120.188 256.518" stroke="#AAEEED" stroke-width="0.525" stroke-miterlimit="10" stroke-linecap="round"/>
<path d="M120.753 231.897L125.627 236.897C125.627 236.897 125.501 237.962 125.768 238.558C126.034 239.154 127.288 240.392 127.006 241.05C125.893 243.667 121.803 243.573 121.803 243.573L114.766 238.057L120.753 231.897Z" fill="#FF9A8D"/>
<path d="M61.5136 121.677C71.3555 121.677 78.6743 122.414 78.6743 122.414C81.8244 123.793 87.2155 130.939 88.814 135.484C90.4126 140.029 89.7544 147.614 88.9237 151.516C84.3005 173.269 76.5899 185.806 74.7877 194.442C73.6906 199.723 78.9094 196.886 78.9094 210.254C78.9094 222.212 78.4706 247.726 78.4706 247.726C78.4706 247.726 74.7877 249.873 69.9137 248.4C69.9137 248.4 62.5323 206.336 61.7173 201.51C60.4009 193.705 59.9464 190.43 59.8054 176.92C59.6173 157.926 61.5136 121.677 61.5136 121.677Z" fill="#1E4174"/>
<path d="M114.75 238.056C114.75 238.056 76.8241 210.254 74.5203 207.731C72.2322 205.192 71.2292 153.021 70.618 149.275C70.618 149.275 61.3246 139.809 61.0425 131.958L91.2109 116.85C92.496 121.677 91.6967 124.529 94.8468 136.769C98.3573 150.435 91.3049 173.331 88.9855 200.945C88.9855 200.945 92.9505 200.992 97.7304 204.409C102.119 207.543 120.721 231.913 120.721 231.913C120.721 231.913 119.342 236.536 114.75 238.056Z" fill="#85B8ED"/>
<path d="M120.753 231.897C120.753 231.897 120.33 233.261 119.217 234.765C115.377 229.938 105.081 218.357 99.0785 212.088C91.1172 203.797 85.9925 203.531 85.6164 201.776C85.2403 200.021 85.6478 173.99 87.0112 157.722C88.3903 141.47 87.0112 134.888 82.2626 128.996C80.6014 126.927 79.3477 124.796 78.5327 123.213L91.2426 116.85C92.5277 121.692 91.7284 124.529 94.8785 136.784C98.4047 150.466 91.3367 173.347 89.0172 200.945C89.0172 200.945 89.5814 200.961 90.5217 201.149C91.1642 201.274 91.9635 201.494 92.9039 201.823C93.8285 202.168 94.8785 202.638 96.0069 203.28C96.5867 203.609 97.1666 203.986 97.7465 204.409C98.7181 205.098 100.348 206.791 102.323 209.032C106.006 213.201 110.832 219.219 114.625 224.046C115.205 224.782 115.753 225.487 116.286 226.161C118.919 229.531 120.753 231.897 120.753 231.897Z" fill="#4E7EAC"/>
<path d="M63.0491 138.759C63.0491 138.759 68.9574 144.087 78.5172 144.087C88.0771 144.087 94.4242 139.95 94.4242 139.95L91.7757 133.54L63.0491 138.759Z" fill="#4E7EAC"/>
<path d="M69.4585 116.458C73.8623 124.796 80.3505 130.516 82.4975 136.064C84.6289 141.611 83.8296 152.864 83.4222 173.378C83.0304 193.532 82.5445 202.732 83.4222 204.111C84.2841 205.49 90.1611 206.822 99.3605 215.677C108.56 224.531 120 238.056 120 238.056" stroke="#274D79" stroke-width="0.525" stroke-miterlimit="10"/>
<path d="M74.7249 138.602C74.7249 138.602 74.7876 149.87 83.8929 150.513" stroke="#274D79" stroke-width="0.525" stroke-miterlimit="10"/>
<path d="M119.295 227.634C118.652 230.972 115.439 235.408 110.691 237.241" stroke="#274D79" stroke-width="0.525" stroke-miterlimit="10"/>
<path d="M62.1571 70.9152C61.5146 71.6048 61.3109 72.9212 62.4393 76.9332L76.497 65.1166L62.1571 70.9152Z" fill="#10A297"/>
<path d="M50.528 48.5668C50.2302 49.7109 48.4436 54.6789 47.8167 56.152C47.1898 57.6252 51.1235 56.8729 51.1235 56.8729L50.528 48.5668Z" fill="#BA5964"/>
<path d="M73.7374 65.1167L63.5037 74.3788L59.8208 64.7563L69.8195 54.1777L73.7374 65.1167Z" fill="#FF9A8D"/>
<path d="M61.435 68.9877C61.435 68.9877 71.324 61.4181 69.8195 54.1777L59.8208 64.7563L61.435 68.9877Z" fill="#BA5964"/>
<path d="M69.7884 54.1777C69.7884 54.1777 69.569 55.7763 69.2242 57.03C68.8794 58.2838 60.9024 64.4585 58.6143 65.4145C56.3262 66.3705 53.0351 66.778 51.4366 58.6756C49.8381 50.5732 49.9164 43.1447 54.2105 38.067C58.5046 32.9894 67.0144 34.823 71.6533 39.0074C76.2922 43.1761 75.681 54.0994 69.7884 54.1777Z" fill="#FF9A8D"/>
<path d="M69.7885 54.1774L71.3086 58.3618C71.3086 58.3618 73.0169 57.6722 74.5057 54.1774C76.1356 50.3535 79.2229 43.7399 77.8281 40.4802C75.9945 36.2018 70.4624 36.0294 70.4624 36.0294C70.4624 36.0294 65.5571 28.5539 54.195 27.0494C42.8328 25.5449 40.4037 34.1331 49.7285 37.3615C49.7285 37.3615 45.0739 41.5929 49.0703 42.6899C53.0666 43.7869 62.7832 40.7779 62.7832 40.7779C62.7832 40.7779 58.489 43.9593 60.307 44.9153C62.1249 45.8713 68.1586 43.5675 68.1586 43.5675L68.2526 46.9056C68.2526 46.9056 70.5721 45.4168 72.39 46.6706C74.5841 48.1907 73.5654 54.2244 69.7885 54.1774Z" fill="#001C45"/>
<path d="M68.7852 26.2191C68.7852 26.2191 73.6434 31.908 69.2083 37.9103C69.2083 37.9103 74.8188 36.1394 74.5211 30.4349" stroke="#001C45" stroke-width="0.7875" stroke-miterlimit="10" stroke-linecap="round"/>
<path d="M33.3987 90.0194C33.0539 89.7529 22.7574 81.6819 18.8865 78.6416C18.1029 78.0147 17.9932 76.8706 18.6357 76.1027C19.2469 75.3818 20.3283 75.2878 21.0648 75.8833L33.8531 86.1327C33.8688 86.1484 37.442 90.3955 33.3987 90.0194Z" fill="#001C45"/>
<path d="M63.5832 75.9617C63.5832 75.9617 62.1414 72.4825 62.7683 71.5579C64.8683 68.5019 71.7012 59.5062 72.6572 60.3682C73.6132 61.2301 76.4969 65.1011 76.4969 65.1011L63.5832 75.9617Z" fill="#3ED9C7"/>
<path d="M62.439 76.9332C61.5614 80.9766 61.6397 87.6371 61.0912 101.758C60.7307 110.847 59.8218 137.207 59.8218 137.207C59.8218 137.207 66.7801 141.768 78.4557 140.828C89.6141 139.934 94.441 134.449 94.441 134.449C94.441 134.449 93.2813 97.3694 89.6141 82.7789C84.1916 67.7338 76.4967 65.1166 76.4967 65.1166L62.439 76.9332Z" fill="#3ED9C7"/>
<path d="M80.3357 82.1522L69.9923 108.857L60.9183 106.412C60.7616 110.487 60.6675 114.154 60.4951 119.091C62.6422 120.015 65.2437 120.924 68.4878 121.833C71.3244 122.633 72.108 122.1 73.2364 120.172C76.12 115.298 85.2881 91.9158 85.2881 91.9158L80.3357 82.1522Z" fill="#03AA99"/>
<path d="M73.7542 74.379C71.9049 75.9618 71.043 77.4977 69.3034 82.5127C67.3601 88.1075 63.207 102.573 63.207 102.573L63.8809 102.839L73.7542 74.379Z" fill="#03AA99"/>
<path d="M83.3287 70.9941C78.063 68.3142 73.5181 71.8717 70.227 82.2779C67.0927 92.1668 63.8799 102.839 63.8799 102.839L49.5088 97.2602L46.4058 106.914C46.4058 106.914 59.8052 115.283 65.7606 117.414C71.6218 119.499 72.7502 118.041 81.6832 99.8461C88.3281 86.2742 91.9326 75.3666 83.3287 70.9941Z" fill="#3ED9C7"/>
<path d="M49.5094 97.26L39.6988 93.1383C39.6988 93.1383 39.5421 89.8002 38.0846 87.6061C35.8278 84.2053 35.0442 80.5851 34.0882 81.5098C33.1166 82.4658 33.3673 84.1897 33.8688 86.1486C34.3703 88.1076 33.3987 90.0353 33.3987 90.0353L24.8418 83.3277C24.8418 83.3277 24.544 88.1703 26.0172 91.0069C27.6001 94.0943 29.5591 96.3824 34.1979 99.5324C38.8368 102.682 46.4063 106.914 46.4063 106.914L49.5094 97.26Z" fill="#FF9A8D"/>
<path d="M76.4955 65.1166L63.5975 75.9616L62.4535 76.9332C62.0774 77.6541 61.999 78.3124 62.1401 78.8922L76.4955 65.1166Z" fill="#03AA99"/>
<path d="M49.5558 96.6334L46.343 107.588" stroke="#AAEEED" stroke-width="1.05" stroke-miterlimit="10" stroke-linecap="round"/>
<path d="M54.9474 49.0221C54.9787 48.4579 55.4645 48.0348 56.0131 48.0661C56.5772 48.0975 57.0004 48.5833 56.969 49.1318C56.9377 49.696 56.4519 50.1192 55.9033 50.0878C55.3548 50.0565 54.916 49.5863 54.9474 49.0221Z" fill="#001C45"/>
<path d="M54.1162 46.3579L58.7551 47.8311C58.7551 47.8311 58.661 46.2482 57.0625 45.7624C55.1035 45.1669 54.1162 46.3579 54.1162 46.3579Z" fill="#001C45"/>
<path d="M71.4334 48.0041C70.8065 47.7846 69.8662 47.816 69.3334 48.2391C69.1296 48.3959 69.4744 48.725 69.6624 48.6466C70.7281 48.2548 72.0446 48.1921 72.5618 49.4459C72.5931 49.5086 72.6401 49.4459 72.6245 49.3989C72.4991 48.725 72.1073 48.2548 71.4334 48.0041Z" fill="#BA5964"/>
<path d="M70.9318 48.1136C70.8064 48.0509 70.54 48.3487 70.5713 48.4428C70.7437 48.5211 71.0258 48.7248 71.1512 48.9599C71.3706 49.3674 71.449 49.7122 71.4019 50.1667C71.3079 51.2323 70.7124 52.0003 69.678 52.2353C69.6623 52.2353 69.631 52.298 69.6623 52.298C70.5713 52.5174 71.59 51.5928 71.7937 50.7779C72.0288 49.8689 71.9818 48.5995 70.9318 48.1136Z" fill="#BA5964"/>
<path d="M9.71914 17.929H86.1823C91.1189 17.929 95.1309 13.917 95.1309 8.98038C95.1309 4.04374 91.1189 0.0317383 86.1823 0.0317383H9.71914C4.7825 0.0317383 0.770508 4.04374 0.770508 8.98038C0.770508 13.9327 4.7825 17.929 9.71914 17.929Z" fill="white"/>
<path d="M78.1903 5.03078L79.1777 7.03679L79.3657 7.42859L79.7889 7.49127L81.9986 7.80471L80.4001 9.35623L80.0866 9.65399L80.165 10.0771L80.5411 12.2712L78.5664 11.2369L78.1903 11.0331L77.8142 11.2369L75.8396 12.2712L76.2157 10.0771L76.294 9.65399L75.9806 9.35623L74.3821 7.80471L76.5918 7.49127L77.0149 7.42859L77.203 7.03679L78.1903 5.03078ZM78.1903 3.16583L76.4664 6.66066L72.5955 7.22485L75.3851 9.95176L74.7269 13.7914L78.1746 11.9734L81.6225 13.7914L80.9642 9.95176L83.7538 7.22485L79.8986 6.66066L78.1903 3.16583Z" fill="#FABA50"/>
<path d="M62.879 3.16608L61.1551 6.66091L57.2998 7.2251L60.0894 9.95201L59.4312 13.7916L62.879 11.9737L66.3425 13.7916L65.6842 9.95201L68.4738 7.2251L64.6029 6.66091L62.879 3.16608Z" fill="#FABA50"/>
<path d="M47.5836 3.16608L45.8597 6.66091L42.0044 7.2251L44.794 9.95201L44.1357 13.7916L47.5836 11.9737L51.0314 13.7916L50.3732 9.95201L53.1628 7.2251L49.3075 6.66091L47.5836 3.16608Z" fill="#FABA50"/>
<path d="M32.287 3.16608L30.563 6.66091L26.6921 7.2251L29.4974 9.95201L28.8235 13.7916L32.287 11.9737L35.7348 13.7916L35.0766 9.95201L37.8662 7.2251L34.0109 6.66091L32.287 3.16608Z" fill="#FABA50"/>
<path d="M16.9759 3.16608L15.252 6.66091L11.3967 7.2251L14.1863 9.95201L13.5281 13.7916L16.9759 11.9737L20.4394 13.7916L19.7812 9.95201L22.5708 7.2251L18.7155 6.66091L16.9759 3.16608Z" fill="#FABA50"/>
<path d="M32.287 16.456V29.0405L24.4041 16.456H32.287Z" fill="white"/>
</svg>
