<svg width="72" height="93" viewBox="0 0 72 93" fill="none" xmlns="http://www.w3.org/2000/svg">
<path d="M55.5187 91.3342C55.5187 91.3342 34.7692 95.3932 24.3474 84.2505C13.9099 73.1078 26.4787 64.2532 18.4234 55.759C10.368 47.2649 3.25299 47.735 1.35669 39.6797C-0.539611 31.6243 9.31801 31.4049 8.36202 23.3496C7.40604 15.2942 -2.74933 11.3292 1.62313 3.94778C3.67615 0.468625 10.6188 -2.57173 21.0092 4.26122C26.3063 7.74038 32.3714 11.1725 38.3424 11.1725C45.6298 11.1725 51.1149 13.2725 51.9455 23.522C52.7762 33.787 52.6351 42.3596 61.1449 48.4873C72.6168 56.7307 80.202 75.3646 55.5187 91.3342Z" fill="#91DBAC"/>
<path d="M9.47461 5.62463C26.9644 20.3719 47.761 49.741 55.5186 91.3342" stroke="#3B55CE" stroke-width="1.05" stroke-miterlimit="10" stroke-linecap="round"/>
</svg>
