<svg width="239" height="336" viewBox="0 0 239 336" fill="none" xmlns="http://www.w3.org/2000/svg">
<path d="M160.988 0H14.0488C6.66732 0 0.680664 5.98666 0.680664 13.3681V322.104C0.680664 329.486 6.66732 335.472 14.0488 335.472H160.988C168.37 335.472 174.357 329.486 174.357 322.104V13.3681C174.357 5.98666 168.37 0 160.988 0ZM164.75 304.191C164.75 308.015 161.647 311.118 157.823 311.118H17.2145C13.3906 311.118 10.2875 308.015 10.2875 304.191V31.2811C10.2875 27.4571 13.3906 24.3541 17.2145 24.3541H157.823C161.647 24.3541 164.75 27.4571 164.75 31.2811V304.191Z" fill="#416F75"/>
<path opacity="0.3" d="M157.838 24.3542H17.2143C13.3904 24.3542 10.2874 27.4572 10.2874 31.2812V304.191C10.2874 308.015 13.3904 311.118 17.2143 311.118H157.823C161.646 311.118 164.749 308.015 164.749 304.191V31.2812C164.749 27.4572 161.662 24.3542 157.838 24.3542Z" fill="#BCD3F9"/>
<path d="M79.7443 16.6434C82.2111 16.6434 84.2108 14.6437 84.2108 12.1769C84.2108 9.71016 82.2111 7.71045 79.7443 7.71045C77.2775 7.71045 75.2778 9.71016 75.2778 12.1769C75.2778 14.6437 77.2775 16.6434 79.7443 16.6434Z" fill="#000E5B"/>
<path d="M114.724 12.1771C114.724 10.6883 113.518 9.46588 112.013 9.46588H94.2256C92.7368 9.46588 91.5144 10.6726 91.5144 12.1771C91.5144 13.6659 92.7211 14.8884 94.2256 14.8884H112.013C113.518 14.8884 114.724 13.6659 114.724 12.1771Z" fill="#000E5B"/>
<path d="M233.078 205.066H62.8812C60.1543 205.066 57.9446 202.857 57.9446 200.13V143.633C57.9446 140.906 60.1543 138.696 62.8812 138.696H233.078C235.805 138.696 238.015 140.906 238.015 143.633V200.13C238.015 202.857 235.805 205.066 233.078 205.066Z" fill="#85B8ED"/>
<path d="M233.078 120.799H62.8812C60.1543 120.799 57.9446 118.589 57.9446 115.862V59.3648C57.9446 56.6379 60.1543 54.4282 62.8812 54.4282H233.078C235.805 54.4282 238.015 56.6379 238.015 59.3648V115.862C238.015 118.589 235.805 120.799 233.078 120.799Z" fill="#85B8ED"/>
<path d="M233.078 289.35H62.8812C60.1543 289.35 57.9446 287.14 57.9446 284.413V227.916C57.9446 225.189 60.1543 222.979 62.8812 222.979H233.078C235.805 222.979 238.015 225.189 238.015 227.916V284.413C238.015 287.14 235.805 289.35 233.078 289.35Z" fill="#85B8ED"/>
<path d="M230.257 116.646H60.0602C57.3333 116.646 55.1235 114.436 55.1235 111.709V55.2117C55.1235 52.4848 57.3333 50.2751 60.0602 50.2751H230.257C232.984 50.2751 235.194 52.4848 235.194 55.2117V111.709C235.194 114.436 232.984 116.646 230.257 116.646Z" fill="#FFFFF8"/>
<path d="M107.749 100.987C117.425 91.3108 117.425 75.6229 107.749 65.9469C98.0734 56.2708 82.3855 56.2708 72.7094 65.9469C63.0334 75.6229 63.0334 91.3108 72.7094 100.987C82.3855 110.663 98.0734 110.663 107.749 100.987Z" fill="#FFFFF8"/>
<path d="M176.455 76.5254H126.054C124.691 76.5254 123.578 75.4127 123.578 74.0492V68.329C123.578 66.9655 124.691 65.8528 126.054 65.8528H176.455C177.818 65.8528 178.931 66.9655 178.931 68.329V74.0492C178.915 75.4284 177.818 76.5254 176.455 76.5254Z" fill="#3ED9C7"/>
<path d="M219.239 85.458H124.393C123.939 85.458 123.562 85.8341 123.562 86.2729V86.7744C123.562 87.2289 123.939 87.6051 124.393 87.6051H219.239C219.694 87.6051 220.054 87.2289 220.054 86.7744V86.2729C220.054 85.8341 219.694 85.458 219.239 85.458Z" fill="#638BE2"/>
<path d="M219.239 94.3599H124.393C123.939 94.3599 123.562 94.7361 123.562 95.1905V95.692C123.562 96.1465 123.939 96.5226 124.393 96.5226H219.239C219.694 96.5226 220.054 96.1465 220.054 95.692V95.1905C220.054 94.7204 219.694 94.3599 219.239 94.3599Z" fill="#638BE2"/>
<path d="M219.239 103.246H124.393C123.939 103.246 123.562 103.622 123.562 104.061V104.562C123.562 105.017 123.939 105.377 124.393 105.377H219.239C219.694 105.377 220.054 105.001 220.054 104.562V104.061C220.054 103.622 219.694 103.246 219.239 103.246Z" fill="#638BE2"/>
<path d="M230.257 200.913H60.0602C57.3333 200.913 55.1235 198.703 55.1235 195.977V139.495C55.1235 136.768 57.3333 134.558 60.0602 134.558H230.257C232.984 134.558 235.194 136.768 235.194 139.495V195.992C235.194 198.703 232.984 200.913 230.257 200.913Z" fill="#FFFFF8"/>
<path d="M90.2284 192.513C103.913 192.513 115.006 181.42 115.006 167.736C115.006 154.051 103.913 142.958 90.2284 142.958C76.5443 142.958 65.4512 154.051 65.4512 167.736C65.4512 181.42 76.5443 192.513 90.2284 192.513Z" fill="#FFFFF8"/>
<path d="M176.455 160.793H126.054C124.691 160.793 123.578 159.681 123.578 158.333V152.613C123.578 151.249 124.691 150.152 126.054 150.152H176.455C177.818 150.152 178.931 151.265 178.931 152.613V158.333C178.915 159.696 177.818 160.793 176.455 160.793Z" fill="#3ED9C7"/>
<path d="M219.239 169.742H124.393C123.939 169.742 123.562 170.118 123.562 170.573V171.074C123.562 171.529 123.939 171.905 124.393 171.905H219.239C219.694 171.905 220.054 171.529 220.054 171.074V170.573C220.054 170.103 219.694 169.742 219.239 169.742Z" fill="#638BE2"/>
<path d="M219.239 178.628H124.393C123.939 178.628 123.562 179.004 123.562 179.459V179.96C123.562 180.415 123.939 180.791 124.393 180.791H219.239C219.694 180.791 220.054 180.415 220.054 179.96V179.459C220.054 179.004 219.694 178.628 219.239 178.628Z" fill="#638BE2"/>
<path d="M219.239 187.529H124.393C123.939 187.529 123.562 187.905 123.562 188.36V188.861C123.562 189.316 123.939 189.676 124.393 189.676H219.239C219.694 189.676 220.054 189.3 220.054 188.861V188.36C220.054 187.89 219.694 187.529 219.239 187.529Z" fill="#638BE2"/>
<path d="M230.257 285.197H60.0602C57.3333 285.197 55.1235 282.987 55.1235 280.26V223.763C55.1235 221.036 57.3333 218.826 60.0602 218.826H230.257C232.984 218.826 235.194 221.036 235.194 223.763V280.26C235.194 282.987 232.984 285.197 230.257 285.197Z" fill="#FFFFF8"/>
<path d="M114.328 257.725C117.493 244.412 109.266 231.054 95.953 227.889C82.6397 224.723 69.2814 232.95 66.1162 246.263C62.9511 259.577 71.1778 272.935 84.491 276.1C97.8043 279.265 111.163 271.039 114.328 257.725Z" fill="#FFFFF8"/>
<path d="M176.455 245.077H126.054C124.691 245.077 123.578 243.964 123.578 242.617V236.896C123.578 235.533 124.691 234.42 126.054 234.42H176.455C177.818 234.42 178.931 235.533 178.931 236.896V242.617C178.915 243.964 177.818 245.077 176.455 245.077Z" fill="#3ED9C7"/>
<path d="M219.239 254.01H124.393C123.939 254.01 123.562 254.386 123.562 254.841V255.342C123.562 255.797 123.939 256.157 124.393 256.157H219.239C219.694 256.157 220.054 255.781 220.054 255.342V254.841C220.054 254.37 219.694 254.01 219.239 254.01Z" fill="#638BE2"/>
<path d="M219.239 262.896H124.393C123.939 262.896 123.562 263.272 123.562 263.726V264.228C123.562 264.682 123.939 265.043 124.393 265.043H219.239C219.694 265.043 220.054 264.667 220.054 264.228V263.726C220.054 263.272 219.694 262.896 219.239 262.896Z" fill="#638BE2"/>
<path d="M219.239 271.797H124.393C123.939 271.797 123.562 272.173 123.562 272.628V273.129C123.562 273.584 123.939 273.96 124.393 273.96H219.239C219.694 273.96 220.054 273.584 220.054 273.129V272.628C220.054 272.158 219.694 271.797 219.239 271.797Z" fill="#638BE2"/>
<path d="M114.327 257.726C117.492 244.412 109.266 231.054 95.9529 227.889C82.6398 224.724 69.2817 232.951 66.1166 246.264C62.9515 259.577 71.1781 272.935 84.4911 276.1C97.8042 279.265 111.162 271.039 114.327 257.726Z" fill="#E5F7FF"/>
<path d="M91.6552 235.548C97.015 235.548 101.356 239.889 101.356 245.249V270.355H81.97V245.249C81.9543 239.889 86.2954 235.548 91.6552 235.548Z" fill="#001C45"/>
<path d="M87.5024 271.217H79.0239V247.552C79.0239 243.368 82.4247 239.967 86.6091 239.967H87.4867V271.217H87.5024Z" fill="#001C45"/>
<path d="M81.5632 250.875C81.5632 250.875 79.8706 250.075 78.8676 251.188C77.8646 252.316 78.3505 254.871 80.0744 255.608C81.7199 256.313 82.4722 255.466 82.4722 255.466L81.5632 250.875Z" fill="#FF9A8D"/>
<path d="M79.7919 251.642C80.2307 251.517 80.8733 251.564 81.2024 251.877C81.3278 251.987 81.0927 252.206 80.9673 252.144C80.2621 251.83 79.3688 251.752 78.9613 252.567C78.9456 252.614 78.9143 252.567 78.9143 252.536C79.0554 252.081 79.3374 251.783 79.7919 251.642Z" fill="#BA5964"/>
<path d="M80.1365 251.736C80.2148 251.705 80.3872 251.909 80.3715 251.971C80.2462 252.018 80.0581 252.144 79.9641 252.301C79.7917 252.567 79.7447 252.802 79.7447 253.116C79.7603 253.836 80.1365 254.385 80.8417 254.589C80.8574 254.589 80.873 254.636 80.8574 254.636C80.2305 254.761 79.5723 254.087 79.4626 253.523C79.3215 252.896 79.4155 252.034 80.1365 251.736Z" fill="#BA5964"/>
<path d="M98.865 250.796C98.865 250.796 100.558 250.06 101.561 251.188C102.564 252.316 102.078 254.871 100.354 255.608C98.7083 256.313 97.9561 255.466 97.9561 255.466L98.865 250.796Z" fill="#FF9A8D"/>
<path d="M100.636 251.642C100.197 251.517 99.5543 251.564 99.2252 251.877C99.0998 251.987 99.3349 252.206 99.4603 252.144C100.165 251.83 101.059 251.752 101.466 252.567C101.482 252.614 101.513 252.567 101.513 252.535C101.372 252.081 101.106 251.783 100.636 251.642Z" fill="#BA5964"/>
<path d="M100.307 251.736C100.229 251.705 100.056 251.909 100.072 251.971C100.198 252.018 100.386 252.144 100.48 252.301C100.652 252.567 100.699 252.802 100.699 253.115C100.683 253.836 100.307 254.385 99.602 254.589C99.5863 254.589 99.5707 254.636 99.5863 254.636C100.213 254.761 100.871 254.087 100.981 253.523C101.106 252.896 101.028 252.034 100.307 251.736Z" fill="#BA5964"/>
<path d="M73.022 276.781C73.022 272.973 73.6332 270.7 75.6235 270.058C76.5325 269.76 81.9863 268.067 83.6945 267.55C85.4184 267.033 85.8729 266.014 85.8729 265.137C85.8729 264.259 85.8729 261.234 85.8729 261.234H94.5865C94.5865 261.234 94.5865 264.243 94.5865 265.137C94.5865 266.014 95.0566 267.033 96.7649 267.55C98.4731 268.067 103.927 269.76 104.836 270.058C106.826 270.7 107.437 272.988 107.437 276.781H73.022Z" fill="#FF9A8D"/>
<path d="M85.8733 262.363C85.8733 262.379 86.7352 264.87 90.2301 264.87C93.7249 264.87 94.5869 262.379 94.5869 262.363C94.5869 261.72 94.5869 261.234 94.5869 261.234H85.8733C85.8733 261.234 85.8733 261.72 85.8733 262.363Z" fill="#BA5964"/>
<path d="M94.3036 241.111C93.0499 240.39 91.6551 239.967 90.2289 239.967C88.8028 239.967 87.3923 240.39 86.1542 241.111C83.2236 242.788 81.531 245.954 81.531 249.276C81.531 249.292 81.531 249.292 81.531 249.307C81.531 250.248 81.5937 251.188 81.6877 252.113L81.8445 253.429C81.9698 254.464 82.1579 255.482 82.487 256.47C83.7407 260.372 87.2199 262.989 90.2289 262.989C93.2379 262.989 96.7171 260.372 97.9865 256.47C98.2999 255.482 98.5037 254.464 98.629 253.429L98.7858 252.113C98.8955 251.172 98.9582 250.216 98.9582 249.276V249.26C98.9111 245.938 97.2186 242.788 94.3036 241.111Z" fill="#FF9A8D"/>
<path d="M93.2219 251.266C93.2219 250.765 93.6294 250.357 94.1309 250.357C94.6324 250.357 95.0399 250.765 95.0399 251.266C95.0399 251.768 94.6324 252.175 94.1309 252.175C93.6294 252.175 93.2219 251.784 93.2219 251.266Z" fill="#001C45"/>
<path d="M92.345 248.931L96.5764 250.013C96.5764 250.013 96.404 248.602 94.9465 248.242C93.1756 247.803 92.345 248.931 92.345 248.931Z" fill="#001C45"/>
<path d="M86.3106 252.175C86.8126 252.175 87.2196 251.768 87.2196 251.266C87.2196 250.764 86.8126 250.357 86.3106 250.357C85.8086 250.357 85.4016 250.764 85.4016 251.266C85.4016 251.768 85.8086 252.175 86.3106 252.175Z" fill="#001C45"/>
<path d="M88.1133 248.931L83.8818 250.013C83.8818 250.013 84.0542 248.602 85.5117 248.242C87.2826 247.803 88.1133 248.931 88.1133 248.931Z" fill="#001C45"/>
<path d="M90.2151 240.767C90.2151 240.767 92.0174 246.879 98.9287 248.289C98.9287 248.289 99.5399 244.324 96.5779 241.911C93.6159 239.497 90.2151 239.654 90.2151 239.654V240.767Z" fill="#001C45"/>
<path d="M90.2145 240.813C90.2145 240.813 88.4122 246.925 81.5009 248.336C81.5009 248.336 80.8897 244.371 83.8517 241.957C86.8137 239.544 90.2145 239.701 90.2145 239.701V240.813Z" fill="#001C45"/>
<path d="M104.836 270.057C103.927 269.759 98.4728 268.066 96.7646 267.549C96.3101 267.408 95.9497 267.251 95.6676 267.048C95.7146 267.236 95.7459 267.439 95.7459 267.643C95.7459 269.179 93.2698 270.417 90.2294 270.417C87.1734 270.417 84.7129 269.179 84.7129 267.643C84.7129 267.439 84.7286 267.251 84.7756 267.063C84.4935 267.251 84.133 267.408 83.7099 267.534C81.986 268.051 76.5479 269.743 75.6389 270.041C73.6486 270.684 73.0374 272.972 73.0374 276.764H107.468C107.437 272.972 106.842 270.699 104.836 270.057Z" fill="#FABA50"/>
<path d="M77.4414 269.477C76.5795 269.744 75.8899 269.963 75.6235 270.057C73.6332 270.7 73.022 272.988 73.022 276.78H77.4885V269.477H77.4414Z" fill="#3ED9C7"/>
<path d="M103.018 269.477C103.88 269.744 104.57 269.963 104.836 270.057C106.827 270.7 107.438 272.988 107.438 276.78H102.971V269.477H103.018Z" fill="#3ED9C7"/>
<path d="M90.2134 271.044C93.6456 271.044 96.3411 269.555 96.3411 267.659C96.3411 267.659 96.3411 267.549 96.3411 267.393C95.7769 267.173 95.3695 266.876 95.103 266.546C95.1187 266.891 95.1344 267.44 95.1344 267.643C95.1344 268.678 93.1127 269.822 90.2134 269.822C87.3141 269.822 85.2924 268.678 85.2924 267.643C85.2924 267.44 85.3081 266.923 85.3238 266.578C85.0417 266.891 84.6499 267.173 84.0857 267.393C84.0857 267.534 84.0857 267.643 84.0857 267.643C84.0857 269.555 86.7813 271.044 90.2134 271.044Z" fill="#228C7E"/>
<path d="M90.2286 250.671C89.8681 250.703 88.9592 254.809 89.3353 255.498C89.492 255.78 89.9465 256.078 90.2286 256.047C90.5107 256.078 90.9652 255.796 91.1219 255.498C91.498 254.793 90.5891 250.687 90.2286 250.671Z" fill="#BA5964"/>
<path d="M79.1338 239.435C79.1338 239.435 82.4562 239.419 83.3495 241.3" stroke="#001C45" stroke-width="0.5788" stroke-miterlimit="10" stroke-linecap="round"/>
<path d="M79.6511 236.269C79.6511 236.269 83.4908 237.695 83.3654 241.613" stroke="#001C45" stroke-width="0.5788" stroke-miterlimit="10" stroke-linecap="round"/>
<path d="M90.2292 192.514C103.913 192.514 115.006 181.421 115.006 167.737C115.006 154.052 103.913 142.959 90.2292 142.959C76.5451 142.959 65.4519 154.052 65.4519 167.737C65.4519 181.421 76.5451 192.514 90.2292 192.514Z" fill="#E5F7FF"/>
<path d="M81.579 166.404C81.579 166.404 79.9021 165.809 78.8991 166.921C77.8961 168.05 78.382 170.604 80.1059 171.341C81.7514 172.046 82.5037 171.2 82.5037 171.2L81.579 166.404Z" fill="#FF9A8D"/>
<path d="M79.8244 167.376C80.2632 167.251 80.9057 167.298 81.2505 167.611C81.3759 167.721 81.1408 167.94 81.0154 167.878C80.3102 167.564 79.4169 167.486 79.0094 168.301C78.9937 168.348 78.9624 168.301 78.9624 168.269C79.0721 167.815 79.3542 167.517 79.8244 167.376Z" fill="#BA5964"/>
<path d="M80.1526 167.47C80.2309 167.438 80.4033 167.642 80.3877 167.705C80.2623 167.752 80.0742 167.877 79.9802 168.034C79.8078 168.3 79.7608 168.535 79.7608 168.849C79.7765 169.57 80.1526 170.118 80.8578 170.322C80.8735 170.322 80.8892 170.369 80.8735 170.369C80.2466 170.494 79.5884 169.82 79.4787 169.256C79.3376 168.614 79.4317 167.752 80.1526 167.47Z" fill="#BA5964"/>
<path d="M98.912 166.404C98.912 166.404 100.589 165.809 101.592 166.921C102.595 168.05 102.109 170.604 100.385 171.341C98.7396 172.046 97.9873 171.2 97.9873 171.2L98.912 166.404Z" fill="#FF9A8D"/>
<path d="M100.667 167.376C100.228 167.251 99.5855 167.298 99.2564 167.611C99.1311 167.721 99.3661 167.94 99.4915 167.878C100.197 167.564 101.09 167.486 101.498 168.301C101.513 168.348 101.545 168.301 101.545 168.269C101.403 167.815 101.121 167.517 100.667 167.376Z" fill="#BA5964"/>
<path d="M100.321 167.47C100.243 167.438 100.071 167.642 100.086 167.705C100.212 167.752 100.4 167.877 100.494 168.034C100.666 168.3 100.713 168.535 100.713 168.849C100.698 169.57 100.321 170.118 99.6162 170.322C99.6005 170.322 99.5848 170.369 99.6005 170.369C100.227 170.494 100.886 169.82 100.995 169.256C101.136 168.614 101.042 167.752 100.321 167.47Z" fill="#BA5964"/>
<path d="M69.8083 192.513C69.8083 188.705 71.6106 186.433 73.6009 185.79C74.5099 185.492 81.1548 183.8 82.8787 183.283C84.6026 182.765 85.0571 181.747 85.0571 180.869C85.0571 179.992 85.0571 176.168 85.0571 176.168H95.3692C95.3692 176.168 95.3692 179.976 95.3692 180.869C95.3692 181.747 95.8393 182.765 97.5476 183.283C99.2715 183.8 105.916 185.492 106.825 185.79C108.816 186.433 110.618 188.721 110.618 192.513H69.8083Z" fill="#FF9A8D"/>
<path d="M85.0732 176.168C85.0732 176.168 85.0732 176.591 85.0732 177.813C85.0732 177.813 86.9382 180.744 90.245 180.744C93.5517 180.744 95.3853 177.844 95.3853 177.844C95.3853 176.622 95.3853 176.183 95.3853 176.183H85.0732V176.168Z" fill="#BA5964"/>
<path d="M106.842 185.774C105.933 185.476 99.2879 183.784 97.5639 183.267C97.3602 183.204 97.1721 183.141 96.9998 183.063C97.1721 183.47 97.2505 183.894 97.2505 184.332C97.2505 186.809 94.1004 188.815 90.2295 188.815C86.3429 188.815 83.2085 186.809 83.2085 184.332C83.2085 183.894 83.3025 183.47 83.4592 183.063C83.2869 183.141 83.0988 183.204 82.8951 183.267C81.1711 183.784 74.5263 185.476 73.6173 185.774C71.627 186.417 69.8247 188.705 69.8247 192.497H110.65C110.634 188.705 108.832 186.432 106.842 185.774Z" fill="#3ED9C7"/>
<path d="M94.3197 156.828C93.0659 156.107 91.6712 155.684 90.245 155.684C88.8189 155.684 87.3457 156.029 86.092 156.75C83.1613 158.427 81.5471 161.655 81.5471 164.962V164.977C81.5471 165.918 81.5941 166.874 81.7038 167.814L81.8606 169.13C81.9859 170.165 82.315 172.155 83.0986 174.067C84.6501 177.86 88.1136 179.098 90.245 179.098C92.3764 179.098 95.8399 177.86 97.3914 174.067C98.175 172.155 98.5041 170.165 98.6295 169.13L98.7862 167.814C98.8959 166.874 98.9586 165.918 98.9586 164.977V164.962C98.9429 161.671 97.2503 158.505 94.3197 156.828Z" fill="#FF9A8D"/>
<path d="M93.2539 167.015C93.2539 166.514 93.6614 166.106 94.1629 166.106C94.6644 166.106 95.0718 166.514 95.0718 167.015C95.0718 167.517 94.6644 167.924 94.1629 167.924C93.6614 167.924 93.2539 167.517 93.2539 167.015Z" fill="#001C45"/>
<path d="M92.7676 164.273L96.999 165.354C96.999 165.354 96.7639 164.163 95.2907 163.442C94.6482 163.129 93.8959 163.113 93.4258 163.332C92.7362 163.662 92.7676 164.273 92.7676 164.273Z" fill="#001C45"/>
<path d="M87.7055 164.273L83.4741 165.354C83.4741 165.354 83.7092 164.163 85.1824 163.442C85.8249 163.129 86.5772 163.113 87.0473 163.332C87.7369 163.662 87.7055 164.273 87.7055 164.273Z" fill="#001C45"/>
<path d="M87.2513 167.015C87.2513 166.514 86.8438 166.106 86.3423 166.106C85.8408 166.106 85.4333 166.514 85.4333 167.015C85.4333 167.517 85.8408 167.924 86.3423 167.924C86.8438 167.924 87.2513 167.517 87.2513 167.015Z" fill="#001C45"/>
<path d="M81.5315 166.592C81.5315 166.592 81.7823 166.514 82.033 166.294C82.2368 166.106 82.7069 165.621 82.7069 163.85C82.7069 162.079 83.1771 158.866 84.854 157.753C84.854 157.753 84.9323 156.907 84.5092 156.719C83.9293 156.484 82.4562 156.797 81.4375 157.769C79.2434 159.853 80.1367 166.263 80.1367 166.263C80.4815 166.232 81.1554 166.326 81.5315 166.592Z" fill="#001C45"/>
<path d="M99.2249 166.513C99.2249 166.513 98.8017 166.466 98.5666 166.294C98.3316 166.106 97.7831 165.636 97.7831 163.865C97.7831 162.094 97.3129 158.881 95.636 157.769C95.636 157.769 96.9994 156.405 98.9428 157.769C100.902 159.148 100.369 166.278 100.369 166.278C99.9614 166.247 99.5696 166.341 99.2249 166.513Z" fill="#001C45"/>
<path d="M99.2253 161.436V166.514C99.5701 166.341 99.9462 166.263 100.354 166.279C101.513 153.772 95.6207 151.108 89.352 152.237C84.7288 153.067 84.1489 157.346 84.1489 157.346L84.8385 157.769C85.6534 157.769 86.0609 158.302 86.6878 158.787C87.3303 159.289 87.9885 159.759 88.7094 160.151C89.9005 160.809 91.2326 161.279 92.5804 161.264C92.9252 161.264 93.3013 161.201 93.5207 160.95C93.8028 160.621 93.7244 160.135 93.5834 159.728C93.3953 159.211 93.1446 158.725 92.8155 158.302C93.6774 159.007 94.5237 159.712 96.1849 159.884C96.9999 159.963 97.517 159.477 97.2193 158.615C97.2036 158.552 99.2253 160.386 99.2253 161.436Z" fill="#001C45"/>
<path d="M90.2298 166.451C89.8067 166.482 88.7097 170.588 89.1642 171.278C89.3522 171.56 89.9007 171.857 90.2298 171.826C90.5589 171.857 91.1231 171.575 91.2955 171.278C91.75 170.588 90.653 166.482 90.2298 166.451Z" fill="#BA5964"/>
<path d="M83.71 157.283C83.71 157.283 83.9137 153.177 89.3048 151.547C93.9124 150.152 98.7707 152.033 100.181 153.443C102.109 155.34 100.542 157.158 98.5356 156.782C97.5639 156.593 83.71 157.283 83.71 157.283Z" fill="#001C45"/>
<path d="M79.9326 155.151C79.9326 155.151 83.2551 155.136 84.1484 157.016" stroke="#001C45" stroke-width="0.5788" stroke-miterlimit="10" stroke-linecap="round"/>
<path d="M80.45 151.986C80.45 151.986 84.2896 153.412 84.1642 157.33" stroke="#001C45" stroke-width="0.5788" stroke-miterlimit="10" stroke-linecap="round"/>
<path d="M107.751 100.988C117.427 91.3119 117.427 75.6239 107.751 65.9477C98.0746 56.2716 82.3865 56.2716 72.7103 65.9477C63.0342 75.6239 63.0342 91.3119 72.7103 100.988C82.3865 110.664 98.0746 110.664 107.751 100.988Z" fill="#E5F7FF"/>
<path d="M100.008 82.0106C100.008 82.0106 102.861 68.4857 90.229 68.4857C77.5975 68.4857 80.1206 82.0106 80.1206 82.0106H100.008Z" fill="#001C45"/>
<path d="M83.615 68.8462C83.3486 66.4327 85.48 64.2229 88.3949 63.9095C91.2942 63.5961 93.8644 65.2886 94.1309 67.6864C94.3973 70.0999 92.2659 72.3096 89.3509 72.6231C86.436 72.9522 83.8658 71.2596 83.615 68.8462Z" fill="#001C45"/>
<path d="M81.5321 81.8387C81.5321 81.8387 79.8709 81.1335 78.8679 82.2618C77.8649 83.3902 78.3507 85.9447 80.0746 86.6813C81.7202 87.3865 82.4724 86.5403 82.4724 86.5403L81.5321 81.8387Z" fill="#BA5964"/>
<path d="M79.7922 82.701C80.231 82.5756 80.8735 82.6226 81.2027 82.936C81.328 83.0457 81.0929 83.2652 80.9676 83.2025C80.2623 82.889 79.369 82.8107 78.9616 83.6256C78.9459 83.6726 78.9146 83.6256 78.9146 83.5943C79.0556 83.1398 79.3377 82.842 79.7922 82.701Z" fill="#893A47"/>
<path d="M80.1367 82.7943C80.2151 82.763 80.3875 82.9667 80.3718 83.0294C80.2464 83.0764 80.0583 83.2018 79.9643 83.3585C79.7919 83.6249 79.7449 83.86 79.7449 84.1735C79.7606 84.8944 80.1367 85.4429 80.842 85.6466C80.8576 85.6466 80.8733 85.6936 80.8576 85.6936C80.2307 85.819 79.5725 85.1451 79.4628 84.5809C79.3218 83.9384 79.4158 83.0764 80.1367 82.7943Z" fill="#893A47"/>
<path d="M98.8964 81.8384C98.8964 81.8384 100.558 81.1331 101.561 82.2458C102.564 83.3742 102.078 85.9287 100.354 86.6653C98.7083 87.3705 97.9561 86.5243 97.9561 86.5243L98.8964 81.8384Z" fill="#BA5964"/>
<path d="M100.636 82.7C100.197 82.5747 99.5548 82.6217 99.21 82.9351C99.0847 83.0448 99.3197 83.2642 99.4451 83.2015C100.15 82.8881 101.044 82.8098 101.451 83.6247C101.467 83.6717 101.498 83.6247 101.498 83.5933C101.373 83.1389 101.106 82.8411 100.636 82.7Z" fill="#893A47"/>
<path d="M100.307 82.7942C100.229 82.7629 100.056 82.9666 100.072 83.0293C100.198 83.0763 100.386 83.2017 100.48 83.3584C100.652 83.6248 100.699 83.8599 100.699 84.1733C100.683 84.8942 100.307 85.4428 99.602 85.6465C99.5863 85.6465 99.5707 85.6935 99.5863 85.6935C100.213 85.8189 100.871 85.145 100.981 84.5808C101.106 83.9383 101.028 83.0763 100.307 82.7942Z" fill="#893A47"/>
<path d="M99.6163 99.8767L95.2752 96.3348H85.0571L80.8101 99.8767H99.6163Z" fill="#3ED9C7"/>
<path d="M85.0563 96.3348L84.7585 98.5132H95.6662L95.2744 96.3348H85.0563Z" fill="#228C7E"/>
<path d="M73.0222 108.246C73.0222 104.438 73.6334 102.165 75.6238 101.523C76.5327 101.225 81.9865 99.5323 83.6948 99.0152C85.4187 98.498 85.8732 97.4793 85.8732 96.6017C85.8732 95.7241 85.8732 92.6994 85.8732 92.6994H94.5867C94.5867 92.6994 94.5867 95.7084 94.5867 96.6017C94.5867 97.4793 95.0569 98.498 96.7651 99.0152C98.489 99.5323 103.927 101.225 104.836 101.523C106.826 102.165 107.438 104.453 107.438 108.246H73.0222Z" fill="#BA5964"/>
<path d="M85.8735 93.8278C85.8735 93.8434 86.7355 96.3353 90.2303 96.3353C93.7251 96.3353 94.5871 93.8434 94.5871 93.8278C94.5871 93.1852 94.5871 92.6994 94.5871 92.6994H85.8735C85.8735 92.6994 85.8735 93.1852 85.8735 93.8278Z" fill="#893A47"/>
<path d="M86.0618 103.794C86.0618 103.794 87.6603 104.782 90.2305 104.782C92.8007 104.782 94.3836 103.794 94.3836 103.794L93.2082 108.245H87.2372L86.0618 103.794Z" fill="#FABA50"/>
<path d="M84.698 99.1085C84.698 98.9048 84.7137 98.7167 84.7607 98.5286C84.4786 98.7167 84.1182 98.8734 83.695 98.9988C81.9711 99.516 76.533 101.209 75.624 101.506C73.6337 102.149 73.0225 104.437 73.0225 108.23H87.2369L85.4189 101.177C84.2749 100.676 84.698 99.9391 84.698 99.1085Z" fill="#228C7E"/>
<path d="M104.836 101.506C103.927 101.208 98.473 99.5159 96.7647 98.9988C96.3103 98.8577 95.9498 98.701 95.6677 98.4973C95.7147 98.6853 95.7461 98.8891 95.7461 99.0928C95.7461 99.9234 96.1535 100.66 95.0252 101.161L93.2229 108.214H107.469C107.437 104.437 106.842 102.164 104.836 101.506Z" fill="#228C7E"/>
<path d="M95.6682 98.5126L99.6176 99.876L98.1601 101.772L95.5899 102.478L97.6116 104.029L93.2078 108.245L95.6682 98.5126Z" fill="#3ED9C7"/>
<path d="M84.7604 98.5126L80.811 99.876L82.2842 101.772L84.8387 102.478L82.817 103.7L87.2208 108.245L84.7604 98.5126Z" fill="#3ED9C7"/>
<path d="M94.3039 72.5607C93.0501 71.8398 91.6553 71.4167 90.2292 71.4167C88.803 71.4167 87.3926 71.8398 86.1545 72.5607C83.2238 74.2376 81.5312 77.4033 81.5312 80.7258C81.5312 80.7415 81.5312 80.7415 81.5312 80.7571C81.5312 81.6974 81.5939 82.6378 81.688 83.5624L81.8447 84.8788C81.9701 85.9132 82.1581 86.9319 82.4872 87.9192C83.741 91.8215 87.2202 94.7521 90.2292 94.7521C93.2382 94.7521 96.7173 91.8215 97.9867 87.9192C98.3002 86.9319 98.5039 85.9132 98.6293 84.8788L98.786 83.5624C98.8957 82.6221 98.9584 81.6661 98.9584 80.7258V80.7101C98.9114 77.3877 97.2188 74.2376 94.3039 72.5607Z" fill="#BA5964"/>
<path d="M93.2224 82.9508C93.2224 82.4493 93.6299 82.0418 94.1314 82.0418C94.6329 82.0418 95.0404 82.4493 95.0404 82.9508C95.0404 83.4523 94.6329 83.8597 94.1314 83.8597C93.6299 83.8597 93.2224 83.4523 93.2224 82.9508Z" fill="#001C45"/>
<path d="M92.3455 80.6158L96.5769 81.6972C96.5769 81.6972 96.4045 80.2867 94.947 79.9263C93.1761 79.4875 92.3455 80.6158 92.3455 80.6158Z" fill="#001C45"/>
<path d="M87.2198 82.9508C87.2198 82.4493 86.8123 82.0418 86.3108 82.0418C85.8093 82.0418 85.4019 82.4493 85.4019 82.9508C85.4019 83.4523 85.8093 83.8597 86.3108 83.8597C86.8123 83.8597 87.2198 83.4523 87.2198 82.9508Z" fill="#001C45"/>
<path d="M88.1135 80.6159L83.8821 81.6973C83.8821 81.6973 84.0545 80.2868 85.512 79.9263C87.2829 79.4875 88.1135 80.6159 88.1135 80.6159Z" fill="#001C45"/>
<path d="M81.4221 78.5002H87.2364C87.2364 78.5002 87.4245 75.8986 88.6469 73.6732V78.5002H92.9723V73.6732C92.9723 73.6732 94.1634 76.5098 94.1634 78.5002H99.0373C99.0373 78.5002 98.5672 70.5545 90.2454 70.5545C81.8766 70.5389 81.4221 78.5002 81.4221 78.5002Z" fill="#001C45"/>
<path d="M90.2288 82.0421C89.8684 82.0734 88.9594 86.1794 89.3356 86.869C89.4923 87.1511 89.9467 87.4489 90.2288 87.4175C90.5109 87.4489 90.9654 87.1668 91.1222 86.869C91.4983 86.1794 90.5893 82.0734 90.2288 82.0421Z" fill="#893A47"/>
<path d="M94.3515 64.5212C94.3515 64.5212 95.5426 67.6243 94.1165 69.1288" stroke="#001C45" stroke-width="0.5788" stroke-miterlimit="10" stroke-linecap="round"/>
<path d="M97.5022 64.5212C97.5022 64.5212 97.5335 68.6116 93.835 69.881" stroke="#001C45" stroke-width="0.5788" stroke-miterlimit="10" stroke-linecap="round"/>
</svg>
